<?xml version="1.0" encoding="utf-8"?>
<!-- Generator: Adobe Illustrator 22.0.1, SVG Export Plug-In . SVG Version: 6.00 Build 0)  -->
<svg version="1.1" id="Layer_1" xmlns="http://www.w3.org/2000/svg" xmlns:xlink="http://www.w3.org/1999/xlink" x="0px" y="0px"
	 viewBox="0 0 262.7 300" style="enable-background:new 0 0 262.7 300;" xml:space="preserve">
<style type="text/css">
	.st0{fill:#FFFFFF;}
</style>
<g>
	<path class="st0" d="M53.9,146H25.3v-0.9c0-9.1,2.6-16.8,7.8-23.2c5.2-6.4,13-13,23.5-19.9l19.8-13.2c9.1-6.2,16-12.5,20.6-19.1
		c4.6-6.5,6.9-14.4,6.9-23.7c0-13.7-4.2-23.8-12.7-30.4C82.8,9,69,5.7,49.8,5.7c-3.5,0-7.3,0.1-11.3,0.4c-4,0.3-8,0.7-11.9,1.2
		c-3.9,0.5-7.7,1.1-11.3,1.8c-3.7,0.7-6.9,1.4-9.7,2.1c-1.2,0.3-2.2,0.8-3,1.4c-0.8,0.7-1.2,1.6-1.2,2.8v13.2c0,1.2,0.4,2.2,1.1,3.1
		C3.2,32.5,4.1,33,5.3,33h0.4c3.2-0.4,6.8-0.8,10.6-1.2c3.8-0.4,7.7-0.7,11.6-1c3.9-0.3,7.7-0.6,11.5-0.8c3.7-0.2,7.2-0.3,10.5-0.3
		c9.3,0,15.9,1.2,19.8,3.6c4,2.4,5.9,6.6,5.9,12.7c0,3.1-0.3,5.7-0.8,7.8c-0.5,2.1-1.5,4.1-3,5.9c-1.5,1.8-3.5,3.8-6.2,5.8
		c-2.6,2.1-6.1,4.5-10.4,7.3L33.5,87.4c-4.6,3.1-8.8,6.7-12.9,10.8c-4,4.1-7.6,8.6-10.7,13.5c-3.1,4.9-5.5,10.2-7.3,15.9
		C0.9,133.2,0,139.1,0,145.1v21.6c0,1.2,0.4,2.2,1.3,3.1c0.9,0.9,1.9,1.3,3.1,1.3h84.8c0-8.6,0-16.3,0-25.1H53.9z"/>
	<path class="st0" d="M187.8,96.9c-0.5,0.6-1.1,0.8-1.8,0.8h-11.8c-0.7,0-1.3-0.3-1.8-0.8c-0.5-0.6-0.8-1.2-0.8-1.9V53.2
		c0-2.8-0.1-5.2-0.3-7c-0.2-1.8-0.7-3.3-1.4-4.4c-0.7-1.1-1.8-1.8-3.3-2.3c-1.5-0.5-3.4-0.7-5.9-0.7c-2.2,0-4.5,0.4-6.9,1.2
		c-2.4,0.8-4.9,1.9-7.6,3.4V95c0,0.7-0.3,1.3-0.8,1.9c-0.5,0.6-1.1,0.8-1.8,0.8h-11.8c-0.7,0-1.3-0.3-1.8-0.8
		c-0.5-0.6-0.8-1.2-0.8-1.9V27.9c0-0.7,0.3-1.3,0.8-1.8c0.5-0.5,1.1-0.8,1.8-0.8H143c0.7,0,1.3,0.3,1.8,0.8c0.5,0.5,0.8,1.1,0.8,1.8
		v2.7c1.9-1.2,3.6-2.2,5.2-3c1.6-0.8,3.2-1.4,4.8-1.9c1.6-0.5,3.3-0.8,5-1c1.7-0.2,3.6-0.3,5.8-0.3c4.6,0,8.4,0.7,11.3,2.2
		c2.9,1.5,5.2,3.5,6.7,6c1.6,2.6,2.7,5.6,3.3,9.1c0.6,3.5,0.9,7.3,0.9,11.4V95C188.6,95.7,188.3,96.3,187.8,96.9z"/>
	<path class="st0" d="M262.7,91.9c0,0.9-0.2,1.6-0.6,2.1c-0.4,0.5-1.4,0.9-2.8,1.3c-4,1-8.3,1.8-12.8,2.4c-4.5,0.6-8.9,0.9-13,0.9
		c-10.4,0-18.1-2.8-23.1-8.5c-5.1-5.7-7.6-13.6-7.6-23.7v-9.9c0-10.1,2.5-18,7.6-23.7c5.1-5.7,12.8-8.5,23.1-8.5
		c1.5,0,3.4,0.1,5.5,0.2c2.1,0.1,4.4,0.4,6.8,0.7V2.6c0-0.7,0.3-1.3,0.8-1.8c0.5-0.5,1.1-0.8,1.8-0.8h11.8c0.7,0,1.3,0.3,1.8,0.8
		c0.5,0.5,0.8,1.1,0.8,1.8V91.9z M245.7,39.3c-1.8-0.3-3.9-0.5-6.4-0.6c-2.4-0.2-4.4-0.3-6-0.3c-2.7,0-5,0.5-6.8,1.4
		c-1.8,0.9-3.2,2.2-4.2,3.8c-1,1.6-1.7,3.5-2.1,5.7c-0.4,2.2-0.6,4.6-0.6,7.3v9.8c0,2.6,0.2,5.1,0.6,7.3c0.4,2.2,1.1,4.1,2.1,5.7
		c1,1.6,2.4,2.9,4.2,3.8c1.8,0.9,4.1,1.4,6.8,1.4c2.3,0,4.6-0.1,7-0.3c2.4-0.2,4.1-0.4,5.3-0.6V39.3z"/>
	<g>
		<path class="st0" d="M43.1,275.9H14.9c-4.7,0-8.3-1-11-3c-2.6-2-3.9-5.6-3.9-10.8v-75.5c0-0.7,0.2-1.2,0.6-1.7
			c0.4-0.5,0.9-0.7,1.5-0.7h1.2c0.7,0,1.2,0.2,1.5,0.7c0.4,0.5,0.6,1,0.6,1.7v75.5c0,1.9,0.2,3.4,0.7,4.6c0.5,1.2,1.1,2,1.8,2.7
			c0.8,0.6,1.8,1,3,1.2c1.2,0.2,2.5,0.3,4,0.3h28.1c1.6,0,2.3,0.7,2.3,2v1C45.4,275.2,44.6,275.9,43.1,275.9z"/>
		<path class="st0" d="M101.2,273.5c0,0.7-0.2,1.2-0.7,1.7c-0.5,0.5-1,0.7-1.7,0.7h-0.6c-0.6,0-1.2-0.2-1.7-0.7
			c-0.5-0.5-0.7-1.1-0.7-1.7v-3.1c-3,1.6-6.3,3.1-9.9,4.4s-7.2,1.9-11.1,1.9c-2.3,0-4.6-0.3-6.8-0.9c-2.3-0.6-4.3-1.7-6-3.2
			c-1.8-1.5-3.2-3.6-4.3-6.1c-1.1-2.5-1.7-5.8-1.7-9.6v-1.6c0-3.2,0.5-6,1.6-8.3c1.1-2.3,2.8-4.3,5.2-5.9c2.4-1.6,5.5-2.8,9.4-3.6
			c3.9-0.8,8.7-1.2,14.2-1.2h9.5v-4.4c0-3.2-0.2-5.9-0.7-8.2c-0.5-2.3-1.3-4.1-2.5-5.6c-1.2-1.4-2.8-2.5-4.8-3.1c-2-0.7-4.5-1-7.5-1
			c-2.1,0-3.8,0-5.4,0.1c-1.5,0-2.9,0.1-4.3,0.2c-1.3,0.1-2.6,0.2-3.8,0.4c-1.2,0.1-2.6,0.3-4.1,0.4c-0.7,0.1-1.3,0-1.9-0.2
			c-0.6-0.2-0.9-0.8-0.9-1.7v-0.7c0-0.8,0.2-1.4,0.7-1.6c0.5-0.2,1.2-0.5,2.1-0.6c1.3-0.2,2.6-0.3,3.8-0.4c1.2-0.1,2.5-0.2,3.8-0.4
			c1.4-0.1,2.8-0.2,4.4-0.2c1.6,0,3.4-0.1,5.5-0.1c4.2,0,7.6,0.6,10.3,1.7c2.7,1.1,4.8,2.7,6.4,4.7c1.6,2,2.7,4.4,3.3,7.2
			c0.6,2.8,0.9,5.8,0.9,9.1V273.5z M95.9,241h-9.5c-4.7,0-8.6,0.2-11.8,0.7c-3.2,0.5-5.7,1.3-7.7,2.4c-2,1.1-3.4,2.6-4.3,4.4
			c-0.9,1.8-1.3,4-1.3,6.7v1.6c0,2.9,0.3,5.3,1,7.2c0.7,1.9,1.7,3.5,2.9,4.6c1.2,1.2,2.7,2,4.3,2.5c1.6,0.5,3.4,0.7,5.2,0.7
			c3.5,0,6.8-0.5,10.1-1.5c3.2-1,6.9-2.6,11-4.8V241z"/>
		<path class="st0" d="M142.3,282.9c-1,3.3-2,6-3.1,8.3c-1.1,2.2-2.4,4-4,5.3c-1.6,1.3-3.4,2.2-5.4,2.8c-2.1,0.5-4.5,0.8-7.4,0.8
			c-1.4,0-2.7-0.1-4-0.2c-1.3-0.2-2.5-0.3-3.6-0.5c-0.7-0.2-1.3-0.3-1.8-0.5c-0.5-0.2-0.7-0.6-0.7-1.2v-1.4c0-0.7,0.2-1.3,0.6-1.5
			c0.4-0.3,1-0.4,2-0.2c0.9,0.2,2.2,0.3,3.9,0.5c1.7,0.2,3.1,0.2,4.1,0.2c2.2,0,4.1-0.2,5.6-0.6c1.5-0.4,2.8-1.1,3.9-2.1
			c1.1-1,2.1-2.3,2.8-4.1c0.8-1.7,1.5-3.9,2.3-6.7l1.6-5.8h-1.7c-1.9,0-3.4-0.4-4.5-1.2c-1.1-0.8-2.1-2.7-3-5.7l-16.7-56.4
			c-0.2-0.8-0.2-1.5,0.1-2.1c0.3-0.6,0.9-0.9,1.9-0.9h1.1c0.7,0,1.1,0.2,1.4,0.6c0.2,0.4,0.5,0.8,0.6,1.2l16.7,56.8
			c0.4,1.3,0.9,2.1,1.4,2.3c0.5,0.2,1,0.4,1.5,0.4h2.8l16.9-59.6c0.2-0.4,0.4-0.8,0.6-1.1c0.2-0.3,0.8-0.5,1.6-0.5h1.1
			c1,0,1.6,0.3,1.8,0.9c0.2,0.6,0.2,1.3-0.1,2.2L142.3,282.9z"/>
		<path class="st0" d="M221.2,241.8c0,0.7-0.2,1.2-0.7,1.7c-0.5,0.5-1,0.7-1.7,0.7h-41.7v2.6c0,5.2,0.6,9.4,1.7,12.7
			c1.2,3.3,2.8,5.9,4.8,7.7c2.1,1.9,4.4,3.1,7.1,3.8c2.7,0.7,5.6,1,8.7,1c2.7,0,5.7-0.2,8.9-0.6c3.2-0.4,6.3-0.9,9.4-1.5
			c0.7-0.2,1.3-0.1,1.8,0.1c0.5,0.2,0.8,0.7,0.8,1.5v0.9c0,0.7-0.2,1.2-0.5,1.5c-0.3,0.4-0.9,0.6-1.9,0.8c-3,0.7-6.1,1.2-9.4,1.5
			c-3.3,0.4-6.3,0.6-9.1,0.6c-3.9,0-7.5-0.5-10.8-1.4c-3.3-0.9-6.3-2.5-8.8-4.8c-2.6-2.3-4.5-5.3-6-9.2s-2.2-8.7-2.2-14.6v-8.1
			c0-4.3,0.5-8.2,1.6-11.8c1.1-3.6,2.7-6.7,4.7-9.3c2.1-2.6,4.7-4.7,7.8-6.2c3.1-1.5,6.7-2.2,10.8-2.2c4.3,0,8,0.7,11,2.1
			c3.1,1.4,5.6,3.4,7.6,6c2,2.6,3.5,5.7,4.4,9.3c0.9,3.6,1.4,7.6,1.4,12V241.8z M215.8,238.3c0-7.8-1.4-13.8-4.3-18
			c-2.9-4.3-7.8-6.4-14.8-6.4c-3.5,0-6.4,0.6-8.8,1.8c-2.4,1.2-4.4,2.9-6,5c-1.6,2.2-2.8,4.7-3.5,7.7c-0.7,3-1.1,6.3-1.1,10v0.6
			h38.6V238.3z"/>
		<path class="st0" d="M261.6,213.5c-0.6,0.2-1.4,0.4-2.4,0.4c-2.4,0-4.9,0.4-7.6,1.1c-2.7,0.7-5.9,2.3-9.6,4.6v54
			c0,0.7-0.2,1.2-0.7,1.7c-0.5,0.5-1,0.7-1.7,0.7H239c-0.7,0-1.2-0.2-1.7-0.7c-0.5-0.4-0.7-1-0.7-1.7v-61.4c0-0.7,0.2-1.2,0.6-1.7
			c0.4-0.5,0.9-0.7,1.6-0.7h1c0.7,0,1.2,0.2,1.6,0.7c0.4,0.5,0.6,1.1,0.6,1.7v2.6c3.1-2.1,6-3.5,8.6-4.4c2.6-0.9,5.5-1.3,8.5-1.3
			c1,0,1.8,0.1,2.4,0.4c0.6,0.2,0.9,0.7,0.9,1.5v1C262.6,212.7,262.2,213.3,261.6,213.5z"/>
	</g>
	<g>
		<g>
			<path class="st0" d="M261.3,147c-0.9-0.7-1.9-1.1-3.1-1.1h-8.6H25.3v25.2h224.3c0,0,0,0,0,0h8.6c1.2,0,2.2-0.4,3.1-1.3
				c0.9-0.9,1.3-1.9,1.3-3.1v-16.8C262.7,148.7,262.2,147.7,261.3,147z"/>
		</g>
	</g>
</g>
</svg>
