<?xml version="1.0" encoding="UTF-8" standalone="no"?>
<svg
   version="1.1"
   id="Layer_1"
   x="0px"
   y="0px"
   viewBox="0 0 373.79999 281.20001"
   xml:space="preserve"
   sodipodi:docname="logo-header-no-symbol-white.svg"
   width="373.79999"
   height="281.20001"
   inkscape:version="1.1-dev (b39e6d56, 2020-09-19)"
   xmlns:inkscape="http://www.inkscape.org/namespaces/inkscape"
   xmlns:sodipodi="http://sodipodi.sourceforge.net/DTD/sodipodi-0.dtd"
   xmlns="http://www.w3.org/2000/svg"
   xmlns:svg="http://www.w3.org/2000/svg"><defs
   id="defs148" /><sodipodi:namedview
   pagecolor="#ffffff"
   bordercolor="#666666"
   borderopacity="1"
   objecttolerance="10"
   gridtolerance="10"
   guidetolerance="10"
   inkscape:pageopacity="0"
   inkscape:pageshadow="2"
   inkscape:window-width="1440"
   inkscape:window-height="775"
   id="namedview146"
   showgrid="false"
   inkscape:pagecheckerboard="true"
   fit-margin-top="0"
   fit-margin-left="0"
   fit-margin-right="0"
   fit-margin-bottom="0"
   inkscape:zoom="1.0983694"
   inkscape:cx="-69.6487"
   inkscape:cy="66.917379"
   inkscape:window-x="0"
   inkscape:window-y="23"
   inkscape:window-maximized="1"
   inkscape:current-layer="Layer_1" />
<style
   type="text/css"
   id="style95">
	.st0{fill:#FFFFFF;}
</style>

<g
   id="g143"
   transform="translate(-296.2,-2)">
	<g
   id="g125">
		<path
   class="st0"
   d="M 297.9,165.5 V 3.8 h 18.7 c 22,0 33.9,4.4 40.3,16.7 6.2,12.3 7,32.6 7,64.3 0,31.7 -0.9,51.7 -7,64 -6.4,12.3 -18.3,16.7 -40.3,16.7 z m 23.7,-23.8 c 8.1,0 12.8,-0.9 15.2,-8.8 1.1,-3.7 2,-9.5 2.2,-17.2 0.2,-7.7 0.2,-18 0.2,-31.2 0,-13.2 0,-23.5 -0.2,-31.2 -0.2,-7.5 -1.1,-13.2 -2.2,-17.2 -2.4,-7.7 -7,-8.6 -15.2,-8.6 z"
   id="path115" />
		<path
   class="st0"
   d="m 441.6,132.3 c -0.2,6.6 -1.5,12.5 -4,17.6 -2,4.4 -5.1,8.6 -9.5,11.9 -4.4,3.5 -10.3,5.5 -18.3,5.5 -7.9,0 -14.1,-2 -18.5,-5.5 -4.4,-3.3 -7.3,-7.5 -9.2,-11.9 -2.4,-5.1 -3.7,-11 -4,-17.6 V 37 c 0.2,-6.4 1.5,-12.3 4,-17.4 2,-4.4 4.8,-8.8 9.2,-12.1 C 395.8,4.2 402,2 409.9,2 c 7.9,0 13.9,2.2 18.3,5.5 4.4,3.3 7.5,7.7 9.5,12.1 2.4,5.1 3.7,11 4,17.4 v 95.3 z M 417.8,37 c 0,-4.4 -0.9,-7.5 -3.1,-10.1 -1.1,-1.1 -2.9,-1.8 -4.8,-1.8 -4.2,0 -6.2,3.1 -7,5.9 -0.7,1.8 -0.9,3.7 -0.9,5.9 v 95.3 c 0,4.6 1.1,7.7 3.3,10.1 1.1,1.1 2.6,1.8 4.6,1.8 4.2,0 6.2,-2.6 7,-5.9 0.7,-1.5 0.9,-3.5 0.9,-5.9 z"
   id="path117" />
		<path
   class="st0"
   d="m 457.6,3.8 h 23.8 v 139.7 h 31.5 v 22 H 457.7 V 3.8 Z"
   id="path119" />
		<path
   class="st0"
   d="m 584.4,110 v 22.2 c -0.2,6.6 -1.5,12.5 -4,17.6 -2,4.4 -5.1,8.6 -9.5,11.9 -4.4,3.5 -10.3,5.5 -18.3,5.5 -8,0 -14.1,-2 -18.5,-5.5 -4.4,-3.3 -7.3,-7.5 -9.2,-11.9 -2.4,-5.1 -3.7,-11 -4,-17.6 V 37 c 0.2,-6.4 1.5,-12.3 4,-17.4 2,-4.4 4.8,-8.8 9.2,-12.1 4.4,-3.3 10.6,-5.5 18.5,-5.5 7.9,0 13.9,2.2 18.3,5.5 4.4,3.3 7.5,7.7 9.5,12.1 2.4,5.1 3.7,11 4,17.4 V 59.2 H 562.2 V 37 c 0,-4.4 -1.1,-7.5 -3.5,-10.1 -1.1,-1.1 -3.1,-1.8 -5.5,-1.8 -4.2,0 -6.2,3.1 -7.3,5.9 -0.7,1.8 -0.9,3.7 -1.1,5.9 v 95.3 c 0.2,4.6 1.5,7.7 3.7,10.1 1.1,1.1 2.6,1.8 4.6,1.8 5.1,0 7,-2.6 8.1,-5.9 0.7,-1.5 0.9,-3.5 0.9,-5.9 V 110 Z"
   id="path121" />
		<path
   class="st0"
   d="M 592.1,165.5 616.5,3.8 h 29 L 670,165.5 h -23.1 l -4.4,-33 h -22.9 l -4.4,33 z m 40.3,-109.1 -0.7,-4.2 h -1.3 l -0.7,4.2 -6.8,51.1 h 16.3 z"
   id="path123" />
	</g>
	<g
   id="g141">
		<path
   class="st0"
   d="m 296.2,198.1 h 11.7 v 4.2 c 2,-1.8 3.7,-3.2 6,-4.3 1,-0.6 2.2,-0.8 3.2,-0.8 3.2,0 5.4,1.8 6.9,4.2 1.4,2.4 2.1,5.5 2.1,8.2 v 40.3 c 0,2.7 -0.7,5.8 -2.1,8.1 -1.5,2.4 -3.7,4.3 -6.9,4.3 -2.2,0 -4.5,-1.3 -6.2,-2.5 -1,-0.8 -2,-1.6 -3,-2.5 v 25.9 h -11.7 z m 11.7,49.4 c 0,1.8 1.7,3.8 3.5,3.8 1.8,0 3.1,-1.6 3.1,-3.8 V 212 c 0,-2.2 -1.4,-3.8 -3.1,-3.8 -1.7,0 -3.5,1.6 -3.5,3.8 z"
   id="path127" />
		<path
   class="st0"
   d="m 388.9,246 c -0.3,6.1 -2.2,10.4 -6.2,13.8 -2.1,1.7 -5,2.5 -8.8,2.5 -7.5,0 -11.2,-4.2 -13.1,-8.3 -1,-2.4 -1.7,-5.2 -1.8,-8.3 v -31.8 c 0.3,-6.1 2.2,-10.6 6.2,-14.1 2,-1.7 4.9,-2.5 8.7,-2.5 7.5,0 11.3,4.2 13.2,8.2 1,2.4 1.7,5.1 1.8,8.1 z m -11,-32.1 c 0.1,-2.4 -0.3,-4.2 -1.5,-5.5 -0.6,-0.6 -1.5,-0.9 -2.5,-0.9 -2.2,0 -3.1,1.5 -3.6,3.2 -0.3,0.9 -0.5,2 -0.3,3.2 v 31.8 c -0.1,2.4 0.5,4.2 1.5,5.4 0.6,0.6 1.4,0.9 2.4,0.9 2.2,0 3.2,-1.4 3.7,-3.1 0.3,-0.9 0.5,-2 0.3,-3.2 z"
   id="path129" />
		<path
   class="st0"
   d="m 451.1,246 c -0.3,6.1 -2.2,10.4 -6.2,13.8 -2.1,1.7 -5,2.5 -8.8,2.5 -7.5,0 -11.2,-4.2 -13.1,-8.3 -1,-2.4 -1.7,-5.2 -1.8,-8.3 v -31.8 c 0.3,-6.1 2.2,-10.6 6.2,-14.1 2,-1.7 4.9,-2.5 8.7,-2.5 7.5,0 11.3,4.2 13.2,8.2 1,2.4 1.7,5.1 1.8,8.1 z m -11,-32.1 c 0.1,-2.4 -0.3,-4.2 -1.5,-5.5 -0.6,-0.6 -1.5,-0.9 -2.5,-0.9 -2.2,0 -3.1,1.5 -3.6,3.2 -0.3,0.9 -0.5,2 -0.3,3.2 v 31.8 c -0.1,2.4 0.5,4.2 1.5,5.4 0.6,0.6 1.4,0.9 2.4,0.9 2.2,0 3.2,-1.4 3.7,-3.1 0.3,-0.9 0.5,-2 0.3,-3.2 z"
   id="path131" />
		<path
   class="st0"
   d="m 484.2,261.4 v -84.9 h 11.7 v 84.9 z"
   id="path133" />
		<path
   class="st0"
   d="m 528.5,248.5 h 12.1 v 12.8 h -12.1 z"
   id="path135" />
		<path
   class="st0"
   d="m 602.6,238.7 v 7.3 c -0.3,6.1 -2.2,10.4 -6.4,13.8 -2.1,1.7 -5,2.5 -8.8,2.5 -7.5,0 -11.3,-4.2 -13.2,-8.3 -1,-2.4 -1.7,-5.2 -1.8,-8.3 v -31.8 c 0.3,-6.1 2.3,-10.6 6.5,-14.1 2,-1.7 4.9,-2.5 8.7,-2.5 7.5,0 11.3,4.2 13.2,8.2 1,2.4 1.7,5.1 1.8,8.1 V 232 h -19.3 v 13.8 c 0.1,2.4 0.8,4.2 1.8,5.4 0.6,0.6 1.4,0.9 2.4,0.9 2.2,0 3.2,-1.4 3.7,-3.1 0.3,-0.9 0.5,-2 0.5,-3.2 v -6.9 h 10.9 z m -19.3,-15.9 h 8.4 v -8.9 c 0,-2.4 -0.5,-4.2 -1.6,-5.5 -0.6,-0.6 -1.5,-0.9 -2.5,-0.9 -2.2,0 -3.1,1.5 -3.7,3.2 -0.3,0.9 -0.5,2 -0.6,3.2 z"
   id="path137" />
		<path
   class="st0"
   d="m 653.7,198.1 h 11.7 v 63.2 H 653.7 V 256 c -0.2,0.1 -0.7,0.6 -1.3,1.2 -1.4,1.4 -3,3 -5.1,4.2 -1,0.6 -2.1,0.9 -3.1,0.9 -3.1,0 -5.3,-1.8 -6.7,-4.3 -1.4,-2.3 -2.1,-5.4 -2.1,-8.1 v -51.8 h 11.7 v 50 c 0,2.4 1.4,2.8 2.8,2.8 1.3,0 2,-0.7 2.8,-1.5 0.3,-0.3 0.7,-0.9 1,-1.5 z"
   id="path139" />
	</g>
</g>
</svg>
