<?xml version="1.0" encoding="utf-8"?>
<!-- Generator: Adobe Illustrator 24.3.0, SVG Export Plug-In . SVG Version: 6.00 Build 0)  -->
<svg version="1.1" id="Layer_1" xmlns="http://www.w3.org/2000/svg" xmlns:xlink="http://www.w3.org/1999/xlink" x="0px" y="0px"
	 viewBox="0 0 1280 1280" style="enable-background:new 0 0 1280 1280;" xml:space="preserve">
<style type="text/css">
	.st0{fill:#FFFFFF;}
</style>
<g transform="translate(0.000000,1280.000000) scale(0.100000,-0.100000)">
	<path class="st0" d="M5580,11357c0-5,8-6,18-3c9,3,77,12,151,22l133,16l246,249c135,137,249,248,253,247c7-3,1338-1322,3069-3042
		c371-369,816-810,988-981l312-310l-15,55c-9,30-36,119-62,197l-45,142l-332,328c-182,180-1136,1127-2119,2103
		c-984,976-1792,1776-1795,1778"/>
	<path class="st0" d="M6245,11254c-268-11-495-37-750-85c-1628-306-2995-1436-3610-2985c-48-121-155-436-155-457c0-7,65,53,144,132
		l144,144l52,131c224,563,563,1084,995,1525c760,777,1712,1241,2825,1378c189,23,829,24,1013,2l118-15l-107,107l-107,107l-86,6
		C6597,11252,6338,11258,6245,11254z"/>
	<path class="st0" d="M7859,10926l144-144l131-52c861-341,1616-953,2139-1732c418-622,668-1307,764-2088c23-189,24-829,2-1013
		l-15-118l108,108l108,108l10,203c22,461-30,953-150,1418c-386,1496-1474,2727-2915,3299c-122,48-437,155-458,155
		C7720,11070,7780,11005,7859,10926z"/>
	<path class="st0" d="M636,6379l400-400c219-219,403-399,407-399c5,0,6,8,3,18c-3,9-12,77-21,150l-17,133l-249,246
		c-137,136-248,250-247,254c2,4,822,832,1823,1841c2272,2289,2509,2528,2504,2527c-2,0-69-20-149-44s-167-53-194-63
		c-43-17-187-158-1195-1175c-630-635-1578-1590-2105-2122"/>
	<path class="st0" d="M11354,7203c3-10,12-78,21-151l17-133l249-246c137-136,248-250,247-254c-2-4-822-832-1823-1841
		C9064,3570,8090,2589,7901,2397l-344-347l54,15c30,9,117,36,195,61l141,46l285,286c156,158,893,901,1638,1652
		c744,751,1565,1578,1824,1838l471,472l-400,400c-220,220-404,400-408,400C11352,7220,11351,7212,11354,7203z"/>
	<path class="st0" d="M1667,6912l-107-108l-10-202c-22-461,30-953,150-1418c386-1496,1474-2727,2915-3299c122-48,437-155,458-155
		c7,0-53,65-132,144l-144,144l-131,52c-861,341-1616,953-2139,1732c-417,622-668,1307-764,2088c-23,189-24,829-2,1013
		c8,64,15,117,14,117C1775,7020,1726,6972,1667,6912z"/>
	<path class="st0" d="M6820,1035c220,220,400,404,400,408c0,5-8,6-17,3c-10-3-78-12-152-22l-133-16l-246-249
		c-135-137-249-248-253-247c-7,3-1338,1322-3069,3042c-371,369-816,810-988,981l-312,310l15-55c9-30,36-118,61-196l46-141l286-285
		c158-156,897-889,1642-1628s1572-1560,1838-1824l482-481"/>
	<path class="st0" d="M10923,4938l-142-143l-52-130c-223-563-562-1083-994-1524c-760-777-1712-1241-2825-1378c-189-23-829-24-1013-2
		l-118,15l108-108l108-108l203-10c284-13,618,3,904,46c1719,254,3171,1404,3813,3020c54,135,157,443,153,456
		C11066,5076,11001,5016,10923,4938z"/>
</g>
<g>
	<path class="st0" d="M344.2,689.6V464.7h26c30.6,0,47.1,6.1,56,23.3c8.6,17.1,9.8,45.3,9.8,89.4s-1.2,71.9-9.8,89
		c-8.9,17.1-25.4,23.3-56,23.3H344.2z M377.2,656.5c11.3,0,17.7-1.2,21.1-12.2c1.5-5.2,2.8-13.2,3.1-23.9s0.3-25.1,0.3-43.5
		s0-32.7-0.3-43.5c-0.3-10.4-1.5-18.4-3.1-23.9c-3.4-10.7-9.8-11.9-21.1-11.9V656.5z"/>
	<path class="st0" d="M544,643.4c-0.3,9.2-2.1,17.4-5.5,24.5c-2.8,6.1-7,11.9-13.2,16.5c-6.1,4.9-14.4,7.7-25.4,7.7
		c-11,0-19.6-2.8-25.7-7.7c-6.1-4.6-10.1-10.4-12.9-16.5c-3.4-7-5.2-15.3-5.5-24.5V510.9c0.3-8.9,2.1-17.1,5.5-24.2
		c2.8-6.1,6.7-12.2,12.9-16.8c6.1-4.6,14.7-7.6,25.7-7.6c11,0,19.3,3.1,25.4,7.6c6.1,4.6,10.4,10.7,13.2,16.8
		c3.4,7,5.2,15.3,5.5,24.2V643.4z M510.9,510.9c0-6.1-1.2-10.4-4.3-14.1c-1.5-1.5-4-2.4-6.7-2.4c-5.8,0-8.6,4.3-9.8,8.3
		c-0.9,2.4-1.2,5.2-1.2,8.3v132.5c0,6.4,1.5,10.7,4.6,14.1c1.5,1.5,3.7,2.4,6.4,2.4c5.8,0,8.6-3.7,9.8-8.3c0.9-2.1,1.2-4.9,1.2-8.3
		V510.9z"/>
	<path class="st0" d="M566.3,464.7h33V659h43.8v30.6h-76.8V464.7z"/>
	<path class="st0" d="M742.6,612.5v30.9c-0.3,9.2-2.1,17.4-5.5,24.5c-2.8,6.1-7,11.9-13.2,16.5c-6.1,4.9-14.4,7.7-25.4,7.7
		c-11,0-19.6-2.8-25.7-7.7c-6.1-4.6-10.1-10.4-12.9-16.5c-3.4-7-5.2-15.3-5.5-24.5V510.9c0.3-8.9,2.1-17.1,5.5-24.2
		c2.8-6.1,6.7-12.2,12.9-16.8c6.1-4.6,14.7-7.6,25.7-7.6c11,0,19.3,3.1,25.4,7.6c6.1,4.6,10.4,10.7,13.2,16.8
		c3.4,7,5.2,15.3,5.5,24.2v30.9h-30.9v-30.9c0-6.1-1.5-10.4-4.9-14.1c-1.5-1.5-4.3-2.4-7.6-2.4c-5.8,0-8.6,4.3-10.1,8.3
		c-0.9,2.4-1.2,5.2-1.5,8.3v132.5c0.3,6.4,2.1,10.7,5.2,14.1c1.5,1.5,3.7,2.4,6.4,2.4c7,0,9.8-3.7,11.3-8.3c0.9-2.1,1.2-4.9,1.2-8.3
		v-30.9H742.6z"/>
	<path class="st0" d="M753.3,689.6l34-224.9h40.4l34,224.9h-32.1l-6.1-45.9h-31.8l-6.1,45.9H753.3z M809.3,537.8l-0.9-5.8h-1.8
		l-0.9,5.8l-9.5,71h22.6L809.3,537.8z"/>
</g>
<g>
	<path class="st0" d="M577,741.2h11.9v4.2c2-1.9,3.8-3.3,6.1-4.4c1.1-0.6,2.2-0.8,3.3-0.8c3.3,0,5.5,1.9,7.1,4.2
		c1.4,2.5,2.1,5.7,2.1,8.4v41.2c0,2.7-0.7,5.9-2.1,8.3c-1.5,2.5-3.8,4.4-7.1,4.4c-2.2,0-4.6-1.3-6.4-2.6c-1.1-0.8-2-1.7-3.1-2.6V828
		H577V741.2z M588.9,791.6c0,1.9,1.8,3.9,3.5,3.9c1.8,0,3.2-1.7,3.2-3.9v-36.2c0-2.2-1.4-3.9-3.2-3.9c-1.8,0-3.5,1.7-3.5,3.9V791.6z
		"/>
	<path class="st0" d="M671.6,790.1c-0.4,6.3-2.2,10.6-6.4,14c-2.1,1.8-5.1,2.6-9,2.6c-7.7,0-11.4-4.2-13.3-8.5
		c-1.1-2.5-1.8-5.3-1.9-8.5v-32.4c0.4-6.3,2.2-10.9,6.4-14.4c2-1.8,5-2.6,8.8-2.6c7.7,0,11.6,4.2,13.5,8.4c1.1,2.5,1.8,5.2,1.9,8.3
		V790.1z M660.4,757.3c0.1-2.5-0.4-4.2-1.5-5.7c-0.6-0.6-1.5-0.9-2.6-0.9c-2.2,0-3.2,1.5-3.7,3.3c-0.4,0.9-0.5,2-0.4,3.3v32.4
		c-0.1,2.5,0.5,4.2,1.5,5.5c0.6,0.6,1.4,0.9,2.5,0.9c2.2,0,3.3-1.4,3.8-3.2c0.4-0.9,0.5-2,0.4-3.3V757.3z"/>
	<path class="st0" d="M735.1,790.1c-0.4,6.3-2.2,10.6-6.4,14c-2.1,1.8-5.1,2.6-9,2.6c-7.7,0-11.4-4.2-13.3-8.5
		c-1.1-2.5-1.8-5.3-1.9-8.5v-32.4c0.4-6.3,2.2-10.9,6.4-14.4c2-1.8,5-2.6,8.8-2.6c7.7,0,11.6,4.2,13.5,8.4c1.1,2.5,1.8,5.2,1.9,8.3
		V790.1z M723.9,757.3c0.1-2.5-0.4-4.2-1.5-5.7c-0.6-0.6-1.5-0.9-2.6-0.9c-2.2,0-3.2,1.5-3.7,3.3c-0.4,0.9-0.5,2-0.4,3.3v32.4
		c-0.1,2.5,0.5,4.2,1.5,5.5c0.6,0.6,1.4,0.9,2.5,0.9c2.2,0,3.3-1.4,3.8-3.2c0.4-0.9,0.5-2,0.4-3.3V757.3z"/>
	<path class="st0" d="M768.9,805.8v-86.7h11.9v86.7H768.9z"/>
	<path class="st0" d="M814.2,792.7h12.4v13.1h-12.4V792.7z"/>
	<path class="st0" d="M889.8,782.7v7.4c-0.4,6.3-2.2,10.6-6.5,14c-2.1,1.8-5.1,2.6-9,2.6c-7.7,0-11.6-4.2-13.5-8.5
		c-1.1-2.5-1.8-5.3-1.9-8.5v-32.4c0.4-6.3,2.4-10.9,6.6-14.4c2-1.8,5-2.6,8.8-2.6c7.7,0,11.6,4.2,13.5,8.4c1.1,2.5,1.8,5.2,1.9,8.3
		v18.8h-19.7v14c0.1,2.5,0.8,4.2,1.9,5.5c0.6,0.6,1.4,0.9,2.5,0.9c2.2,0,3.3-1.4,3.8-3.2c0.4-0.9,0.5-2,0.5-3.3v-7.1H889.8z
		 M870.1,766.4h8.6v-9.1c0-2.5-0.5-4.2-1.7-5.7c-0.6-0.6-1.5-0.9-2.6-0.9c-2.2,0-3.2,1.5-3.8,3.3c-0.4,0.9-0.5,2-0.6,3.3V766.4z"/>
	<path class="st0" d="M942,741.2h11.9v64.5H942v-5.4c-0.2,0.1-0.7,0.6-1.3,1.2c-1.4,1.4-3.1,3.1-5.2,4.2c-1.1,0.6-2.1,0.9-3.2,0.9
		c-3.2,0-5.4-1.9-6.8-4.4c-1.4-2.4-2.1-5.5-2.1-8.3v-52.9h11.9v51.1c0,2.5,1.4,2.8,2.8,2.8c1.3,0,2-0.7,2.8-1.5
		c0.4-0.4,0.7-0.9,1.1-1.5V741.2z"/>
</g>
</svg>
