<?xml version="1.0" encoding="utf-8"?>
<!-- Generator: Adobe Illustrator 22.0.1, SVG Export Plug-In . SVG Version: 6.00 Build 0)  -->
<svg version="1.1" id="Layer_1" xmlns="http://www.w3.org/2000/svg" xmlns:xlink="http://www.w3.org/1999/xlink" x="0px" y="0px"
	 viewBox="0 0 558 270" style="enable-background:new 0 0 558 270;" xml:space="preserve">
<style type="text/css">
	.st0{fill:#ffffff;}
	.st1{fill:url(#SVGID_1_);}
</style>
<g>
	<g>
		<path class="st0" d="M39.1,204.9c0,1.9-0.3,3.8-0.8,5.7c-0.5,1.9-1.5,3.6-2.9,5.1c-1.4,1.5-3.4,2.8-5.9,3.7
			c-2.5,0.9-5.8,1.4-9.8,1.4c-2.7,0-5.1-0.1-7.2-0.2c-2.1-0.2-3.7-0.4-5-0.6c-0.8-0.1-1.3-0.3-1.7-0.5c-0.4-0.2-0.5-0.6-0.5-1.2V218
			c0-0.7,0.2-1.1,0.6-1.2c0.4-0.2,0.8-0.2,1.3-0.2c0.7,0.1,1.5,0.2,2.4,0.3c0.9,0.1,2,0.2,3.1,0.3c1.1,0.1,2.3,0.2,3.5,0.2
			c1.2,0.1,2.4,0.1,3.6,0.1c3.2,0,5.8-0.3,7.8-1c2-0.6,3.6-1.5,4.7-2.7c1.1-1.1,1.9-2.5,2.4-4c0.4-1.5,0.7-3.1,0.7-4.8
			c0-1.6-0.2-2.9-0.7-4c-0.5-1.1-1.2-2.2-2.3-3.2c-1-1-2.4-2.1-4-3.1c-1.6-1.1-3.6-2.3-5.9-3.8l-5.3-3.3c-1.9-1.2-3.6-2.3-5.3-3.4
			c-1.6-1.1-3-2.3-4.2-3.6c-1.2-1.3-2.1-2.7-2.7-4.3c-0.6-1.6-1-3.3-1-5.3c0-2.6,0.6-4.7,1.7-6.4c1.1-1.7,2.6-3,4.4-4
			c1.8-1,3.9-1.7,6.3-2c2.3-0.4,4.7-0.6,7.2-0.6c0.9,0,1.9,0,3,0.1c1.1,0.1,2.2,0.1,3.3,0.2c1.1,0.1,2.1,0.1,3,0.2
			c0.9,0.1,1.7,0.2,2.3,0.2c0.8,0.1,1.4,0.3,1.8,0.5c0.3,0.2,0.5,0.6,0.5,1.1v0.4c0,0.6-0.2,1-0.7,1.2c-0.4,0.2-1.1,0.2-1.9,0.1
			c-0.2,0-0.7,0-1.6-0.1c-0.9-0.1-1.9-0.2-3.1-0.3c-1.1-0.1-2.3-0.2-3.6-0.2c-1.2-0.1-2.3-0.1-3.2-0.1c-5.6,0-9.6,0.8-12.1,2.4
			c-2.5,1.6-3.7,3.9-3.7,7.1c0,1.5,0.2,2.8,0.7,4c0.5,1.1,1.2,2.2,2.1,3.3c0.9,1,2.1,2,3.6,3.1c1.4,1,3.1,2.1,4.9,3.2l5.4,3.3
			c2.5,1.5,4.6,2.9,6.4,4.1c1.8,1.3,3.4,2.5,4.6,3.9c1.2,1.3,2.1,2.8,2.8,4.3C38.8,201.3,39.1,203,39.1,204.9z"/>
		<path class="st0" d="M68.1,220.1c-0.2,0.2-0.6,0.4-1.2,0.5c-0.6,0.1-1.3,0.2-2.1,0.2c-0.8,0-1.5,0-2.3,0c-1.5,0-2.8-0.1-4-0.4
			c-1.2-0.3-2.2-0.8-3-1.4c-0.8-0.7-1.4-1.6-1.8-2.8c-0.4-1.2-0.6-2.6-0.6-4.4V179h-8.3c-1.1,0-1.6-0.4-1.6-1.3v-0.8
			c0-0.8,0.5-1.3,1.6-1.3h8.3v-8.6c0-0.4,0.1-0.8,0.4-1.1c0.3-0.3,0.6-0.5,1-0.5h0.9c0.4,0,0.8,0.2,1,0.5c0.2,0.3,0.3,0.7,0.3,1.1
			v8.6h9.9c1.1,0,1.6,0.4,1.6,1.3v0.8c0,0.9-0.5,1.3-1.6,1.3h-9.9v32.9c0,2.5,0.5,4.1,1.5,4.8c1,0.7,2.4,1,4.3,1h4
			c1.2,0,1.8,0.4,1.8,1.2v0.5C68.4,219.6,68.3,219.9,68.1,220.1z"/>
		<path class="st0" d="M106.5,218.7c0,0.4-0.2,0.8-0.5,1.2c-0.3,0.3-0.7,0.5-1.1,0.5h-0.4c-0.4,0-0.8-0.2-1.1-0.5s-0.5-0.7-0.5-1.2
			v-2.1c-2.1,1.1-4.3,2.1-6.7,3c-2.4,0.9-4.9,1.3-7.5,1.3c-1.6,0-3.1-0.2-4.6-0.6c-1.5-0.4-2.9-1.1-4.1-2.2c-1.2-1-2.2-2.4-2.9-4.1
			c-0.8-1.7-1.1-3.9-1.1-6.5v-1.1c0-2.2,0.4-4,1.1-5.6c0.7-1.6,1.9-2.9,3.5-4c1.6-1.1,3.7-1.9,6.4-2.4c2.6-0.5,5.9-0.8,9.6-0.8h6.4
			v-3c0-2.2-0.2-4-0.5-5.6c-0.3-1.5-0.9-2.8-1.7-3.8c-0.8-1-1.9-1.7-3.3-2.1c-1.4-0.4-3-0.7-5-0.7c-1.4,0-2.6,0-3.6,0
			c-1,0-2,0.1-2.9,0.2c-0.9,0.1-1.8,0.2-2.6,0.3c-0.8,0.1-1.8,0.2-2.8,0.3c-0.4,0.1-0.9,0-1.3-0.1c-0.4-0.1-0.6-0.5-0.6-1.1v-0.5
			c0-0.6,0.2-0.9,0.5-1.1c0.3-0.2,0.8-0.3,1.4-0.4c0.9-0.1,1.7-0.2,2.5-0.3c0.8-0.1,1.7-0.2,2.6-0.3c0.9-0.1,1.9-0.1,3-0.2
			c1.1,0,2.3,0,3.7,0c2.8,0,5.2,0.4,7,1.1c1.8,0.8,3.2,1.8,4.3,3.2c1.1,1.4,1.8,3,2.2,4.9c0.4,1.9,0.6,4,0.6,6.2V218.7z
			 M102.9,196.7h-6.4c-3.2,0-5.8,0.2-8,0.5c-2.1,0.3-3.9,0.9-5.2,1.6c-1.3,0.8-2.3,1.7-2.9,3c-0.6,1.2-0.9,2.7-0.9,4.5v1.1
			c0,1.9,0.2,3.6,0.7,4.9c0.5,1.3,1.1,2.4,2,3.1c0.8,0.8,1.8,1.3,2.9,1.7c1.1,0.3,2.3,0.5,3.5,0.5c2.3,0,4.6-0.3,6.8-1
			c2.2-0.7,4.7-1.8,7.5-3.3V196.7z"/>
		<path class="st0" d="M146.1,220c-0.2,0.6-0.7,0.9-1.5,0.9c-0.5,0-0.9-0.1-1.3-0.2c-0.4-0.1-0.8-0.4-1.2-0.8L122,198.2v21
			c0,0.4-0.2,0.8-0.5,1.1c-0.3,0.3-0.7,0.5-1.1,0.5h-0.5c-0.4,0-0.8-0.2-1.1-0.5c-0.3-0.3-0.5-0.7-0.5-1.1v-59.3
			c0-0.4,0.2-0.8,0.5-1.1c0.3-0.3,0.7-0.5,1.1-0.5h0.5c0.4,0,0.8,0.2,1.1,0.5c0.3,0.3,0.5,0.7,0.5,1.1v35.1l20.5-19.2
			c0.6-0.5,1.2-0.8,2-0.8c0.8,0,1.3,0.3,1.6,1c0.3,0.7,0.1,1.3-0.5,1.8l-20.5,18.7l20.5,21.7C146.2,218.8,146.3,219.4,146.1,220z"/>
		<path class="st0" d="M159.8,165.7c0,0.4-0.2,0.8-0.5,1.1c-0.3,0.3-0.7,0.5-1.1,0.5h-0.5c-0.4,0-0.8-0.2-1.1-0.5
			c-0.3-0.3-0.5-0.7-0.5-1.1v-6.2c0-0.4,0.2-0.8,0.5-1.1c0.3-0.3,0.7-0.5,1.1-0.5h0.5c0.4,0,0.8,0.2,1.1,0.5
			c0.3,0.3,0.5,0.7,0.5,1.1V165.7z M159.8,219.3c0,0.4-0.2,0.8-0.5,1.1c-0.3,0.3-0.7,0.5-1.1,0.5h-0.5c-0.4,0-0.8-0.2-1.1-0.5
			c-0.3-0.3-0.5-0.7-0.5-1.1v-42.2c0-0.4,0.2-0.8,0.5-1.1c0.3-0.3,0.7-0.5,1.1-0.5h0.5c0.4,0,0.8,0.2,1.1,0.5
			c0.3,0.3,0.5,0.7,0.5,1.1V219.3z"/>
		<path class="st0" d="M203.7,219.9c-0.3,0.3-0.7,0.5-1.1,0.5H202c-0.4,0-0.8-0.2-1.1-0.5c-0.3-0.3-0.4-0.7-0.4-1.1v-27.7
			c0-2.4-0.3-4.4-0.9-6c-0.6-1.6-1.4-2.9-2.4-3.9c-1-1-2.2-1.7-3.6-2.1c-1.4-0.4-2.8-0.6-4.4-0.6c-2.1,0-4.3,0.3-6.6,1
			c-2.3,0.6-4.5,1.5-6.6,2.5v37c0,0.4-0.2,0.8-0.5,1.1c-0.3,0.3-0.7,0.5-1.1,0.5H174c-0.4,0-0.8-0.2-1.1-0.5
			c-0.3-0.3-0.5-0.7-0.5-1.1v-41.6c0-0.4,0.1-0.8,0.4-1.2c0.3-0.3,0.6-0.5,1.1-0.5h0.7c0.4,0,0.8,0.2,1.1,0.5
			c0.3,0.3,0.4,0.7,0.4,1.2v1.3c2.2-1.1,4.4-1.9,6.7-2.5c2.3-0.6,4.5-0.9,6.7-0.9c2,0,3.9,0.3,5.7,0.9c1.8,0.6,3.3,1.5,4.7,2.8
			c1.3,1.3,2.4,2.9,3.2,4.9c0.8,2,1.2,4.5,1.2,7.4v27.7C204.2,219.2,204,219.6,203.7,219.9z"/>
		<path class="st0" d="M250.8,177.8c0,0.4-0.2,0.8-0.5,1c-0.3,0.2-0.7,0.3-1.1,0.3h-4.3c0.4,0.3,0.9,0.8,1.4,1.3
			c0.6,0.6,1.1,1.3,1.5,2.1c0.4,0.8,0.8,1.8,1.2,3c0.3,1.1,0.5,2.5,0.5,4v0.7c0,1.9-0.3,3.7-0.9,5.3s-1.5,3.1-2.9,4.3
			c-1.3,1.2-3.1,2.2-5.3,2.9c-2.2,0.7-4.9,1-8.2,1c-2.2,0-4-0.2-5.6-0.5c-1.5-0.3-3.1-0.8-4.6-1.4c-0.9,0.4-1.6,0.9-2.1,1.5
			c-0.5,0.6-0.8,1.3-0.8,2.1c0,0.6,0.2,1.1,0.5,1.5c0.3,0.4,1,0.8,1.9,1.1l15,3.9c2.2,0.6,4.1,1.1,5.7,1.7c1.6,0.6,3,1.3,4.2,2.1
			c1.1,0.8,2,1.9,2.6,3.1c0.6,1.2,0.9,2.7,0.9,4.5v0.6c0,1.9-0.3,3.6-0.9,5.2c-0.6,1.6-1.6,2.9-3,4.1c-1.4,1.1-3.2,2-5.5,2.7
			c-2.3,0.6-5,1-8.3,1c-3.2,0-6-0.3-8.2-1c-2.2-0.6-4-1.5-5.5-2.7c-1.4-1.1-2.4-2.5-3.1-4.1c-0.6-1.6-1-3.3-1-5.2v-0.8
			c0-1.4,0.2-2.8,0.6-4.1c0.4-1.3,0.9-2.4,1.5-3.5c0.6-1,1.3-1.9,2-2.7c0.8-0.8,1.5-1.3,2.1-1.8l-0.6-0.2c-1.6-0.4-2.7-1.2-3.4-2.2
			c-0.7-1-1-2.1-1-3.4c0-1,0.3-2,0.8-3c0.6-1,1.4-1.8,2.7-2.3c-1.4-1.1-2.5-2.5-3.2-4.1c-0.8-1.6-1.1-3.6-1.1-5.8v-0.7
			c0-1.6,0.2-3.2,0.7-4.9c0.4-1.6,1.3-3.1,2.5-4.5c1.3-1.3,3-2.4,5.3-3.3c2.3-0.9,5.2-1.3,8.7-1.3h17c0.4,0,0.8,0.1,1.1,0.3
			c0.3,0.2,0.5,0.6,0.5,1V177.8z M246.3,223.4c0-1.2-0.2-2.2-0.5-3c-0.3-0.8-0.9-1.5-1.7-2.1c-0.8-0.6-1.9-1.2-3.3-1.6
			c-1.4-0.5-3.1-1-5.1-1.5l-11.5-3c-1.8,1.2-3.3,2.7-4.4,4.3c-1.1,1.7-1.7,3.9-1.7,6.8v0.8c0,1.5,0.2,2.9,0.7,4.1
			c0.5,1.2,1.3,2.3,2.3,3.1c1.1,0.8,2.5,1.5,4.3,2c1.8,0.5,4,0.7,6.7,0.7c2.8,0,5.1-0.2,6.9-0.7c1.8-0.4,3.2-1.1,4.3-1.9
			c1.1-0.8,1.8-1.9,2.2-3.1c0.4-1.2,0.6-2.6,0.6-4.2V223.4z M245.9,189.5c0-1.5-0.2-2.9-0.6-4.2c-0.4-1.3-1.1-2.4-2.2-3.4
			c-1-1-2.4-1.7-4.2-2.3c-1.8-0.6-4-0.8-6.7-0.8c-2.9,0-5.2,0.3-7,0.9c-1.8,0.6-3.1,1.4-4.1,2.5c-1,1-1.6,2.2-2,3.5
			c-0.3,1.3-0.5,2.6-0.5,3.9v0.7c0,1.1,0.2,2.2,0.5,3.4c0.3,1.2,1,2.4,2,3.4c1,1,2.4,1.9,4.1,2.6c1.8,0.7,4.1,1,6.9,1
			c2.7,0,5-0.3,6.8-0.8c1.8-0.6,3.2-1.3,4.2-2.3c1-0.9,1.7-2,2.1-3.3c0.4-1.3,0.6-2.6,0.6-4V189.5z"/>
		<path class="st0" d="M312.2,204.9c0,1.9-0.3,3.8-0.8,5.7c-0.5,1.9-1.5,3.6-2.9,5.1c-1.4,1.5-3.4,2.8-5.9,3.7
			c-2.5,0.9-5.8,1.4-9.8,1.4c-2.7,0-5.1-0.1-7.2-0.2c-2.1-0.2-3.7-0.4-5-0.6c-0.8-0.1-1.3-0.3-1.7-0.5c-0.4-0.2-0.5-0.6-0.5-1.2V218
			c0-0.7,0.2-1.1,0.6-1.2c0.4-0.2,0.8-0.2,1.3-0.2c0.7,0.1,1.5,0.2,2.4,0.3c0.9,0.1,2,0.2,3.1,0.3c1.1,0.1,2.3,0.2,3.5,0.2
			c1.2,0.1,2.4,0.1,3.6,0.1c3.2,0,5.8-0.3,7.8-1c2-0.6,3.6-1.5,4.7-2.7c1.1-1.1,1.9-2.5,2.4-4c0.4-1.5,0.7-3.1,0.7-4.8
			c0-1.6-0.2-2.9-0.7-4c-0.5-1.1-1.2-2.2-2.3-3.2c-1-1-2.4-2.1-4-3.1c-1.6-1.1-3.6-2.3-5.9-3.8l-5.3-3.3c-1.9-1.2-3.6-2.3-5.3-3.4
			c-1.6-1.1-3-2.3-4.2-3.6c-1.2-1.3-2.1-2.7-2.7-4.3c-0.6-1.6-1-3.3-1-5.3c0-2.6,0.6-4.7,1.7-6.4c1.1-1.7,2.6-3,4.4-4
			c1.8-1,3.9-1.7,6.3-2c2.3-0.4,4.7-0.6,7.2-0.6c0.9,0,1.9,0,3,0.1c1.1,0.1,2.2,0.1,3.3,0.2c1.1,0.1,2.1,0.1,3,0.2
			c0.9,0.1,1.7,0.2,2.3,0.2c0.8,0.1,1.4,0.3,1.8,0.5c0.3,0.2,0.5,0.6,0.5,1.1v0.4c0,0.6-0.2,1-0.7,1.2c-0.4,0.2-1.1,0.2-1.9,0.1
			c-0.2,0-0.7,0-1.6-0.1c-0.9-0.1-1.9-0.2-3.1-0.3c-1.1-0.1-2.3-0.2-3.6-0.2c-1.2-0.1-2.3-0.1-3.2-0.1c-5.6,0-9.6,0.8-12.1,2.4
			s-3.7,3.9-3.7,7.1c0,1.5,0.2,2.8,0.7,4c0.5,1.1,1.2,2.2,2.1,3.3c0.9,1,2.1,2,3.6,3.1c1.4,1,3.1,2.1,4.9,3.2l5.4,3.3
			c2.5,1.5,4.6,2.9,6.4,4.1c1.8,1.3,3.4,2.5,4.6,3.9c1.2,1.3,2.1,2.8,2.8,4.3C311.9,201.3,312.2,203,312.2,204.9z"/>
		<path class="st0" d="M354.8,197.2c0,0.4-0.2,0.8-0.5,1.1c-0.3,0.3-0.7,0.5-1.1,0.5H325v1.8c0,3.5,0.4,6.4,1.2,8.6
			c0.8,2.2,1.9,4,3.3,5.2c1.4,1.3,3,2.1,4.8,2.5c1.8,0.4,3.8,0.7,5.9,0.7c1.8,0,3.8-0.1,6-0.4s4.3-0.6,6.3-1c0.4-0.1,0.8-0.1,1.2,0
			c0.4,0.1,0.5,0.5,0.5,1v0.6c0,0.4-0.1,0.8-0.3,1c-0.2,0.3-0.6,0.4-1.3,0.5c-2,0.4-4.1,0.8-6.3,1c-2.2,0.3-4.3,0.4-6.2,0.4
			c-2.6,0-5.1-0.3-7.3-1c-2.3-0.6-4.2-1.7-6-3.3c-1.7-1.5-3.1-3.6-4-6.2c-1-2.6-1.5-5.9-1.5-9.8v-5.5c0-2.9,0.4-5.6,1.1-8
			c0.7-2.4,1.8-4.5,3.2-6.3c1.4-1.8,3.2-3.2,5.3-4.2c2.1-1,4.5-1.5,7.3-1.5c2.9,0,5.4,0.5,7.5,1.4c2.1,0.9,3.8,2.3,5.2,4
			c1.4,1.8,2.4,3.9,3,6.3c0.6,2.4,1,5.1,1,8.1V197.2z M351.2,194.9c0-5.3-1-9.3-2.9-12.2c-1.9-2.9-5.3-4.3-10-4.3
			c-2.3,0-4.3,0.4-6,1.2c-1.6,0.8-3,1.9-4.1,3.4c-1.1,1.5-1.9,3.2-2.4,5.2c-0.5,2-0.8,4.3-0.8,6.8v0.4h26.1V194.9z"/>
		<path class="st0" d="M382.2,178.1c-0.4,0.2-1,0.3-1.6,0.3c-1.6,0-3.3,0.3-5.1,0.8c-1.8,0.5-4,1.5-6.5,3.1v36.6
			c0,0.4-0.2,0.8-0.5,1.1c-0.3,0.3-0.7,0.5-1.1,0.5h-0.5c-0.4,0-0.8-0.2-1.1-0.5c-0.3-0.3-0.5-0.7-0.5-1.1v-41.6
			c0-0.4,0.1-0.8,0.4-1.2c0.3-0.3,0.6-0.5,1.1-0.5h0.7c0.4,0,0.8,0.2,1.1,0.5c0.3,0.3,0.4,0.7,0.4,1.2v1.8c2.1-1.4,4.1-2.4,5.8-3
			c1.8-0.6,3.7-0.9,5.8-0.9c0.7,0,1.2,0.1,1.6,0.2c0.4,0.2,0.6,0.5,0.6,1v0.7C382.8,177.6,382.6,178,382.2,178.1z"/>
		<path class="st0" d="M411,215.6c-0.6,2.2-1.4,3.7-2.4,4.3c-1,0.6-2.1,1-3.3,1c-1.2,0-2.3-0.3-3.3-1c-1.1-0.6-1.9-2.1-2.5-4.3
			l-10.9-38c-0.2-0.6-0.1-1.1,0.1-1.5c0.2-0.4,0.6-0.6,1.2-0.6h0.8c0.3,0,0.6,0.1,0.8,0.3c0.3,0.2,0.5,0.6,0.7,1.2l10.7,37.6
			c0.4,1.3,0.8,2.1,1.2,2.5c0.4,0.4,0.8,0.5,1.3,0.5c0.4,0,0.8-0.2,1.2-0.5c0.4-0.4,0.7-1.2,1.1-2.5l10.7-37.6
			c0.2-0.6,0.4-1,0.7-1.2c0.3-0.2,0.6-0.3,0.8-0.3h1c0.6,0,0.9,0.2,1.1,0.6c0.2,0.4,0.2,0.9,0,1.5L411,215.6z"/>
		<path class="st0" d="M435.6,165.7c0,0.4-0.2,0.8-0.5,1.1c-0.3,0.3-0.7,0.5-1.1,0.5h-0.5c-0.4,0-0.8-0.2-1.1-0.5
			c-0.3-0.3-0.5-0.7-0.5-1.1v-6.2c0-0.4,0.2-0.8,0.5-1.1c0.3-0.3,0.7-0.5,1.1-0.5h0.5c0.4,0,0.8,0.2,1.1,0.5
			c0.3,0.3,0.5,0.7,0.5,1.1V165.7z M435.6,219.3c0,0.4-0.2,0.8-0.5,1.1c-0.3,0.3-0.7,0.5-1.1,0.5h-0.5c-0.4,0-0.8-0.2-1.1-0.5
			c-0.3-0.3-0.5-0.7-0.5-1.1v-42.2c0-0.4,0.2-0.8,0.5-1.1c0.3-0.3,0.7-0.5,1.1-0.5h0.5c0.4,0,0.8,0.2,1.1,0.5
			c0.3,0.3,0.5,0.7,0.5,1.1V219.3z"/>
		<path class="st0" d="M474.8,219.6c-0.2,0.2-0.6,0.4-1.3,0.5c-1.8,0.2-3.6,0.4-5.4,0.5c-1.8,0.1-3.4,0.2-4.7,0.2
			c-3,0-5.6-0.5-7.6-1.6c-2.1-1.1-3.8-2.5-5.1-4.4c-1.3-1.8-2.3-4-2.9-6.4c-0.6-2.4-0.9-5-0.9-7.8v-5.6c0-2.8,0.3-5.4,0.9-7.8
			c0.6-2.4,1.6-4.5,2.9-6.3c1.3-1.8,3-3.2,5.1-4.3c2.1-1,4.6-1.5,7.6-1.5c1.3,0,2.9,0.1,4.7,0.2c1.8,0.1,3.6,0.3,5.4,0.5
			c0.6,0.1,1,0.3,1.3,0.5c0.2,0.2,0.3,0.6,0.3,1v0.6c0,0.4-0.2,0.8-0.5,1c-0.3,0.2-0.8,0.3-1.3,0.2c-4-0.5-7.3-0.8-9.9-0.8
			c-2.4,0-4.4,0.4-6.1,1.2c-1.6,0.8-3,1.9-4,3.4c-1,1.5-1.7,3.2-2.2,5.3c-0.4,2.1-0.7,4.3-0.7,6.8v5.6c0,2.5,0.2,4.8,0.7,6.9
			c0.4,2.1,1.2,3.9,2.2,5.4c1,1.5,2.3,2.7,4,3.5c1.6,0.8,3.7,1.2,6.1,1.2c2.7,0,6-0.3,9.9-0.8c0.5-0.1,0.9-0.1,1.3,0.2
			c0.3,0.2,0.5,0.6,0.5,1v0.6C475.1,219.1,475,219.4,474.8,219.6z"/>
		<path class="st0" d="M516.9,197.2c0,0.4-0.2,0.8-0.5,1.1c-0.3,0.3-0.7,0.5-1.1,0.5h-28.2v1.8c0,3.5,0.4,6.4,1.2,8.6
			c0.8,2.2,1.9,4,3.3,5.2c1.4,1.3,3,2.1,4.8,2.5c1.8,0.4,3.8,0.7,5.9,0.7c1.8,0,3.8-0.1,6-0.4s4.3-0.6,6.3-1c0.4-0.1,0.8-0.1,1.2,0
			c0.4,0.1,0.5,0.5,0.5,1v0.6c0,0.4-0.1,0.8-0.3,1c-0.2,0.3-0.6,0.4-1.3,0.5c-2,0.4-4.1,0.8-6.3,1c-2.2,0.3-4.3,0.4-6.2,0.4
			c-2.6,0-5.1-0.3-7.3-1c-2.3-0.6-4.2-1.7-6-3.3c-1.7-1.5-3.1-3.6-4-6.2c-1-2.6-1.5-5.9-1.5-9.8v-5.5c0-2.9,0.4-5.6,1.1-8
			c0.7-2.4,1.8-4.5,3.2-6.3c1.4-1.8,3.2-3.2,5.3-4.2c2.1-1,4.5-1.5,7.3-1.5c2.9,0,5.4,0.5,7.5,1.4c2.1,0.9,3.8,2.3,5.2,4
			c1.4,1.8,2.4,3.9,3,6.3c0.6,2.4,1,5.1,1,8.1V197.2z M513.2,194.9c0-5.3-1-9.3-2.9-12.2c-1.9-2.9-5.3-4.3-10-4.3
			c-2.3,0-4.3,0.4-6,1.2c-1.6,0.8-3,1.9-4.1,3.4c-1.1,1.5-1.9,3.2-2.4,5.2c-0.5,2-0.8,4.3-0.8,6.8v0.4h26.1V194.9z"/>
		<path class="st0" d="M554,209.3c0,2.2-0.4,4.1-1.2,5.6c-0.8,1.5-1.8,2.7-3.1,3.6c-1.3,0.9-2.8,1.5-4.6,1.9
			c-1.8,0.4-3.6,0.5-5.6,0.5c-0.9,0-2,0-3-0.1c-1.1-0.1-2.2-0.1-3.3-0.3c-1.1-0.1-2.1-0.2-3.2-0.4c-1-0.1-1.9-0.3-2.6-0.5
			c-0.6-0.1-1.1-0.3-1.4-0.4c-0.3-0.2-0.5-0.5-0.5-0.9v-0.9c0-0.5,0.2-0.8,0.5-1c0.4-0.2,0.8-0.2,1.3-0.1c2,0.3,4.1,0.6,6.3,0.9
			c2.2,0.3,4.2,0.4,5.9,0.4c1.5,0,2.9-0.1,4.2-0.3c1.3-0.2,2.4-0.7,3.4-1.3c1-0.6,1.7-1.5,2.3-2.6c0.5-1.1,0.8-2.5,0.8-4.1
			c0-0.8-0.1-1.6-0.4-2.3c-0.3-0.7-0.8-1.4-1.4-2.1c-0.7-0.7-1.6-1.4-2.7-2.2c-1.1-0.8-2.6-1.6-4.3-2.5l-5.3-2.9
			c-1.6-0.8-3-1.7-4.2-2.5c-1.3-0.8-2.3-1.7-3.2-2.6c-0.9-0.9-1.5-1.9-2-3c-0.5-1.1-0.7-2.4-0.7-3.8c0-1.9,0.4-3.6,1.1-4.9
			c0.7-1.3,1.7-2.4,2.8-3.2c1.2-0.8,2.5-1.4,4-1.7c1.5-0.3,3.1-0.5,4.8-0.5c3,0,5.4,0.1,7.1,0.2c1.8,0.2,3.4,0.3,4.8,0.5
			c0.6,0.1,1.1,0.2,1.3,0.4c0.3,0.1,0.4,0.5,0.4,1v0.7c0,0.7-0.1,1.1-0.4,1.3c-0.3,0.2-0.7,0.2-1.3,0.1c-1.1-0.1-2.7-0.3-4.9-0.5
			c-2.1-0.3-4.4-0.4-6.7-0.4c-1.3,0-2.6,0.1-3.7,0.3c-1.1,0.2-2.1,0.5-3,1c-0.9,0.5-1.5,1.2-2,2.1c-0.5,0.9-0.7,2.1-0.7,3.6
			c0,1.8,0.7,3.4,2.1,4.6c1.4,1.3,3.4,2.6,6,4l5.6,3.1c1.7,0.9,3.3,1.9,4.6,2.7c1.3,0.9,2.4,1.8,3.3,2.7c0.9,0.9,1.6,1.9,2,3
			C553.8,206.6,554,207.9,554,209.3z"/>
	</g>
	<path class="st0" d="M40.5,132.2H21.2v-0.6c0-6.2,1.8-11.4,5.3-15.8c3.5-4.3,8.8-8.8,15.9-13.5l13.5-9c6.2-4.2,10.8-8.5,14-12.9
		c3.1-4.4,4.7-9.8,4.7-16.1c0-9.3-2.9-16.1-8.6-20.6C60.2,39.2,50.8,37,37.8,37c-2.4,0-5,0.1-7.7,0.3c-2.7,0.2-5.4,0.5-8.1,0.8
		c-2.6,0.4-5.2,0.7-7.7,1.2c-2.5,0.4-4.7,0.9-6.6,1.4c-0.8,0.2-1.5,0.5-2,1c-0.5,0.4-0.8,1.1-0.8,1.9v9c0,0.8,0.2,1.5,0.7,2.1
		c0.5,0.6,1.1,0.9,1.9,0.9h0.3c2.2-0.3,4.6-0.6,7.2-0.8c2.6-0.2,5.2-0.5,7.8-0.7c2.6-0.2,5.2-0.4,7.8-0.5c2.5-0.1,4.9-0.2,7.1-0.2
		c6.3,0,10.8,0.8,13.5,2.5c2.7,1.6,4,4.5,4,8.6c0,2.1-0.2,3.9-0.5,5.3c-0.4,1.4-1,2.8-2,4c-1,1.2-2.4,2.6-4.2,4
		c-1.8,1.4-4.1,3-7,4.9l-14.8,9.9c-3.1,2.1-6,4.5-8.7,7.3c-2.7,2.8-5.2,5.9-7.2,9.2c-2.1,3.3-3.7,6.9-4.9,10.8
		c-1.2,3.8-1.8,7.8-1.8,11.9v14.6c0,0.8,0.3,1.5,0.9,2.1c0.6,0.6,1.3,0.9,2.1,0.9h57.5c0-5.8,0-11.1,0-17H40.5z"/>
	<path class="st0" d="M131.2,98.9c-0.3,0.4-0.8,0.6-1.2,0.6h-8c-0.5,0-0.9-0.2-1.2-0.6c-0.3-0.4-0.5-0.8-0.5-1.3V69.2
		c0-1.9-0.1-3.5-0.2-4.7c-0.1-1.2-0.5-2.2-1-3c-0.5-0.7-1.2-1.2-2.2-1.6c-1-0.3-2.3-0.5-4-0.5c-1.5,0-3.1,0.3-4.7,0.8
		c-1.6,0.6-3.3,1.3-5.2,2.3v35c0,0.5-0.2,0.9-0.5,1.3c-0.3,0.4-0.8,0.6-1.2,0.6h-8c-0.5,0-0.9-0.2-1.2-0.6c-0.3-0.4-0.5-0.8-0.5-1.3
		V52c0-0.5,0.2-0.9,0.5-1.2c0.3-0.3,0.8-0.5,1.2-0.5h7.6c0.5,0,0.9,0.2,1.2,0.5c0.3,0.3,0.5,0.8,0.5,1.2v1.8c1.3-0.8,2.5-1.5,3.5-2
		c1.1-0.5,2.2-0.9,3.3-1.3c1.1-0.3,2.2-0.6,3.4-0.7c1.2-0.1,2.5-0.2,3.9-0.2c3.1,0,5.7,0.5,7.7,1.5c2,1,3.5,2.4,4.6,4.1
		c1.1,1.7,1.8,3.8,2.2,6.2c0.4,2.4,0.6,5,0.6,7.8v28.4C131.7,98.1,131.6,98.5,131.2,98.9z"/>
	<path class="st0" d="M182,95.5c0,0.6-0.1,1.1-0.4,1.4c-0.3,0.3-0.9,0.6-1.9,0.9c-2.7,0.7-5.6,1.3-8.7,1.7c-3.1,0.4-6,0.6-8.8,0.6
		c-7,0-12.3-1.9-15.7-5.8c-3.4-3.9-5.1-9.2-5.1-16.1v-6.7c0-6.9,1.7-12.2,5.1-16.1c3.4-3.9,8.7-5.8,15.7-5.8c1,0,2.3,0,3.7,0.1
		c1.5,0.1,3,0.2,4.6,0.5V34.9c0-0.5,0.2-0.9,0.5-1.2c0.3-0.3,0.8-0.5,1.2-0.5h8c0.5,0,0.9,0.2,1.2,0.5c0.3,0.3,0.5,0.8,0.5,1.2V95.5
		z M170.5,59.8c-1.2-0.2-2.7-0.3-4.3-0.4s-3-0.2-4.1-0.2c-1.9,0-3.4,0.3-4.6,1c-1.2,0.6-2.2,1.5-2.9,2.6c-0.7,1.1-1.2,2.4-1.4,3.9
		c-0.3,1.5-0.4,3.1-0.4,4.9v6.7c0,1.8,0.1,3.4,0.4,4.9c0.3,1.5,0.7,2.8,1.4,3.9c0.7,1.1,1.7,2,2.9,2.6c1.2,0.6,2.8,1,4.6,1
		c1.6,0,3.2-0.1,4.7-0.2c1.6-0.1,2.8-0.3,3.6-0.4V59.8z"/>
	<g>
		<g>
			<linearGradient id="SVGID_1_" gradientUnits="userSpaceOnUse" x1="20.9562" y1="140.6574" x2="554" y2="140.6574">
				<stop  offset="0" style="stop-color:#ffffff"/>
				<stop  offset="0.5" style="stop-color:#ffffff"/>
				<stop  offset="1" style="stop-color:#ffffff"/>
			</linearGradient>
			<path class="st1" d="M551,132.9c-2-0.5-4.3-0.7-6.9-0.7h-19.3H21v17.1h503.8c0,0,0,0,0,0h19.3c2.6,0,4.9-0.3,6.9-0.9
				c2-0.6,3-1.3,3-2.1v-11.4C554,134,553,133.4,551,132.9z"/>
		</g>
	</g>
	<g>
		<path class="st0" d="M251.8,105.6c-0.3,0.3-0.8,0.4-1.5,0.6c-0.7,0.2-1.7,0.4-2.9,0.5c-1.3,0.2-2.7,0.3-4.2,0.4
			c-1.5,0.1-3,0.2-4.6,0.3c-1.6,0.1-3,0.1-4.2,0.1c-3.1,0-5.9-0.3-8.5-0.7c-2.6-0.5-4.9-1.5-6.8-2.9c-1.9-1.4-3.5-3.4-4.6-5.8
			c-1.1-2.5-1.7-5.7-1.7-9.7V39.1c0-0.5,0.2-0.9,0.6-1.3c0.4-0.4,0.8-0.6,1.3-0.6h9.3c0.5,0,0.9,0.2,1.3,0.6
			c0.4,0.4,0.6,0.8,0.6,1.3v49.2c0,3.1,0.5,5.2,1.6,6.4c1.1,1.1,3,1.7,5.7,1.7h17.2c0.5,0,0.9,0.2,1.3,0.6c0.4,0.4,0.6,0.8,0.6,1.3
			v6C252.2,104.9,252.1,105.4,251.8,105.6z"/>
		<path class="st0" d="M299.3,104.9c0,0.5-0.2,0.9-0.6,1.3c-0.4,0.4-0.8,0.6-1.3,0.6h-8c-0.5,0-0.9-0.2-1.3-0.6
			c-0.4-0.4-0.6-0.8-0.6-1.3v-1.5c-2.2,1.3-4.4,2.3-6.6,3c-2.2,0.7-4.4,1.1-6.6,1.1c-1.9,0-3.9-0.2-5.8-0.7
			c-1.9-0.4-3.7-1.2-5.2-2.4c-1.5-1.2-2.8-2.8-3.7-4.8c-1-2-1.5-4.6-1.5-7.8v-0.4c0-2.7,0.4-5,1.3-7c0.8-2,2.2-3.7,4-5.1
			c1.8-1.4,4.2-2.4,7.1-3.1c2.9-0.7,6.4-1,10.4-1h5.9v-4.2c0-3.1-0.7-5.1-2-6.1c-1.3-1-3.4-1.5-6.2-1.5c-3,0-5.9,0.1-8.7,0.2
			c-2.8,0.2-5,0.3-6.6,0.5H263c-0.5,0-0.9-0.1-1.2-0.3c-0.3-0.2-0.5-0.6-0.5-1.3v-5.9c0-1,0.6-1.7,1.8-1.9c1.9-0.4,4.1-0.7,6.8-1
			c2.7-0.3,5.6-0.5,8.8-0.5c6.7,0,11.8,1.5,15.3,4.4c3.5,2.9,5.3,7.4,5.3,13.5V104.9z M286.9,83.5H281c-2.1,0-3.9,0.2-5.2,0.5
			c-1.3,0.3-2.4,0.8-3.2,1.5c-0.8,0.7-1.3,1.5-1.6,2.5c-0.3,1-0.4,2.2-0.4,3.5v0.4c0,2.3,0.5,3.9,1.6,4.6c1.1,0.8,2.8,1.2,5.2,1.2
			c1.7,0,3.4-0.2,5-0.7c1.7-0.5,3.2-1.1,4.6-1.9V83.5z"/>
		<path class="st0" d="M353.1,55.5c0,0.3,0,0.4-0.1,0.6l-15.6,54.7c-0.7,2.6-1.6,4.8-2.4,6.6c-0.9,1.8-2,3.4-3.4,4.6
			c-1.4,1.2-3.2,2.1-5.3,2.7c-2.1,0.6-4.8,0.8-8,0.8c-0.7,0-1.6,0-2.5-0.1c-0.9-0.1-1.9-0.2-2.8-0.3c-0.9-0.1-1.8-0.3-2.6-0.4
			c-0.8-0.1-1.5-0.3-2.1-0.5c-0.5-0.1-1-0.3-1.4-0.5c-0.4-0.2-0.6-0.6-0.6-1.1v-6c0-0.5,0.2-0.9,0.6-1.2c0.4-0.3,0.8-0.5,1.3-0.5
			h0.2c0.6,0,1.4,0,2.4,0.1c1,0.1,1.9,0.1,2.9,0.2c1,0.1,1.9,0.1,2.9,0.2c0.9,0.1,1.7,0.1,2.4,0.1c2,0,3.6-0.4,4.7-1.2
			c1.1-0.8,2-2.4,2.7-4.8l0.7-2.8h-1.4c-0.7,0-1.4-0.1-2.2-0.2c-0.7-0.2-1.5-0.5-2.2-1c-0.7-0.5-1.4-1.3-2.1-2.3
			c-0.7-1-1.2-2.4-1.7-4.3l-12.3-42.9c-0.1-0.2-0.1-0.4-0.1-0.7c0-1,0.6-1.5,1.8-1.5h9.5c0.4,0,0.8,0.2,1.1,0.5
			c0.3,0.3,0.5,0.7,0.7,1.2l9.5,38.1c0.2,0.8,0.4,1.4,0.6,1.6c0.2,0.3,0.4,0.4,0.7,0.4h0.1h0.5h0.3L340,55.5
			c0.1-0.4,0.3-0.8,0.7-1.1c0.3-0.3,0.7-0.5,1.2-0.5h9.5c0.5,0,0.9,0.2,1.2,0.5C353,54.7,353.1,55.1,353.1,55.5z"/>
		<path class="st0" d="M402.7,82.3c0,1.6-0.6,2.3-1.9,2.3h-30.5v0.3c0,1.4,0.2,2.8,0.5,4.2c0.3,1.4,0.9,2.7,1.7,3.8
			c0.8,1.2,2,2.1,3.5,2.8c1.5,0.7,3.3,1.1,5.6,1.1c3.4,0,6.7-0.1,9.7-0.3c3-0.2,5.5-0.4,7.5-0.6h0.3c0.5,0,0.9,0.1,1.2,0.3
			c0.3,0.2,0.5,0.6,0.5,1.1v6.2c0,0.7-0.1,1.3-0.3,1.7c-0.2,0.4-0.8,0.6-1.6,0.7c-1.5,0.3-2.9,0.6-4.2,0.7c-1.3,0.2-2.6,0.3-4,0.5
			c-1.3,0.1-2.8,0.2-4.4,0.3c-1.6,0.1-3.4,0.1-5.6,0.1c-2.4,0-4.9-0.4-7.5-1.1c-2.6-0.7-5.1-2-7.3-3.7c-2.2-1.8-4.1-4.2-5.5-7.2
			c-1.5-3-2.2-6.8-2.2-11.5v-6.9c0-3.6,0.5-6.9,1.5-9.8c1-2.9,2.4-5.4,4.3-7.5c1.9-2.1,4.2-3.7,7.1-4.8c2.8-1.1,6-1.7,9.5-1.7
			c3.6,0,6.8,0.6,9.6,1.7c2.8,1.2,5.1,2.8,7,4.9c1.9,2.1,3.3,4.6,4.2,7.5c1,2.9,1.4,6.1,1.4,9.6V82.3z M390.4,75.5
			c0-3.7-0.9-6.5-2.7-8.5c-1.8-2-4.2-3-7.1-3c-2.9,0-5.4,1-7.2,2.9c-1.9,2-2.8,4.8-2.8,8.6v0.4h19.9V75.5z"/>
		<path class="st0" d="M440,63.2c-0.4,0.4-0.8,0.6-1.3,0.6c-2.6,0-4.9,0.3-6.9,0.9c-2,0.6-4,1.4-6,2.5v37.6c0,0.5-0.2,1-0.6,1.4
			c-0.4,0.4-0.8,0.6-1.3,0.6h-8.6c-0.5,0-0.9-0.2-1.3-0.6c-0.4-0.4-0.6-0.9-0.6-1.4v-49c0-0.5,0.2-0.9,0.6-1.3
			c0.4-0.4,0.8-0.6,1.3-0.6h8.1c0.5,0,0.9,0.2,1.3,0.6c0.4,0.4,0.6,0.8,0.6,1.3v2c2.3-1.8,4.6-3,7-3.6c2.4-0.6,4.5-0.9,6.4-0.9
			c0.5,0,0.9,0.2,1.3,0.6c0.4,0.4,0.6,0.8,0.6,1.3v6.7C440.5,62.4,440.3,62.8,440,63.2z"/>
	</g>
	<g>
		<path class="st0" d="M486.3,76.2c-0.3,0-0.6,0.3-0.6,0.6s0.3,0.6,0.6,0.6c0.3,0,0.6-0.3,0.6-0.6S486.6,76.2,486.3,76.2z"/>
		<path class="st0" d="M517.9,76.1c-0.1,0-0.2-0.1-0.3-0.1c-0.2,0-0.4,0.1-0.7,0.3c-0.4,0.4-0.5,0.9-0.2,1.4
			c0.4,0.7,1.5,1.3,2.4,1.2c0,0,0-0.1,0-0.1C519.2,77.6,518.6,76.4,517.9,76.1z"/>
		<path class="st0" d="M494.7,64.1h-0.2c0.2,1.8,1.7,3.2,3.4,3.4v-0.2c0-0.3,0.2-0.6,0.6-0.6c0.3,0,0.6,0.2,0.6,0.6v0.2
			c1.8-0.2,3.2-1.7,3.4-3.4l-0.2,0c-0.3,0-0.6-0.2-0.6-0.6c0-0.3,0.2-0.6,0.6-0.6h0.2c-0.2-1.8-1.7-3.2-3.4-3.4v0.2
			c0,0.3-0.2,0.6-0.6,0.6s-0.6-0.2-0.6-0.6v-0.2c-1.8,0.2-3.2,1.7-3.4,3.4h0.2c0.3,0,0.6,0.2,0.6,0.6
			C495.2,63.8,495,64.1,494.7,64.1z M496.1,62.7c0.1-0.2,0.3-0.3,0.5-0.2l1.5,0.6c0,0,0.1,0,0.1,0c0.1-0.1,0.2-0.1,0.3-0.1
			c0.1,0,0.1,0,0.2,0c0,0,0,0,0.1,0l2.1-1.9c0.1-0.1,0.3-0.1,0.4,0c0.1,0.1,0.1,0.3,0,0.4l-2.1,1.9c0,0,0,0.1,0,0.1
			c0,0.3-0.3,0.6-0.6,0.6c-0.2,0-0.3-0.1-0.4-0.2c0,0,0,0-0.1,0l-1.7-0.7C496.1,63.1,496,62.9,496.1,62.7z"/>
		<path class="st0" d="M498.1,53.3c-14.8,0-26.7,12-26.7,26.7c0,14.8,12,26.7,26.7,26.7c14.8,0,26.7-12,26.7-26.7
			C524.8,65.3,512.8,53.3,498.1,53.3z M498.5,58.5c2.8,0,5,2.3,5,5c0,2.8-2.3,5-5,5c-2.8,0-5-2.3-5-5
			C493.4,60.7,495.7,58.5,498.5,58.5z M519.9,79.5c-0.2,1-0.8,1.8-1.8,2.2c-0.5,0.2-1,0.3-1.5,0.3c-0.5,0-0.9-0.1-1.3-0.3
			c-0.4-0.2-0.8-0.5-1-0.8c-0.2,1.3-0.8,2.6-1.5,3.7c0,0,0,0,0,0c-0.8,1.3-1.9,2.4-3.2,3.4c-0.6,0.4-0.8,1.2-0.7,1.9l0.7,2.8
			c0.2,0.7-0.3,1.3-1,1.3h-2.1c-0.5,0-0.9-0.3-1-0.8l-0.3-1c-0.2-0.9-1.2-1.5-2.1-1.3c-1.6,0.4-3.2,0.6-4.9,0.6
			c-1.7,0-3.4-0.2-4.9-0.6c-0.9-0.2-1.9,0.3-2.1,1.3l-0.3,1c-0.1,0.5-0.6,0.8-1,0.8h-2.1c-0.7,0-1.2-0.7-1-1.4l0.7-2.8
			c0.2-0.7-0.1-1.5-0.7-1.9c-0.8-0.6-1.5-1.3-2.1-2c-1.1-1.2-2.7-2-4.3-2v-4.9c0.8,0,1.6-0.6,1.7-1.4c0.2-1.6,0.9-3.1,1.8-4.5
			l-1.4-3.6c1,0,2,0.1,2.7,0.2c1.1,0.1,2.3-0.1,3.3-0.6c1.7-1,3.8-1.7,6-2.1c0.3,0.4,0.7,0.7,1.2,1c0.2,0.1,0.3,0.3,0.5,0.4
			c-0.8,0.1-1.5,0.1-2.3,0.3l0.1,0.6c2.6-0.4,6.5-0.5,8.9,0l0.1-0.6c-0.7-0.1-1.3-0.2-2-0.2c0.1-0.1,0.2-0.1,0.3-0.2
			c0.5-0.3,1-0.7,1.4-1.1c3.3,0.7,6.3,2.2,8.4,4.2c0,0,0.7,0.6,1.4,1.6c0.1,0.1,0.1,0.1,0.2,0.2c0,0,0,0.1,0.1,0.1
			c1,1.4,2,3.5,1.9,6.1c0,0,0-0.1,0-0.1c0,0.2,0,0.4,0,0.5c0.3,0.5,0.7,1,1.2,1.3c0.6,0.3,1.3,0.3,2.2,0c0.7-0.3,1.1-0.8,1.2-1.4
			c-1.2,0.1-2.5-0.7-3-1.6c-0.5-0.8-0.4-1.6,0.3-2.3c0.5-0.5,1.2-0.7,1.8-0.4c1,0.4,1.7,1.8,1.8,3.3c0.5-0.4,0.8-1.2,0.8-2.4
			c0-2.4-2.7-3.3-2.8-3.3c-0.2-0.1-0.3-0.3-0.2-0.5c0.1-0.2,0.3-0.3,0.5-0.2c0.1,0,3.3,1.1,3.3,4.1
			C521.5,78.4,520.6,79.2,519.9,79.5z"/>
	</g>
</g>
</svg>
