<?xml version="1.0" encoding="UTF-8" standalone="no"?>
<svg
   viewBox="0 0 1920 1920"
   version="1.1"
   id="svg14"
   sodipodi:docname="marlowe.svg"
   inkscape:version="1.1-dev (b39e6d56, 2020-09-19)"
   xmlns:inkscape="http://www.inkscape.org/namespaces/inkscape"
   xmlns:sodipodi="http://sodipodi.sourceforge.net/DTD/sodipodi-0.dtd"
   xmlns="http://www.w3.org/2000/svg"
   xmlns:svg="http://www.w3.org/2000/svg">
  <defs
     id="defs18" />
  <sodipodi:namedview
     pagecolor="#ffffff"
     bordercolor="#666666"
     borderopacity="1"
     objecttolerance="10"
     gridtolerance="10"
     guidetolerance="10"
     inkscape:pageopacity="0"
     inkscape:pageshadow="2"
     inkscape:window-width="1440"
     inkscape:window-height="775"
     id="namedview16"
     showgrid="false"
     inkscape:pagecheckerboard="true"
     inkscape:zoom="0.2859375"
     inkscape:cx="-180.10929"
     inkscape:cy="666.22951"
     inkscape:window-x="0"
     inkscape:window-y="23"
     inkscape:window-maximized="1"
     inkscape:current-layer="svg14" />
  <g
     fill="#0133AC"
     id="g12"
     style="fill:#ffffff">
    <path
       d="M14.12 1613.78V679.86s355.42-52.93 703.27 223.08l71.84-94.53 117.21 109.65s-238.21 298.7-238.21 695.71H505.65s26.47-381.89 124.77-555.81c0 0-177.71-192.83-457.51-211.74v767.55H14.12zM1254.3 1613.78s3.78-192.83-49.15-313.83l117.21-151.24s75.62 162.59 98.31 465.07c0 0-162.59-3.78-166.37 0z"
       id="path8"
       style="fill:#ffffff" />
    <path
       d="M882.2 1106.62l-80.19 185.71s77.03 122.4 80.19 320.77h71.75v-260.19s-18.99-3.61-18.99-22.6c0 0 1.06-23.21 23.21-23.21 0 0 25.32-3.17 25.32 20.05 0 0 3.17 21.1-17.94 26.38v259.57h72.81s17.5-670.21 701.25-765.18v767.29h163.99V678.22s-341.88-53.81-702.75 224.75l-117.12-164.61s275.4-243.75 661.59-265.9v113.96h158.28v-275.4s-468.5-75.97-946.49 313.39c0 0-414.68-376.7-936.99-310.22v272.23H168.9V466.13s591.95 31.66 911.67 557.13c0 0-96.37 150.19-120.29 193.8l-78.08-110.44z"
       id="path10"
       style="fill:#ffffff" />
  </g>
</svg>
