<svg version="1.1" id="Layer_1" xmlns="http://www.w3.org/2000/svg" x="0" y="0" viewBox="0 0 1280 1280" xml:space="preserve"><style>.st0{fill:#fff}</style><path class="st0" d="M5580 11357c0-5 8-6 18-3 9 3 77 12 151 22l133 16 246 249c135 137 249 248 253 247 7-3 1338-1322 3069-3042 371-369 816-810 988-981l312-310-15 55c-9 30-36 119-62 197l-45 142-332 328c-182 180-1136 1127-2119 2103-984 976-1792 1776-1795 1778" transform="matrix(.1 0 0 -.1 0 1280)"/><path class="st0" d="M6245 11254c-268-11-495-37-750-85-1628-306-2995-1436-3610-2985-48-121-155-436-155-457 0-7 65 53 144 132l144 144 52 131c224 563 563 1084 995 1525 760 777 1712 1241 2825 1378 189 23 829 24 1013 2l118-15-107 107-107 107-86 6c-124 8-383 14-476 10zm1614-328l144-144 131-52c861-341 1616-953 2139-1732 418-622 668-1307 764-2088 23-189 24-829 2-1013l-15-118 108 108 108 108 10 203c22 461-30 953-150 1418-386 1496-1474 2727-2915 3299-122 48-437 155-458 155-7 0 53-65 132-144z" transform="matrix(.1 0 0 -.1 0 1280)"/><path class="st0" d="M636 6379l400-400c219-219 403-399 407-399 5 0 6 8 3 18-3 9-12 77-21 150l-17 133-249 246c-137 136-248 250-247 254 2 4 822 832 1823 1841 2272 2289 2509 2528 2504 2527-2 0-69-20-149-44s-167-53-194-63c-43-17-187-158-1195-1175-630-635-1578-1590-2105-2122m9758-142c3-10 12-78 21-151l17-133 249-246c137-136 248-250 247-254-2-4-822-832-1823-1841-1001-1008-1975-1989-2164-2181l-344-347 54 15c30 9 117 36 195 61l141 46 285 286c156 158 893 901 1638 1652 744 751 1565 1578 1824 1838l471 472-400 400c-220 220-404 400-408 400-5 0-6-8-3-17z" transform="matrix(.1 0 0 -.1 0 1280)"/><path class="st0" d="M1667 6912l-107-108-10-202c-22-461 30-953 150-1418 386-1496 1474-2727 2915-3299 122-48 437-155 458-155 7 0-53 65-132 144l-144 144-131 52c-861 341-1616 953-2139 1732-417 622-668 1307-764 2088-23 189-24 829-2 1013 8 64 15 117 14 117 0 0-49-48-108-108z" transform="matrix(.1 0 0 -.1 0 1280)"/><path class="st0" d="M6820 1035c220 220 400 404 400 408 0 5-8 6-17 3-10-3-78-12-152-22l-133-16-246-249c-135-137-249-248-253-247-7 3-1338 1322-3069 3042-371 369-816 810-988 981l-312 310 15-55c9-30 36-118 61-196l46-141 286-285c158-156 897-889 1642-1628s1572-1560 1838-1824l482-481" transform="matrix(.1 0 0 -.1 0 1280)"/><path class="st0" d="M10923 4938l-142-143-52-130c-223-563-562-1083-994-1524-760-777-1712-1241-2825-1378-189-23-829-24-1013-2l-118 15 108-108 108-108 203-10c284-13 618 3 904 46 1719 254 3171 1404 3813 3020 54 135 157 443 153 456-2 4-67-56-145-134z" transform="matrix(.1 0 0 -.1 0 1280)"/><path class="st0" d="M344.2 689.6V464.7h26c30.6 0 47.1 6.1 56 23.3 8.6 17.1 9.8 45.3 9.8 89.4s-1.2 71.9-9.8 89c-8.9 17.1-25.4 23.3-56 23.3h-26zm33-33.1c11.3 0 17.7-1.2 21.1-12.2 1.5-5.2 2.8-13.2 3.1-23.9s.3-25.1.3-43.5 0-32.7-.3-43.5c-.3-10.4-1.5-18.4-3.1-23.9-3.4-10.7-9.8-11.9-21.1-11.9v158.9zM544 643.4c-.3 9.2-2.1 17.4-5.5 24.5-2.8 6.1-7 11.9-13.2 16.5-6.1 4.9-14.4 7.7-25.4 7.7-11 0-19.6-2.8-25.7-7.7-6.1-4.6-10.1-10.4-12.9-16.5-3.4-7-5.2-15.3-5.5-24.5V510.9c.3-8.9 2.1-17.1 5.5-24.2 2.8-6.1 6.7-12.2 12.9-16.8 6.1-4.6 14.7-7.6 25.7-7.6s19.3 3.1 25.4 7.6c6.1 4.6 10.4 10.7 13.2 16.8 3.4 7 5.2 15.3 5.5 24.2v132.5zm-33.1-132.5c0-6.1-1.2-10.4-4.3-14.1-1.5-1.5-4-2.4-6.7-2.4-5.8 0-8.6 4.3-9.8 8.3-.9 2.4-1.2 5.2-1.2 8.3v132.5c0 6.4 1.5 10.7 4.6 14.1 1.5 1.5 3.7 2.4 6.4 2.4 5.8 0 8.6-3.7 9.8-8.3.9-2.1 1.2-4.9 1.2-8.3V510.9zm55.4-46.2h33V659h43.8v30.6h-76.8V464.7zm176.3 147.8v30.9c-.3 9.2-2.1 17.4-5.5 24.5-2.8 6.1-7 11.9-13.2 16.5-6.1 4.9-14.4 7.7-25.4 7.7-11 0-19.6-2.8-25.7-7.7-6.1-4.6-10.1-10.4-12.9-16.5-3.4-7-5.2-15.3-5.5-24.5V510.9c.3-8.9 2.1-17.1 5.5-24.2 2.8-6.1 6.7-12.2 12.9-16.8 6.1-4.6 14.7-7.6 25.7-7.6s19.3 3.1 25.4 7.6c6.1 4.6 10.4 10.7 13.2 16.8 3.4 7 5.2 15.3 5.5 24.2v30.9h-30.9v-30.9c0-6.1-1.5-10.4-4.9-14.1-1.5-1.5-4.3-2.4-7.6-2.4-5.8 0-8.6 4.3-10.1 8.3-.9 2.4-1.2 5.2-1.5 8.3v132.5c.3 6.4 2.1 10.7 5.2 14.1 1.5 1.5 3.7 2.4 6.4 2.4 7 0 9.8-3.7 11.3-8.3.9-2.1 1.2-4.9 1.2-8.3v-30.9h30.9zm10.7 77.1l34-224.9h40.4l34 224.9h-32.1l-6.1-45.9h-31.8l-6.1 45.9h-32.3zm56-151.8l-.9-5.8h-1.8l-.9 5.8-9.5 71h22.6l-9.5-71zM577 741.2h11.9v4.2c2-1.9 3.8-3.3 6.1-4.4 1.1-.6 2.2-.8 3.3-.8 3.3 0 5.5 1.9 7.1 4.2 1.4 2.5 2.1 5.7 2.1 8.4V794c0 2.7-.7 5.9-2.1 8.3-1.5 2.5-3.8 4.4-7.1 4.4-2.2 0-4.6-1.3-6.4-2.6-1.1-.8-2-1.7-3.1-2.6V828H577v-86.8zm11.9 50.4c0 1.9 1.8 3.9 3.5 3.9 1.8 0 3.2-1.7 3.2-3.9v-36.2c0-2.2-1.4-3.9-3.2-3.9-1.8 0-3.5 1.7-3.5 3.9v36.2zm82.7-1.5c-.4 6.3-2.2 10.6-6.4 14-2.1 1.8-5.1 2.6-9 2.6-7.7 0-11.4-4.2-13.3-8.5-1.1-2.5-1.8-5.3-1.9-8.5v-32.4c.4-6.3 2.2-10.9 6.4-14.4 2-1.8 5-2.6 8.8-2.6 7.7 0 11.6 4.2 13.5 8.4 1.1 2.5 1.8 5.2 1.9 8.3v33.1zm-11.2-32.8c.1-2.5-.4-4.2-1.5-5.7-.6-.6-1.5-.9-2.6-.9-2.2 0-3.2 1.5-3.7 3.3-.4.9-.5 2-.4 3.3v32.4c-.1 2.5.5 4.2 1.5 5.5.6.6 1.4.9 2.5.9 2.2 0 3.3-1.4 3.8-3.2.4-.9.5-2 .4-3.3v-32.3zm74.7 32.8c-.4 6.3-2.2 10.6-6.4 14-2.1 1.8-5.1 2.6-9 2.6-7.7 0-11.4-4.2-13.3-8.5-1.1-2.5-1.8-5.3-1.9-8.5v-32.4c.4-6.3 2.2-10.9 6.4-14.4 2-1.8 5-2.6 8.8-2.6 7.7 0 11.6 4.2 13.5 8.4 1.1 2.5 1.8 5.2 1.9 8.3v33.1zm-11.2-32.8c.1-2.5-.4-4.2-1.5-5.7-.6-.6-1.5-.9-2.6-.9-2.2 0-3.2 1.5-3.7 3.3-.4.9-.5 2-.4 3.3v32.4c-.1 2.5.5 4.2 1.5 5.5.6.6 1.4.9 2.5.9 2.2 0 3.3-1.4 3.8-3.2.4-.9.5-2 .4-3.3v-32.3zm45 48.5v-86.7h11.9v86.7h-11.9zm45.3-13.1h12.4v13.1h-12.4v-13.1zm75.6-10v7.4c-.4 6.3-2.2 10.6-6.5 14-2.1 1.8-5.1 2.6-9 2.6-7.7 0-11.6-4.2-13.5-8.5-1.1-2.5-1.8-5.3-1.9-8.5v-32.4c.4-6.3 2.4-10.9 6.6-14.4 2-1.8 5-2.6 8.8-2.6 7.7 0 11.6 4.2 13.5 8.4 1.1 2.5 1.8 5.2 1.9 8.3v18.8H870v14c.1 2.5.8 4.2 1.9 5.5.6.6 1.4.9 2.5.9 2.2 0 3.3-1.4 3.8-3.2.4-.9.5-2 .5-3.3v-7.1h11.1zm-19.7-16.3h8.6v-9.1c0-2.5-.5-4.2-1.7-5.7-.6-.6-1.5-.9-2.6-.9-2.2 0-3.2 1.5-3.8 3.3-.4.9-.5 2-.6 3.3v9.1zm71.9-25.2h11.9v64.5H942v-5.4c-.2.1-.7.6-1.3 1.2-1.4 1.4-3.1 3.1-5.2 4.2-1.1.6-2.1.9-3.2.9-3.2 0-5.4-1.9-6.8-4.4-1.4-2.4-2.1-5.5-2.1-8.3V741h11.9v51.1c0 2.5 1.4 2.8 2.8 2.8 1.3 0 2-.7 2.8-1.5.4-.4.7-.9 1.1-1.5v-50.7z"/></svg>