<svg width="294.932" height="338.747" xmlns="http://www.w3.org/2000/svg"><defs><clipPath clipPathUnits="userSpaceOnUse" id="a"><path d="M0 254.06h221.199V0H0z"/></clipPath></defs><g clip-path="url(#a)" transform="matrix(1.33333 0 0 -1.33333 0 338.747)"><path d="M61.377 122.77c-23.44 16.827-42.056 37.089-52.419 57.054-10.54 20.307-11.823 39.017-3.612 52.684 9.122 15.182 28.732 22.778 55.225 21.392 26.32-1.38 56.336-11.464 84.519-28.398 40.392-24.27 70.267-59.303 76.11-89.252l-1.473-.287c-5.766 29.55-35.366 64.193-75.41 88.253-27.977 16.81-57.747 26.82-83.826 28.186-25.913 1.359-45.038-5.983-53.86-20.666-7.933-13.203-6.634-31.394 3.658-51.22C20.546 160.755 39 140.68 62.252 123.989z" fill="#fff"/><path d="M56.07 81.581c-20.563-.002-36.924 6.426-44.78 19.5-17.016 28.322 12.261 77.274 65.264 109.122 37.995 22.83 79.684 31.588 106.201 22.321l-.494-1.416c-26.118 9.128-67.305.42-104.935-22.19-52.294-31.423-81.34-79.45-64.75-107.065 16.591-27.614 72.636-24.513 124.931 6.91 13.225 7.945 25.177 17.051 35.522 27.064l1.043-1.078c-10.427-10.092-22.469-19.268-35.792-27.273-28.537-17.147-58.23-25.894-82.21-25.895" fill="#fff"/><path d="M41.204 81.717c.41-.636.848-1.264 1.307-1.876-.128.39-.174.835-.104 1.36-.094.534-.631.453-1.203.516m2.636-3.527c.088-.108.18-.212.268-.307.132-.043.262-.082.384-.11-.223.13-.446.266-.652.416m1.719-1.027c.306-.499.806-.944 1.57-1.227-.46.52-1.002.894-1.57 1.227m-.382 1.205c-.05-.336-.169-.624-.499-.624a.778.778 0 00-.17.022l-.016.007 1.066-.61a2.743 2.743 0 00-.38 1.205m.056 1.001a3.933 3.933 0 01-.057-1c.056.356.021.776.057 1m.008.04l-.008-.04.008.04m.244 8.305c.1-.88.26-1.79.57-2.768.131-.698 1.021-.961 2.048-1.107 1.034-.153 2.188-.19 3.028-.627.375-.02-1.146-1.551-.356-1.603 1.504-.49 3.031-.392 4.126-1.075l.04.002c.345 0 .414-.575.512-1.16.093-.575.215-1.157.568-1.157a.36.36 0 01.056.004c.124-.015.266-.022.422-.022.856 0 2.12.208 3.021.548 1.071.399 1.647.909.67 1.238-1.493.458-2.72.83-3.889 1.244-1.166.414-2.282.862-3.456 1.547-2.243.696-4.522 1.575-6.54 3.169-.464.51-.649 1.146-.82 1.767m-6.65 10.346c-.587-.132-1.27-.12-1.549-.687a38.24 38.24 0 01.798-1.061c-1.432-1.768-.524-3.565.512-5.07.285.334.576.664.87.989-.164.446-.398.677-.628.677-.182 0-.36-.146-.496-.443.747 2.118.752 3.79.493 5.595" fill="#4dc196"/><path d="M38.703 99.2l-.052-.04.185-1.102c.062.01.122.03.187.044a23.71 23.71 0 00-.32 1.097" fill="#4dc196"/><path d="M58.593 73.368c.042-.068.093-.14.153-.215-.05.073-.102.146-.153.215m125.665 58.801a7.766 7.766 0 01-.753-.432c.261.142.512.287.753.432M74.778 68.62c.165.02.326.032.483.032.591 0 1.11-.178 1.47-.809a83.405 83.405 0 00-3.705.556c.346.021.67.038.936.087l.093.017a1.48 1.48 0 00-.13.051c.28.038.565.064.853.066m14.362-.188c.342.157.725.235 1.13.235.8 0 1.686-.307 2.505-.903-.435-.368-.872-.519-1.303-.519-.819 0-1.614.544-2.332 1.187m-3.625.721h.013-.013m-.01 0c-.198.005-.405.16-.624.574.22-.414.426-.569.624-.574m-.632.588l-.008.017.008-.017m-.023.044l-.007.017.007-.017M72.804 68.36l.02.01c.388.206.31.544.121.88-.225.248-.423.54-.583.838.102-.19.396-.512.583-.839.274-.297.592-.546.98-.696-.383-.058-.75-.125-1.12-.193m16.335.071c-.659.583-1.256 1.244-1.79 1.645.534-.4 1.131-1.062 1.79-1.645m-1.983 1.812a.049.049 0 00-.007.003l.007-.003m-.913-.58l.044.052c.247.28.487.561.73.561-.243 0-.482-.28-.73-.56-.014-.019-.03-.036-.044-.053m-22.54 4.522c.087.591.171 1.177.17 1.728.001-.55-.083-1.137-.17-1.728-.52.261-1.14.94-1.629 1.223.488-.284 1.11-.962 1.628-1.223m136.875 69.32c-1.41 0-2.454-.17-2.636-.22-2.232-.566-3.704-1.148-4.797-1.875-1.092-.723-1.805-1.585-2.513-2.597-.707-1.01-1.415-2.17-2.484-3.397a16.175 16.175 0 00-3.89-3.247c.454.224.822.328 1.107.328.276 0 .475-.096.604-.272.331-.447.19-1.423-.407-2.566-1.167-2.293-4.254-5.188-8.158-5.613-2.894-.25-5.177-1.118-7.192-2.4-2.012-1.277-3.756-2.967-5.495-4.8-3.454-3.652-6.986-7.91-11.698-9.98-2.34-1.023-4.322-2.815-6.95-4.282-7.317-2.957-13.803-6.558-20.57-9.994-6.745-3.413-13.832-6.657-21.762-8.27-4.125-1.025-7.406-3.646-10.884-5.219-.84-.235-1.715-.312-2.584-.312-.817 0-1.628.068-2.403.137-.776.067-1.515.135-2.185.135-.15 0-.296-.004-.439-.01-3.31-.199-6.113-.928-8.894-1.706 3.07.225 5.306.788 8.705 1.273.091.01.172.016.245.016.833 0 .48-.658-.297-1.417-.84-.824-2.2-1.738-2.98-2.048a.33.33 0 00-.202-.067c-.3 0-.65.385-.998.77-.347.385-.69.77-.982.77a.308.308 0 01-.186-.063h-.045c-1.4 0-2.725-.896-4.299-1.38a.332.332 0 00-.17-.057c-.23 0-.312.391-.366.783-.053.39-.08.781-.204.781a.086.086 0 01-.044-.015c-1.042-.153-2.035-.854-2.953-1.412-.66-.404-1.28-.735-1.805-.735-.2 0-.388.05-.558.16-.954.483-1.782.985-2.56 1.497-.513.238-1.019.454-1.599.522a26.934 26.934 0 00-1.213-.226 24.61 24.61 0 00-3.857-.296c-1.87 0-3.792.197-5.609.602l-.059-.186c1.61-.652 3.001-1.494 4.281-3.249-.312.515-.125.87.411.87.112 0 .24-.015.381-.049l.297-1.248h-.242c-1.679 0-3.42.216-4.084 2.196.002 0-.848-.112-1.278-.152-.32.508.042 1.084.234 1.632-.324.135-.66.258-1 .382.033-.647.41-1.568.816-2.32.403-.754.823-1.336.823-1.335 4.418-2.032 8.813-3.326 13.174-4.296.312.27.566.584.85.584a.47.47 0 00.284-.11 3.03 3.03 0 01.918-.905l1.924-.35c.231.023.465.057.703.093l-.336-.159a97.47 97.47 0 014.428-.636c.345.043.673.074.941.14.491.111.975.228 1.42.228.542 0 1.025-.173 1.39-.743l.8-.064c-.05.066-.104.118-.155.191.12-.064.22-.133.302-.199 1.125-.078 2.258-.138 3.397-.18a98.03 98.03 0 016.775-.02c7.418.145 14.483 1.352 21.438 3.093 6.963 1.753 13.833 4.051 21.048 6.712a411.99 411.99 0 0122.76 9c7.406 3.193 13.572 7.836 19.588 12.67 3.015 2.425 6.005 4.911 9.166 7.397a187.106 187.106 0 0010.237 7.538c2.804 2.016 5.831 5.814 8.264 10.081 2.46 4.246 4.258 8.968 5.334 12.314-.047 2.517-.859 4.272-1.974 5.43-1.12 1.161-2.544 1.747-3.933 2.05-1.105.228-2.19.302-3.116.302" fill="#fff"/><path d="M75.26 68.652a4.26 4.26 0 01-.482-.033 13.513 13.513 0 01-.816-.133c-.266-.05-.59-.067-.936-.088a84.905 84.905 0 013.704-.557c-.36.631-.878.811-1.47.811" fill="#4dc196"/><path d="M166.475 221.105c-4.467 0-7.94-.351-9.438-.74-2.436-.598-4.604-1.807-6.771-3.054-2.171-1.248-4.341-2.535-6.887-3.329-1.698-.532-3.4-.196-4.508-1.175.01-.444-.537-.937-1.081-1.432-3.291-1.158-7.273-.716-9.321-2.802-.166-.117-.402-.168-.691-.168-1.075 0-2.892.71-4.61 1.372-1.597.623-3.103 1.21-3.75 1.21-.231 0-.352-.076-.327-.252.315-2.174.39-2.674-.011-2.674-.17 0-.427.091-.788.182-.362.09-.827.181-1.416.181a6.91 6.91 0 01-2-.316c-.562-.116-1.266-2.553-2.36-2.793-3.942-.417-4.136-2.308-7.585-4.586-2.363-2.016-4.218-2.553-5.913-3.23-1.683-.68-3.207-1.505-4.655-4.12-.187-.3-1.82-1.913-3.346-3.482a240.452 240.452 0 01-2.961-3.085c-2.878-1.59-4.715-3.47-6.608-4.982-1.9-1.52-3.853-2.67-7.084-2.999-1.22-2.902-3.885-4.948-6.774-6.966-2.881-2.006-5.987-4.003-7.875-6.464-1.882-2.455-3.693-3.847-5.743-5.052-2.042-1.21-4.313-2.226-6.907-4.05-1.228-1.188-1.675-2.335-2.812-2.844-1.16-.527-.524-3.39-1.598-4.705l-1.116.918a61.22 61.22 0 01-1.462-1.835c-.137-.176-.276-.243-.417-.243-.233 0-.47.186-.707.373-.523.412-1.043.835-1.68.835-.288 0-.601-.087-.95-.3a30.219 30.219 0 01-4.741-6.732 37.112 37.112 0 01.42-8.4c.633-.242 1.258-.502 1.737-.93.24-.816.515-1.625.799-2.422 1.399-.564 2.979-.512 3.92-.865 2.04-.133 3.998-.972 5.95-1.606 1.565-.517 3.114-.91 4.63-.91.376 0 .748.025 1.119.077.547.101.918.915 1.464 1.827.542.914 1.268 1.925 2.34 2.427a.717.717 0 00.215.031c.674 0 1.757-.743 3.01-1.13.14.824.662 1.147 1.296 1.147.548 0 1.18-.24 1.726-.604l.373.618c.453-.168 1.819-.64 1.828-.64 1.23 1.517 3.06 2.944 4.595 4.397 1.537 1.465 2.774 2.981 2.94 5 .197.797-.01 2.46-.081 3.607-.04.573 1.299 1.068 1.633 1.325-.711 1.2-2.077 1.887-3.103 2.844 1.565.963 3.963 2.451 5.517 3.98 1.545 1.531 2.255 3.171.207 4.595 2.104 1.851.71 3.683 2.717 5.897 2.6 2.964 6.318 6.471 10.307 9.658 2.028 1.908 4.313 3.403 6.604 4.918.84.583 1.667 1.14 2.463 1.66 8.595 5.701 17.222 9.143 25.685 12.322 4.246 1.584 8.482 3.093 12.819 4.733a299.12 299.12 0 0113.54 5.474c9.337 4.05 19.903 6.262 30.052 6.262.27 0 .54-.002.809-.005 5.188-.056 10.24-.7 14.81-1.924 4.57-1.218 8.638-3.037 11.773-5.244 3.152-2.2 5.304-4.759 6.516-7.226a14.5 14.5 0 001.53-6.922c-.063-2.076-.518-3.884-1.006-5.378-.493-1.495-1.012-2.674-1.332-3.51.458-.769.879-1.582 1.263-2.433 1.43.943 2.803 2.77 3.7 5.133.904 2.358 1.285 5.24.834 8.122-.434 2.884-1.733 5.757-3.512 8.141-1.76 2.402-3.941 4.336-5.672 5.816-2.855 2.04-5.385 3.356-7.262 4.457-.295.168-.404.25-.35.25.093 0 .665-.242 1.587-.7 1.44-.733 3.75-2.055 6.025-4.007 2.152-1.553 4.493-3.548 6.438-6.246-.615 2.095-1.65 4.178-2.885 6.057-1.233 1.881-2.65 3.557-3.927 4.946-2.364 1.217-4.874 2.26-7.496 3.172-5.795 1.967-11.851 2.925-17.883 3.407-3.763.296-7.532.405-11.325.405-2.3 0-4.607-.04-6.93-.102-2.235-.039-5.76-.384-9.251-.829-3.496-.432-6.962-.952-9.176-1.04 8.798 1.87 17.802 3.083 26.913 3.318 1 .024 2.002.036 3.006.036 8.117 0 16.322-.81 24.234-3.076-.458.212-.912.43-1.358.658-4.658 1.433-9.471 2.366-14.31 2.948-4.484.537-9 .771-13.505.771-.357 0-.713 0-1.07-.004a75.922 75.922 0 00-4.314-.137c-.238 0-.477.001-.72.004 1.677.074 3.355.12 5.034.133 3.894.223 7.715.678 11.97.678.435 0 .874-.005 1.319-.015 2.956-.23 6.256-1.168 9.159-1.696 2.374-.493 4.394-1.65 6.437-2.682a62.586 62.586 0 004.118-1.429c.43-.058.89-.139 1.343-.269l-.036.064c-.507 1.088-3.051 2.966-6.972 4.718-3.908 1.766-9.16 3.336-14.584 4.295-5.424.981-10.998 1.387-15.561 1.391h-.21M43.815 28.513c0 2.376-.424 4.365-1.272 5.967-.847 1.6-1.984 2.888-3.408 3.86-1.425.973-3.076 1.655-4.951 2.053-1.876.395-3.86.594-5.951.594-1.985 0-3.896-.063-5.735-.19a59.048 59.048 0 01-4.87-.513c-.541-.072-.965-.224-1.271-.458-.307-.235-.46-.622-.46-1.162V1.513c0-.29.108-.54.324-.756a1.03 1.03 0 01.756-.324h5.4c.288 0 .531.107.729.324.197.216.297.467.297.756v14.094l2.328-.135a42.977 42.977 0 012.491-.081c2.093 0 4.078.207 5.956.62 1.876.414 3.527 1.116 4.953 2.107 1.426.99 2.563 2.294 3.412 3.915.848 1.62 1.272 3.618 1.272 5.994zm-7.506-.46c0-2.168-.621-3.795-1.863-4.88-1.242-1.084-3.321-1.626-6.237-1.626-.216 0-.549.008-.999.027l-1.404.054c-.486.018-.954.034-1.404.054a27.15 27.15 0 01-.999.026v12.906c.251.036.585.063.999.08.413.019.855.037 1.323.054.467.02.926.036 1.377.056.45.018.818.026 1.107.026 2.7 0 4.725-.478 6.075-1.436 1.35-.958 2.025-2.576 2.025-4.853zM75.999 1.89v3.456c0 .288-.108.54-.324.756a1.038 1.038 0 01-.756.324H63.903c-1.585 0-2.692.323-3.321.972-.631.648-.945 1.87-.945 3.672v6.965h14.634c.287 0 .54.109.756.325.216.216.324.466.324.756v3.888c0 .287-.108.54-.324.756a1.038 1.038 0 01-.756.324H59.637v5.83c0 1.802.314 3.026.945 3.674.629.648 1.736.972 3.321.972h11.016c.287 0 .54.108.756.324.216.216.324.467.324.756v3.456c0 .396-.081.666-.243.81-.162.143-.442.25-.837.324-.432.072-.91.153-1.431.243-.523.089-1.171.17-1.944.243-.775.07-1.711.135-2.808.189a85.376 85.376 0 01-4.077.08c-1.765 0-3.406-.143-4.923-.431-1.517-.29-2.837-.837-3.961-1.647-1.124-.81-2.013-1.936-2.666-3.375-.653-1.44-.978-3.313-.978-5.617V11.07c0-2.304.325-4.177.978-5.617.653-1.44 1.542-2.564 2.666-3.375 1.124-.81 2.444-1.358 3.961-1.646C61.253.145 62.894 0 64.659 0c1.62 0 2.978.028 4.077.08 1.097.056 2.033.119 2.808.19.773.074 1.421.155 1.944.244l1.431.243c.395.07.675.18.837.323.162.144.243.413.243.81m38.717-.377l-8.478 15.768c2.248.864 4.034 2.195 5.358 3.996 1.324 1.8 1.986 4.138 1.986 7.02v.486c0 2.303-.424 4.239-1.272 5.805-.848 1.566-1.984 2.816-3.408 3.753-1.425.936-3.076 1.61-4.951 2.025-1.876.413-3.86.62-5.951.62-1.985 0-3.896-.062-5.735-.188-1.84-.127-3.463-.298-4.87-.514-.541-.072-.965-.224-1.271-.458-.307-.235-.46-.622-.46-1.162V1.513c0-.29.108-.54.324-.756a1.03 1.03 0 01.756-.324h5.4c.288 0 .531.106.729.322.197.215.297.467.297.755v14.583l2.322-.136c.936-.053 1.763-.08 2.484-.08h.756l7.776-14.367c.143-.288.288-.54.432-.755.143-.216.359-.322.648-.322h6.588c.432 0 .648.216.648.647a.769.769 0 01-.108.433m-8.64 26.784c0-2.376-.648-4.015-1.944-4.914-1.296-.9-3.348-1.35-6.156-1.35a23.6 23.6 0 00-.999.027l-1.404.054c-.486.018-.954.035-1.404.053-.451.019-.783.028-.999.028v12.15c.251.035.585.062.999.08.413.019.855.036 1.323.055.467.017.926.035 1.377.054.45.018.818.027 1.107.027 2.7 0 4.725-.451 6.075-1.35 1.35-.9 2.025-2.376 2.025-4.428zM144.74 1.89v3.456c0 .288-.108.54-.324.756a1.036 1.036 0 01-.756.324h-9.936c-1.584 0-2.682.323-3.294.972-.612.648-.918 1.87-.918 3.672v28.404c0 .288-.108.54-.324.756a1.036 1.036 0 01-.756.324h-5.346c-.288 0-.54-.108-.756-.324a1.036 1.036 0 01-.324-.756V11.07c0-2.304.324-4.177.972-5.617.648-1.44 1.53-2.564 2.646-3.375 1.116-.81 2.43-1.358 3.942-1.646C131.078.145 132.716 0 134.48 0c.72 0 1.53.02 2.43.055a63.487 63.487 0 015.049.405c.738.089 1.305.189 1.701.297.396.07.675.18.837.323.162.144.243.413.243.81m35.046 13.393v24.246a.95.95 0 01-.324.729 1.093 1.093 0 01-.756.297h-5.346a1.09 1.09 0 01-.756-.298.951.951 0 01-.324-.73V15.243c0-1.55-.108-2.894-.324-4.03-.216-1.136-.603-2.082-1.161-2.84-.559-.756-1.315-1.315-2.268-1.675-.954-.361-2.152-.541-3.591-.541-1.476 0-2.682.18-3.618.54-.937.36-1.683.92-2.241 1.676-.559.758-.945 1.704-1.161 2.84-.216 1.136-.324 2.48-.324 4.03v24.284a.951.951 0 01-.324.73 1.09 1.09 0 01-.756.298h-5.346c-.288 0-.54-.101-.756-.297a.95.95 0 01-.324-.73V15.284c0-2.881.369-5.292 1.107-7.236.737-1.944 1.763-3.511 3.078-4.698 1.314-1.188 2.88-2.044 4.698-2.565C160.786.263 162.776 0 164.936 0c2.16 0 4.149.263 5.967.784 1.817.52 3.383 1.377 4.698 2.565 1.314 1.187 2.34 2.754 3.078 4.698.738 1.944 1.107 4.355 1.107 7.236m39.311-13.77l-8.478 15.768c2.248.864 4.034 2.195 5.358 3.996 1.324 1.8 1.986 4.138 1.986 7.02v.486c0 2.303-.424 4.239-1.271 5.805-.848 1.566-1.985 2.816-3.409 3.753-1.425.936-3.075 1.61-4.951 2.025-1.876.413-3.859.62-5.951.62-1.985 0-3.896-.062-5.735-.188-1.839-.127-3.463-.298-4.869-.514-.542-.072-.966-.224-1.272-.458-.307-.235-.46-.622-.46-1.162V1.513c0-.29.108-.54.324-.756.216-.217.468-.324.756-.324h5.4c.288 0 .531.106.729.322.198.215.297.467.297.755v14.583l2.322-.136c.936-.053 1.764-.08 2.483-.08h.757l7.776-14.367c.144-.288.288-.54.432-.755.144-.216.36-.322.648-.322h6.588c.432 0 .648.216.648.647a.769.769 0 01-.108.433m-8.64 26.784c0-2.376-.648-4.015-1.944-4.914-1.296-.9-3.348-1.35-6.157-1.35-.215 0-.548.007-.998.027l-1.404.054c-.486.018-.954.035-1.404.053-.45.019-.783.028-.999.028v12.15c.252.035.585.062.999.08.414.019.855.036 1.323.055.468.017.927.035 1.377.054.45.018.819.027 1.106.027 2.701 0 4.726-.451 6.076-1.35 1.35-.9 2.025-2.376 2.025-4.428z" fill="#fff"/></g></svg>