<svg version="1.2" baseProfile="tiny" xmlns="http://www.w3.org/2000/svg" viewBox="0 0 624.9 126.2"><g fill="#FFF"><path d="M513.5 37.3v84.6c0 2.8 1.6 4.4 4.4 4.4h12.5c2.8 0 4.2-1.6 4.2-4.4V39.1c0-4.1 2.5-6.6 6.6-6.6h56.2c4.1 0 6.6 2.5 6.6 6.6v27.3c0 1.7-.6 2.3-2.4 2.3h-49.2V88h49.2c1.7 0 2.4.6 2.4 2.3v31.5c0 2.8 1.4 4.4 4.2 4.4h12.5c2.8 0 4.4-1.6 4.4-4.4V37.3c0-14.5-9.2-23.7-23.7-23.7h-64c-14.7-.1-23.9 9.1-23.9 23.7m-291-23.8h-72.4c-2.8 0-4.2 1.6-4.2 4.4v103.9c0 2.8 1.6 4.4 4.4 4.4h12.5c2.8 0 4.2-1.6 4.2-4.4V34.9c0-1.7.6-2.3 2.4-2.3h49.3c4.1 0 6.5 2.5 6.5 6.6v18.2c0 4.1-2.5 6.6-6.5 6.6h-32.4v19h36.3c14.5 0 23.7-9.2 23.7-23.7v-22c-.1-14.6-9.3-23.8-23.8-23.8m242.2 0h-70.8c-2.8 0-4.2 1.6-4.2 4.4v73.3h21V34.9c0-1.7.6-2.3 2.4-2.3h48.3c11 0 18.8 20.9 18.8 36.2s-6.7 38.4-18.8 38.4l-71.7.1v14.6c0 2.8 1.4 4.4 4.2 4.4h70.8c23.7 0 36.6-29.1 36.6-57.4 0-28.5-15-55.4-36.6-55.4m-121.6 0h-52.2c-19.7 0-31.1 11.4-31.1 31.1v50.5c0 19.6 11.4 31 31.1 31h52.2c19.7 0 31-11.4 31-31V44.6c0-19.7-11.4-31.1-31-31.1m10 80.5c0 8.7-4.5 13.1-13.2 13.1h-45.7c-8.7 0-13.3-4.4-13.3-13.1V45.7c0-8.7 4.5-13.1 13.3-13.1h45.7c8.7 0 13.2 4.4 13.2 13.1V94zM55 14.4H0v111.3h23.7c-7.5-6.7-12-16.8-12-29.2C11.8 68.4 27.6 42 55 14.4m30.5 0c-.2 1.2-.3 2.4-.1 3.9.5 3.2 2.7 6 4.1 8.9 1.5 2.3-2 11.7 5.6 25-20.2 3-36.8 9.5-47.5 23.5-17.6 23-14 39.9 7.4 42.6 21.9 2.8 38.8-31.9 16.3-34-11.3-1-20.6 9.1-16.7 15.8 2.9 1.2 6-1.7 10-6.5-1.4 23.3-27.6 19.6-14-4.1 14.7-25.5 52.5-25.6 51.8-.3-.4 15-8 28-20.4 36.3h29.3V14.4H85.5z"/><path d="M59.6 41.5c.2-.8.4-1.8.8-3L65 21.6l.1-.6.1-.5c0-1-.3-1.6-.9-1.9-.6-.2-1.8-.4-3.5-.5v-2c1.4-.1 3.5-.3 6.1-.6 2.7-.3 4.6-.6 5.7-.8l3.2-.6-5.9 21.3c-.5 1.8-.8 3.1-1 3.8-.4 1.8-.7 3-.7 3.5l.4 1 .8.2c.8 0 1.7-.6 2.8-1.9 1.1-1.3 2.1-2.6 3-4l1.6 1.1c-2.4 3.6-4.3 6-5.6 7.2-2.1 2-4.4 3.1-6.8 3.1-1.4 0-2.6-.4-3.7-1.3-1.1-.8-1.6-2.1-1.6-3.9.1-.5.2-1.4.5-2.7m17-40c1 1 1.5 2.2 1.5 3.5 0 1.4-.5 2.6-1.5 3.5-1 1-2.1 1.5-3.5 1.5s-2.6-.5-3.5-1.5c-1-1-1.5-2.2-1.5-3.5 0-1.4.5-2.6 1.5-3.5 1-1 2.2-1.5 3.5-1.5 1.3 0 2.5.5 3.5 1.5"/></g></svg>