<svg width="800" height="800" viewBox="0 0 600 600" xmlns="http://www.w3.org/2000/svg"><path style="fill:#fff" d="M201.1 56.22c5.68-2.02 11.6-.08 17.19 1.09-4.08 2.43-7.85 5.78-12.36 7.25-5.44-.5-10.69-2.3-16.1-3.08 3.79-1.69 7.41-3.74 11.27-5.26zm-69.4.93 3.81.27c.08.74.25 2.24.33 2.98-1.4-1.06-2.78-2.15-4.14-3.25zm183.9 37.96c3.36.59 6.63 1.59 9.77 2.92-3.38-.49-6.68-1.46-9.77-2.92zm162.8 53.04c1.4-.44 1.88.05 1.45 1.45-1.4.43-1.89-.06-1.45-1.45zm81.71 73.28c4.38 1.97 6.67 6.11 7.18 10.75-2.47-3.54-4.92-7.08-7.18-10.75zm-469.98 67.1c3.91.79-2.3 3.44 0 0zm104.88 200.69c.56-1.08 2.42-1.08 2.98 0 .35 1.8-3.34 1.8-2.98 0zm219.23 24.15c3.86-3.18 8.35-5.47 12.91-7.48-4.17 2.72-8.52 5.14-12.91 7.48z"/><g style="fill:#fff" fill="#090909"><path d="M240.55 30.62c5.95-8.44 9.02-18.45 14.35-27.24 2.24 9.94 2.29 20.19-.53 29.99 5.92-3.29 11.76-6.75 17.12-10.91 3.97-3.88 7.09-8.6 11.41-12.14-1.09 8.6-3.74 16.88-6.02 25.22 13.06-.08 26.11.67 39.13 1.66 4.17.41 8.2-.99 12.27-1.63-6.58 9.46-17.11 14.68-25.77 21.89-11.01 8.73-24.19 13.99-37.2 18.93-8.9 3.51-18.63 3.67-27.76 6.29 15.27 3.16 32.36.14 46.13 8.68 6.04 5.36 9.87 13.95 7.8 22.04-3.94 12.03-14.93 19.71-25.46 25.67-7.24 3.99-14.2 8.68-22.09 11.29 8.99-8.82 19.51-16.31 26.53-26.95 3.68-5.6 3.2-14.25-2.81-18.04-3.89-1.68-8.6-2-12.51-.27-8.06 3.36-14.13 9.8-21.04 14.9-1.32-2.93-.37-7.58-3.4-9.75-2.74-2.01-5.91.4-8.64 1.25 2.39 1.55 5.88 2.27 7.57 4.86 2.36 4.02.62 9.54-2.89 12.3-4.65 2.01-10.24.72-14.69 3.39-9.83 6.29-16.24 17.04-27.05 21.94-6.29 3.34-14.62 3.81-20.54-.51-3.02-2.61.74-5.68 1.45-8.46.04-3.05-.91-6.03-1.43-9.02-5.69 10.82-13.96 20.07-19.36 31.06-3.57 6.5-5.57 13.7-9.01 20.25 1.84-10.7 5.17-21.1 8.85-31.29 3.7-10.03 11.54-17.85 19.74-24.4 3.68 5.31 8.44 10.34 15.3 11.08-2.37-4.81-5.39-10.54-1.48-15.46 2.52 3.61 6.48 5.6 10.21 7.72 7.36-10.04 12.59-21.88 13.85-34.34.41-4.18-1.78-9.21-6.44-9.7-12.39-1.47-25.34-1.39-36.94-6.68-.75.69-1.51 1.38-2.27 2.06.33 3.48.78 6.94 1.24 10.41-4.35-5.49-7.79-11.6-10.89-17.84-1.9 3.95-1.73 8.31-.85 12.5-4.61-4.66-7.77-10.45-8-17.14-1.62-.8-3.25-1.59-4.87-2.38.35 15.77 8.46 30 16.98 42.77-11.43-8.09-20.32-19.47-25.83-32.3-2.65-9.34-3.75-19.04-6.01-28.47 17.17-9.68 34.55-21.92 54.93-22.69-.04.52-.14 1.58-.18 2.1-5.01 1.61-12.87 2.15-13.35 8.87-1.07 5.23 5.52 7.47 9.58 5.48 4.61-2.48 8.81-5.62 13.03-8.69-.45 3.1-.89 6.21-1.08 9.34 11.92-3.02 24-5.68 36.4-5.22 9.36 1.1 17.03-5.75 22.52-12.42m-39.45 25.6c-3.86 1.52-7.48 3.57-11.27 5.26 5.41.78 10.66 2.58 16.1 3.08 4.51-1.47 8.28-4.82 12.36-7.25-5.59-1.17-11.51-3.11-17.19-1.09m-69.4.93c1.36 1.1 2.74 2.19 4.14 3.25-.08-.74-.25-2.24-.33-2.98l-3.81-.27z" style="fill:#fff"/><path d="M322.12 45.08c5.16-5.49 13.57-1.4 19.87-1.01 17.07 2.74 34.26 9.56 51.68 6.11-12.91 9.99-28.7 15.12-44.21 19.45-17.67 4.81-36.52 1.08-52.81-6.57 9.25-4.8 18.01-10.65 25.47-17.98z" style="fill:#fff"/><path d="M376.92 62.81c3.45-1.44 6.37-4.02 9.95-5.15 10.73.32 21.12 3.63 31.11 7.36 7.74 2.6 13.98 8.02 21.11 11.81 7.59 4.11 15.17 8.26 22.86 12.19 7.05 3.49 15.09 4.95 21.55 9.6 6.93 5.9 10.45 14.69 16.69 21.23 3.34 4.12 8.04 6.78 11.67 10.62 4.75 4.96 11.56 7.38 16.2 12.41 3.89 6.1 4.69 13.61 8.31 19.85 3.51 6.26 9.15 10.85 14.78 15.12-2.16-.21-4.32-.45-6.48-.65 5.07 5.96 11.56 10.51 16.9 16.17 3.81 7.39 3.67 16.14 5.97 24.02.93 5.6 6.21 8.68 9.83 12.54-2.91-.84-5.77-1.81-8.63-2.77 3.13 5.25 9.11 9.77 8.85 16.47.43 8.23-.84 16.5.14 24.71 1.98 7.97 6.29 15.09 9.36 22.66-2.05-1.68-4.09-3.36-6.11-5.03 1.73 7.45 3.86 14.8 5.88 22.18 3.48 11.23-9.28 19.98-7.24 31.23.75 4.38 2.1 8.61 3.29 12.88-1.27-1.07-2.53-2.16-3.78-3.25 1.31 3.88 2.6 7.81 2.69 11.96-3.15 9.64-10.65 17.17-13.95 26.77-1.94 7.41-1.83 15.13-2.49 22.72-1.39-2.19-2.7-4.43-4.01-6.65-1.97 9.77-3.5 19.67-6.43 29.21-3.68 8.22-12.67 11.91-18.51 18.24-6.2 8.68-9.48 18.92-13.63 28.62-4.2 9.25-14.93 11.23-22.85 16.12-10.39 5.36-13.97 17.27-21.58 25.35-6.25 4.24-14.38 4.22-21.33 6.75-12.23 2.58-16.01 17.79-28.05 20.81-8.61 2.03-17.61 2.29-26.05 5.11-3.8 1.75-6.96 4.58-10.47 6.82.45-1.95.95-3.9 1.44-5.83-7.2 3.73-14.28 7.75-21.69 11.05-8.32 1.4-16.85.68-25.25.98-8.75-1.08-16.08 4.34-23.87 7.28 1.71-2.39 3.45-4.74 5.16-7.13-6.96 2-13.72 4.93-20.91 6.03-8.9.17-16.24-5.48-24.44-8.01-4.61-1.93-9.49-.16-13.92 1.28.25-.72.5-1.43.76-2.14-5.07.38-10.41 2.04-15.38.3-10.3-3.43-18.4-11.42-28.69-14.81-5.99.03-11.99 1.28-17.98.27-8.83-4.39-13.37-13.92-21.44-19.28-5.76-2.58-12.57-1.97-18.16-4.98-8.52-5.78-12.73-15.8-20.55-22.3-7.62-3.83-17.46-5.64-22.37-13.35-3.19-8.2-6.92-16.24-11.9-23.52-3.04-3.18-7.49-4.49-10.9-7.2-14.64-13.15-10.68-36.99-26.02-49.72.94-.13 1.87-.25 2.81-.35-5.72-11.14-13.29-21.38-17.13-33.42-2.33-7.19-5.96-13.91-10.91-19.62 3.05.99 6.03 2.16 9.02 3.32-3.1-5.2-6.76-10.17-8.95-15.84-2.79-10.47.77-21.18.54-31.73-.4-7.16-4.27-13.16-7.82-19.09 3.39 1.98 6.79 3.96 10.18 5.95-2.07-4.84-5.35-9.46-4.96-14.98-.57-11.47 7.06-21 8.94-31.98 2.3-7.38.78-15.16-.24-22.6 3.05 3.86 5.93 7.86 8.91 11.78-.41-7.63-1.12-15.85 2.65-22.82 4.89-9.11 9.65-18.3 14.28-27.56 4.87-11.37 14.11-19.97 21.17-29.92 2.69-4.2 4.89-8.68 7.33-13.02.22 9.24 5.09 17.04 8.53 25.28 1.87 7.51 3.14 15.39 2.51 23.14-3.51 11.59-11.39 21.12-15.9 32.26-1.02 7.5-1.04 15.19-3.23 22.5-2.45 8.04-5.78 15.75-8.83 23.57-3.55-3.06-6.87-7.34-5.02-12.44 3.95-7.65 10.27-14.4 11.72-23.19 1.59-5.18 1.46-10.6 1.43-15.95.72.64 1.44 1.28 2.16 1.93-.49-4.95-2.46-10.79 1.81-14.7 5.73-7.27 12.22-14.35 14.77-23.49-5.49 9.89-13.18 18.17-20.79 26.45-2.44-5.38-5.73-10.56-6.64-16.47.89-4.09 4.54-6.96 6.27-10.7 4.25-7.49 5.28-16.09 5.84-24.51-4.65 6.54-9.13 13.21-13.18 20.14-1.19 2.18-2.49 4.55-2.24 7.12 1.7 13.23 10.11 24.71 10.53 38.22 1.52 14.51-8.86 26.02-16.07 37.45-5.36-4.8-11.92-10.42-10.83-18.46 1.9-12.51 8.39-23.69 10.97-36.02 1.47-6.05 2.38-12.24 2.79-18.46-5.31 8.35-8.74 17.67-12.42 26.8-3.45 8.72-6.44 17.91-6.85 27.27 6.33 12.31 15.9 22.78 21.55 35.52-.42-2.6-.89-5.18-1.34-7.77 5.58 7.12 6.86 16.69 5.87 25.46-1.87 8.72-3.58 17.47-5.39 26.21-3.14-2.79-5.77-6.22-7.12-10.22.45-7.87 5.3-14.51 6.86-22.13-4.75 7.24-8.91 14.96-10.79 23.5-6.08-4.28-13.02-8.44-15.35-16.01-5.39-16.14 1.12-33.11-.07-49.62-4.32 15.18-7.14 31.13-5.3 46.92-.1 4.73 4.34 7 7.14 9.97 6.64 5.65 12.81 11.81 19.42 17.5 3.64 3.05 8.37 5.15 10.62 9.55 7.5 13.09 7.86 28.53 8.11 43.2-3.58-3.39-9.35-6.06-9.37-11.66.2-10.9 1.83-22.17-2.68-32.47 2.66 13.03 1.38 26.2.68 39.33-4.88-2.12-9.75-4.3-14.41-6.89-3.48-1.89-5.13-5.7-7.11-8.92-5.99-10.35-7.5-22.42-8.8-34.11-.07-5.69-2.61-10.8-5.25-15.66-.16 16.08.62 32.52 5.86 47.87 1.15 2.93 2.11 6.47 5.2 7.94 12.06 6.56 26.44 10.55 35.07 21.94 7.86 8.43 7.02 20.55 8.36 31.27-9.99-2.53-22.07-4-28.14-13.49-5.74-10.99-6.15-25.47-17.16-33.24 4.83 11.25 9.37 22.62 13.13 34.28 1.26 3.06 2.2 7.13 5.85 8.13 11.47 4.18 24.23 4.73 34.83 11.21 12.25 6.83 13.81 22.18 21.45 32.85-8.76-.29-18.59 1.68-26.04-4.27-11.23-8.63-16.78-22.82-28.37-31.1 5.44 13.48 13.72 25.58 22.21 37.29 13.47.04 26.96-.47 40.41.53 8.9.29 17.88 4.63 22.71 12.29 3.77 5.35 6.23 11.48 9.36 17.22-10.45.6-21.4 2.38-31.54-1-8.83-4.81-14.72-13.32-22.45-19.52-4.48-2.63-9.58-4.04-14.68-4.87 6.12 8.57 12.56 17.05 20.39 24.15 3.06 2.84 7.54 3 11.42 3.63 16.19 1.2 32.55.72 48.61-1.75-1.52-.54-3.04-1.07-4.55-1.6 16.54-3.28 30.94 7.89 41.78 18.96-5.34.91-10.71 1.59-16.1 2.12-2.17-7.75-6.4-15.3-14.09-18.72 6.56 5.71 11.58 12.91 13.8 21.35-6.93 2.66-13.85 5.48-21.13 7.04-12.81-1.66-20.33-13.54-31.88-17.99-6.5-2.85-13.39-4.77-20.35-6.05 11.46 11.59 24.4 21.71 38.31 30.21 1.85 1.12 4.07 2.14 6.24 1.31 12.98-4.26 25.52-10.02 38.87-13.04 12.07-2.49 22.75 4.2 32.59 10.12.04.58.13 1.75.17 2.34-8.56 3.59-16.53 8.46-25.05 12.09-14.18 4.45-26.63-6.27-40.57-6.66 5.63 5.1 12.97 7.58 19.68 10.88 4.89 2.11 9.89 5.06 15.47 4.25 7.22-3.43 12.94-9.54 20.47-12.42 10.93-4.74 22.94-9.17 34.99-5.79 5.99 2.13 11.36 5.66 16.93 8.67-5.88 6.52-12.71 12.17-20.01 17.04-3.75 2.49-8.48 1.71-12.69 1.15-11.1-1.96-22.25-3.78-33.49-4.6 11.53 4.65 23.55 7.99 35.75 10.34 1.77-.92 4.79 1.89 6.68.34 13.58-9.37 25.84-22.68 43.09-24.73 9.08-2.44 18.65.2 26.22 5.41-4.94 6.19-8.72 13.86-15.32 18.36-14.4 2.1-29.45-1.89-43.53 3.25 14.66 1.59 29.56 3.21 44.26 1.42 7.92-6.6 12.96-16.29 21.24-22.66 7.41-5.98 15.92-11.29 25.56-12.43 7.59-.92 15.35-.87 22.93.25-.83 6.29-1.56 13.48-6.7 17.94-6.16 6.04-15.06 6.81-22.89 9.24-5.58 1.44-10.94 3.61-16.25 5.82 13.18-1.54 26.43-3.92 38.94-8.41 6.03-1.7 5.63-9.15 7.94-13.76 3.96-16.54 14.76-30.87 28.41-40.73 7.96-5.81 15.96-12.02 25.41-15.23-.61 5.34-4.08 9.79-6.03 14.7-4.98 1.55-10.05 2.92-14.71 5.32 6.37-.95 12.6-2.56 18.92-3.8-2.48 9.86-3.74 21.49-12.37 28.19-7.79 6.14-16.58 10.82-24.49 16.79 11.37-3.64 21.82-9.54 32.36-15.04 2.86-10.49 4.74-21.19 7.14-31.78 1.79-7.88 6.05-15.45 13.12-19.73 7.3-4.56 15.17-8.12 22.86-11.96-.42 7.66.7 15.99-2.65 23.14-10.16 13.45-23.77 23.76-34.66 36.58 11.24-6.53 21.92-14.07 31.73-22.6 5.5-3.92 4.36-11.44 5.66-17.24.77-11.32 2.73-22.5 5.76-33.42-1.62 2.54-3.2 5.12-4.95 7.58 3.73-19.53 11.75-39.47 27.66-52.21.01 5.86-.47 11.68-.79 17.53-8.91 7.32-17.87 15.21-22.25 26.19 7.21-10.8 16.68-19.66 27.01-27.43 1.32 9.68 4.72 20.44-.6 29.48-6.32 14.8-18.58 25.78-26.94 39.32 13.85-11.14 24.9-25.22 35.35-39.48-2.1-15.69-7.15-30.93-8.2-46.75 2.67-15.64 8.47-30.81 16.44-44.52 2.17 5.81 3.66 11.85 5.61 17.74-10.45 7.68-18.11 19.07-20.67 31.82 5.51-12.17 12.64-24 23.73-31.84 6.42 7.94 6.79 19.03 4.31 28.58-2.83 10.63-8.12 20.32-12.66 30.27 6.71-9.08 12.24-18.98 16.89-29.25 1.19-3.59 3.75-7.35 2.37-11.25-4.65-13.88-10.42-27.52-13.05-41.98.03 4.92.32 9.88.17 14.81-7.42-17.74-5.81-37.98 1.68-55.4l2.99-.2c2.03 4.51 6.58 8.82 4.81 14.21-3.28 5.2-7.27 10.07-9.15 16.02 4.31-6.27 8.76-12.49 14.25-17.81 12.37 8.48 9.16 25.1 10.39 38.02 2-7.54 3.45-15.21 4.56-22.92-10.39-12.72-20.52-25.85-27.56-40.76-5.74-15.04-8.73-31.17-8.32-47.29 4.38 4.06 8.53 8.39 13.31 12.02-4.36 14.14-5.37 30.05.37 43.95-1.84-14.91-5.26-31.15 2.5-45.01 5.59 4.62 12.45 8.72 15.77 15.38 1.6 14.59 2.18 29.36 5.64 43.7 1.31-14.93 3.09-30.58-1.14-45.11-9.08-9.91-20.76-17.08-29.64-27.2-8.07-11.66-9.14-26.52-6.55-40.15 6.06 2.34 11.87 5.29 17.81 7.94-10.29-8.45-22.61-13.87-33.11-22-9.1-7.55-10.08-19.87-14.22-30.19 10.97-.9 21.36 2.84 30.94 7.75-2.53-3.13-6.05-5.23-9.87-6.42-9.63-3.06-19.61-4.84-29.33-7.55-6-1.64-11.43-4.75-17.17-7.06 5.58 4.26 12.28 6.63 18.23 10.27-14.24-2-27.93-9.03-37.2-20.12-5.54-6.64-10.64-13.69-17.01-19.59 6.6.49 13.3 2.07 19.01 5.52 5.05 3.9 5.99 10.72 9.36 15.84-1.7-6.38-3.86-12.63-6.98-18.46 9.62-.74 19.36-1.35 28.91.52 8.65 5.09 15.31 12.78 23.13 18.97-4.8-6.78-9.62-13.82-16.28-18.91-19.85-6.88-43.12-2.87-61.18-14.93-8.29-8.15-15.65-17.4-25.93-23.22 10.49-2.37 21.41-4.55 32.2-2.96 13.87 4.89 24.4 15.72 36.37 23.86-6.47-8.13-15.42-13.7-24.05-19.24-5.46-3.32-11.05-7.01-17.66-7.39-18.81-1.61-37.49 6.43-56.24 2.26-13.31-1.62-23.66-10.65-34.35-17.85 7.14-2.12 14.56-3.61 21.17-7.2m101.48 85.34c-.44 1.39.05 1.88 1.45 1.45.43-1.4-.05-1.89-1.45-1.45m81.71 73.28c2.26 3.67 4.71 7.21 7.18 10.75-.51-4.64-2.8-8.78-7.18-10.75m-469.98 67.1c-2.3 3.44 3.91.79 0 0m104.88 200.69c-.36 1.8 3.33 1.8 2.98 0-.56-1.08-2.42-1.08-2.98 0m219.23 24.15c4.39-2.34 8.74-4.76 12.91-7.48-4.56 2.01-9.05 4.3-12.91 7.48z" style="fill:#fff"/><path d="M295.47 64.59c17.52 9.01 37.96 10.48 56.97 5.88-12.13 7.09-26.6 9.1-40.44 9.51-11.09.54-22.08-1.95-32.5-5.58 5.37-3.19 10.87-6.18 15.97-9.81zm58.95 7.2c8.8 7.56 19.13 13.5 30.45 16.33 7.72 1.65 15.63 2.03 23.49 2.75-24.36 5.44-50.1-.33-71.83-11.96 6.1-2 12.22-4.05 17.89-7.12zm-91.05 9.24c5.1-1.48 10.03-4.44 15.47-4.35 7.25 1.13 14.17 3.81 21.4 5.15-6.77 1.41-13.61 2.68-20.53 3-5.56-.68-10.87-2.73-16.34-3.8zm55.94 2.82c6.1-1.18 12.63-3.13 18.81-1.1 4.93 1.67 9.69 3.76 14.48 5.8-11.24-.08-22.65-.79-33.29-4.7zm-35.26 4.68c5.16.04 10.47-.6 15.46 1.15 4.64 1.13 8.8 3.94 13.61 4.43 3.2-1.34 5.66-4.33 9.3-4.68 9.95-.62 20.73.41 29.42 5.71 2.28 1.53 4.9 4.26 3.65 7.23-2.26 8.26-9.29 13.75-16.46 17.69-12.94 7.75-28.31 9.38-43 11.16 4.83-4.95 12.21-4.96 17.92-8.35 5.38-2.64 9.42-7.31 12.65-12.25 1.56-3.73.92-7.93 1.02-11.89-12.66 15.41-28.97 28.58-47.82 35.5 8.21-9 15.64-20.27 14.13-33.1-2.2-4.92-6.47-8.55-9.88-12.6m31.55 6.58c3.09 1.46 6.39 2.43 9.77 2.92-3.14-1.33-6.41-2.33-9.77-2.92zm-145.34-4.96c10.28 1.35 21.19.56 30.82 4.98-2.37 5.42-7.7 8.34-12.16 11.83-17.48 12.76-33.26 27.8-46.75 44.7-.62-10.15-.06-21.36 7.32-29.18 8.51-8.89 18.22-16.79 24.96-27.23-2.12-.96-4.24-1.89-6.37-2.79.72-.77 1.45-1.54 2.18-2.31z" style="fill:#fff"/><path d="M354.01 93.27c7.47 1.51 15.69 1.99 22.06 6.63 5.41 3.55 11.52 8.71 10.93 15.96-3.2 7.26-9.44 14.18-17.66 15.4-12.28 1.57-24.9 2.29-37.01-.81 7.79-4.02 16.32-7.1 22.51-13.6 4.06-3.68 6.85-9.07 6.01-14.71-1.3-3.59-4.49-5.99-6.84-8.87zm48.24 1.37c6.15-.2 12.99-3.02 18.82.25 7.28 3.29 11.54 10.56 17.23 15.81 5.77 6 13.74 8.82 21.07 12.34-22.31-1.4-39.25-16.94-57.12-28.4zm-16.78 2.2c4.72-.14 9.5-.13 14.15.73 6.16 4.11 12.44 8.2 17.99 13.14-10.86-4.25-24.01-4.58-32.14-13.87zm-219.71 33.78c9.7-11.95 22.03-21.4 34.56-30.19-.67 3.88-1.27 8.6-4.84 11.03-9.54 6.87-18.17 14.99-25.05 24.56-1.61-1.75-3.16-3.56-4.67-5.4z" style="fill:#fff"/><path d="M384.66 102.14c9.83 4.56 22.29 8.83 26.29 20.05 2.01 6.63-3.5 12.76-9.56 14.27-11.24 2.58-23.12 2.18-34.14-1.18 7.31-3.51 15.92-5.19 21.54-11.48 3.05-3.65 4.38-8.91 2.86-13.48-2.09-2.93-4.62-5.48-6.99-8.18zM247.6 112.7c3.43-3.12 7.39-6.38 12.45-5.74 4.84-.17 8.43 4.3 9.45 8.65 1.28 4.37-1.46 8.64-3.91 12.02-7.98 9.69-18.86 16.4-27.16 25.78-3.57 4.54-5.83 9.93-8.57 14.98-.3-6.23 1.3-12.51 4.93-17.61 7.92-10.78 20.45-16.81 28.94-27.05 3.08-4.26 3.54-11.27-1.05-14.63-5.42-.92-10.18 1.93-15.08 3.6z" style="fill:#fff"/><path d="M254.76 112.72c4.83-3.97 11.22 2.74 8.35 7.34-1.48 3.1-5.51 3.66-8.18 5.04-.97-3.92-5.1-9.75-.17-12.38z" style="fill:#fff"/><path d="M244.71 128.26c-3.66-3.93.28-8.66 3.01-11.77.54 2.57.47 5.51 2.12 7.67 2.15 1.63 5.11 1.44 7.67 1.96-3 3.55-9.59 7.44-12.8 2.14zm168.55-11.89c7.49 4.61 15.29 9.73 19.96 17.4 2.21 4.96 5.15 12.49.53 16.96-5.12 4.19-12.37 4.29-18.62 4.12-9.95-2.11-19-6.91-28.28-10.89 1.04-1.07 2.1-2.13 3.15-3.19-9.14 1.01-18.62 2.91-25.58 9.38 1.02-2.91 1.41-6.69 4.58-8.15 11.49-7.19 24.66 2.15 36.89-1.12 6.79-1.2 10.99-7.45 14.7-12.68-2.31-4.02-4.84-7.92-7.33-11.83zm-90.87 12c8.6-1.23 16.24-5.49 23.9-9.28-5.97 5.1-12.66 9.48-20.07 12.15-11.1 4.39-24.18 5.71-32.7 14.9 1.68-4.66 4.18-9.39 8.61-11.97 5.97-4.14 13.46-4.11 20.26-5.8zm-97.82 5.83c2.76-4.16 5.77-8.14 8.31-12.44.45 2.8.85 5.59 1.3 8.39-3.18 1.42-6.38 2.76-9.61 4.05zm215.1-9.37c4.96 2.41 10.18 4.55 14.58 7.93 3.52 4.74 6.26 10.01 8.95 15.26-9.61-5.77-18.18-13.18-23.53-23.19zm-320.54 22.25c6.63-9.2 16.5-15.28 25.94-21.23-1.92 3.75-4.09 7.41-5.35 11.46-1.19 7.5.88 15.31-1.87 22.58-2.3 5.76-6.53 10.4-10.37 15.17-4.76-3.15-6.79-8.67-8.74-13.77-1.75-4.51-2.36-9.96.39-14.21z" style="fill:#fff"/><path d="M437.65 130.05c8.77 6.35 16.43 14.97 20.03 25.31 3.22 8.13-4.3 18.97-13.51 16.4-11.32-.91-21.11-7.18-29.67-14.16 6.45.83 12.94 1.46 19.47 1.28 4.54-.2 9.39-2.97 10.25-7.75 1.63-7.78-3.35-14.52-6.57-21.08zm-222.19 3.46c3.73-1.65 6.9.66 9.99 2.21-.76 3.82-1.6 7.64-2.55 11.43-.99-2.7-1.96-5.32-3.09-7.94-10.38 5.01-17.99 14.58-28.9 18.63a58.404 58.404 0 0 1-12.59 2.08c6.89-3.93 14.91-6.16 20.41-12.17 5.6-4.62 9.46-11.97 16.73-14.24zm127.63 1.62c7.32-2.08 14.99-1.55 22.48-1.02-11.48 3.84-23.87 4.33-34.88 9.66 3.93-3.11 7.51-7.06 12.4-8.64zm-91.15 13.86c8.52-5.5 17.54-10.16 26.41-15.06-7.79 10.09-18.96 16.71-28.48 24.95-3.9 3.32-5.35 8.4-7.81 12.71 1.21-8.16 2.72-17.45 9.88-22.6z" style="fill:#fff"/><path d="M462.02 153.73c6.21 5.75 11.57 12.72 14.47 20.71.36 4.8 2 10.62-1.22 14.83-2.22 3.19-6.57 3.84-10.16 3.56-11.58-1.51-22.09-7.59-30.84-15.08 8.82.72 18.43 2.92 26.42-2.06 7.38-5.62 3.77-14.85 1.33-21.96zm-331.6 20.65c4.21-6.05 7.79-12.49 11.69-18.73-2.53 13.3-7.22 26.75-16.16 37.15-1.31-6.45.63-13.17 4.47-18.42zm344.84-13.93c4.39 2.78 9.21 4.93 13.4 8.02 3.23 5.36 5.85 11.07 8.43 16.77-4.13-2.97-8.17-6.05-12.2-9.14-5.82-3.2-6.97-10.19-9.63-15.65zm14.62 4.75c6.49 1.79 13.94 2.26 19.37 6.55 4.17 6.89 4.82 15.63 9.95 22.11 3.62 6.19 9.99 9.76 15.1 14.53-9.65-2.03-17.39-8.75-23.84-15.87-7.87-8.28-14.77-17.49-20.58-27.32z" style="fill:#fff"/><path d="M479.42 174.47c8.59 8.96 14 20.96 14.34 33.41-.63 4.91-5.82 8.47-10.75 7.15-13.93-2.23-24.59-12.34-34.42-21.73 7.53 2.82 15.09 6.44 23.29 6.39 5.75-.16 11.51-5.55 9.95-11.69-.37-4.58-1.62-9.02-2.41-13.53zM130.6 225.63c5.43-8.04 9.36-17.24 16.5-24.02-6.64 14.42-9.52 30.13-12.9 45.53-1 5.61-1.07 11.34-1.45 17.03-.55-.2-1.65-.58-2.2-.78-1-6.56-1.99-13.12-2.98-19.67-4.65 6.86-8.75 14.07-13.52 20.86 2.83-13.95 8.84-27.05 16.55-38.95z" style="fill:#fff"/><path d="M496.44 201.43c7.11 9.46 12.84 21.57 9.65 33.62-2.04 6.28-9.96 7.84-15.52 5.53-10.59-4.34-18.48-13.26-24.67-22.61 8.5 3.49 18.83 9.9 27.97 4.89 6.69-4.88 2.73-14.58 2.57-21.43zm11.53 1.16c3.83 3.82 8.71 6.76 11.97 11.13 1.94 9.65 4.28 19.2 6.67 28.75-3.61-5.98-7.12-12.09-11.79-17.31-2.08-2.82-5.01-5.22-6.15-8.64-.53-4.63-.65-9.28-.7-13.93zm13.28 4.3c5.61 1.77 11.11 3.91 16.59 6.06.09 6.98-.12 13.99.53 20.95 1.07 7.94 4.77 15.05 7.58 22.44-8.11-8.9-13.53-19.74-18.99-30.34-3.08-5.96-4.53-12.56-5.71-19.11zM97.82 284.27c7.25-23.76 15.25-48.08 31.44-67.47-2.7 8.51-8.13 15.8-11.42 24.07-5.25 13.63-10.38 27.77-10.27 42.59.93 5.97-2.75 10.91-5.21 15.96-1.66-4.97-4.58-9.84-4.54-15.15z" style="fill:#fff"/><path d="M509.64 225.74c5.78 10.18 7.98 22.06 6.86 33.67-.54 4.03-3.48 7.58-7.36 8.82-3.78 1.43-7.81-.56-11.05-2.37-8.54-5.5-14.11-14.34-17.54-23.72 6.07 4.18 13.41 10.26 21.28 6.72 10.21-3.33 7.78-14.96 7.81-23.12zm-373.2 43.37c-1.32-13.02-.12-26.38 4.8-38.56.03 8.11-.2 16.23.18 24.35 4.95-5.87 8.03-12.93 11.3-19.79-3.77 11.8-6.37 25.58-16.28 34zm392.2-21.64c3.38 6.34 8.63 12.29 8.86 19.78.52 6.74.69 13.51.89 20.27-3.39-6.86-6.55-13.84-9.31-20.97-.76-6.33-.43-12.72-.44-19.08zM111 326.96c-3.21-26.96 1.69-55.19 15.56-78.68-.92 24.01-2.22 48.09.15 72.07-3.1-6.21-5.81-12.67-10.11-18.19-2.31 8.09-3.51 16.4-3.86 24.8H111z" style="fill:#fff"/><path d="M522.92 252.36c3.23 9.41 3.97 19.76 1.98 29.51-1.38 5.44-3.69 11.27-8.69 14.35-5.22 2.56-10.82-.22-14.2-4.25-6.04-7.23-10.4-15.99-12.23-25.25 6.94 4.77 15.42 14.15 24.62 9.69 7.93-5.33 7.28-15.78 8.52-24.05zm-390.95 24.32c1.94 1.17 3.85 2.41 5.75 3.66.87 9.69 1.64 19.41 1.73 29.15-3.16-10.77-5.42-21.78-7.48-32.81zm-3.49 1.74c3.02 7.48 3.77 15.63 6 23.35 4.08 11.42 1.03 23.74 1.72 35.59-4.54-19.28-7.71-39.08-7.72-58.94z" style="fill:#fff"/><path d="M522.26 303.25c3.63-5.06 4.85-11.28 7.06-17 1.14 10.66 1.21 23.19-6.32 31.75-2.95 4.24-8.61 8.37-13.94 6.01-6.27-2.47-8.91-9.15-11.16-14.97-1.99-6.28-3.69-12.7-4.31-19.27 3.52 4.67 6.48 9.82 10.78 13.86 5.16 3.64 13.1 4.15 17.89-.38zm16.33-3.78c1.7 5.29 4.41 10.57 4.45 16.2-2.27 6.2-4.78 12.32-6.16 18.82-1.02-7.48-3.99-14.92-2.56-22.56 1.07-4.26 2.8-8.33 4.27-12.46zM130.7 385.33c-15.05-21.15-15.6-48.8-13.88-73.63 5.41 12.27 11.9 24.02 17.15 36.36 4.66 10.73 11.38 20.65 14.4 32.06-6.04-6.4-10.43-15.24-18.94-18.7-.58 8.01.18 15.98 1.27 23.91z" style="fill:#fff"/><path d="M499.01 345.98c-5.37-8.8-3.96-19.5-3.3-29.28 2.27 7.06 3.98 17.12 12.23 19.51 2.67 1.15 5.79.58 8.05-1.21 6.03-4.08 7.48-11.49 10.77-17.5-.6 10.86-2.6 22.62-10.49 30.77-4.44 5.66-14.13 3.84-17.26-2.29zm-395.28-24.44c2.51 4.34 5.57 8.48 7.21 13.26.77 5.42-.37 10.86-1.02 16.24-.57-.09-1.72-.26-2.29-.34-2-6.09-5.04-11.78-6.95-17.9.11-3.92 2-7.53 3.05-11.26z" style="fill:#fff"/><path d="M490.64 371.35c-2.03-8.94-.09-18.11 2.66-26.68 1.83 6.16 3.2 14.58 10.38 16.68 8.57 2.51 13.47-6.49 18.44-11.76-2.46 9.19-6.39 18.48-13.39 25.12-2.77 1.89-5.95 4.08-9.45 3.91-3.68-1.01-7.04-3.8-8.64-7.27zm33.98-12.05c2.28-4.18 5.8-7.49 9.18-10.78.62 4.03 1.15 8.09 1.7 12.14-6.21 6.36-10.69 14.07-15.43 21.52 1.46-7.64 2.69-15.33 4.55-22.88z" style="fill:#fff"/><path d="M481.93 407.79c-6.05-13.08-.56-27.57 4.27-40.07 1.11 5.21.06 11.36 3.06 16.06 3.03 1.86 7 5.52 10.76 3.28 3.91-2.42 6.88-6.05 10.25-9.12-5.71 12.7-14.32 25.62-28.34 29.85zm-346.98-34.24c16.51 11.73 29.25 28.09 39.47 45.41-5.47-2.81-10.88-5.83-16.77-7.72-.09 6.23 1.13 12.33 2.63 18.35-12.92-16.05-23.96-35.03-25.33-56.04zm-37.18 3.46c6.11 4.09 12.33 8.42 16.83 14.34 5.48 8.53 9.65 17.88 12.95 27.46-5.35-.2-11.23-2.41-14.03-7.19-2.25-6.57-2.16-13.83-4.96-20.24-2.83-5.33-6.92-9.8-10.79-14.37zm19.62 2.03c4.85 4.99 9.57 10.14 15.09 14.41.71 5.3 1.53 10.61 2.38 15.9-4.96-4.72-10.15-9.25-14.54-14.5-1.64-5.07-2.33-10.49-2.93-15.81zM504.24 401c3.3-3.73 6.95-7.18 10.59-10.59-.03 5.77.57 11.6-.06 17.37-5.62 5.08-11.97 9.43-16.9 15.25 2.41-7.26 4.04-14.77 6.37-22.03z" style="fill:#fff"/><path d="M462.99 412c3.03-6.07 6.03-12.24 10.2-17.63-.13 6.14-3.56 14.49 2.74 18.73 6.42 4.31 13.11-2.08 19.15-4.34-6.81 7.6-13.62 15.52-22.36 20.97-3.52 2.03-9.34 3.73-11.82-.66-2.1-5.55-.57-11.96 2.09-17.07zm-347.36 5.94c5.42 2.47 10.61 5.45 15.37 9.04 9.2 7.41 14.81 18.13 23.19 26.34-3.37.36-7.1 2.84-10.17.68-8.36-6.83-9.49-18.58-16.6-26.38-3.75-3.45-8.05-6.23-11.79-9.68z" style="fill:#fff"/><path d="M436.2 452.62c.2-14.3 10.75-24.88 19.69-34.78-.57 6.54-5.22 16.05 2.42 19.88 7.84 3.41 14.56-3.26 21.13-6.59-7.64 10.26-19.07 17.37-31.14 21.25-3.88 1.84-8.07.46-12.1.24zm-272.57-32.28c16.62.95 29.95 12.97 39.7 25.5-5.32-.9-10.67-1.72-16.02-2.37-.09 3.53-1.72 7.16-.38 10.59.99 2.92 2.46 5.65 3.82 8.42-12.6-10.97-25.12-24.85-27.12-42.14zm-20.74 2.58c5.16 3.2 10.49 6.15 15.44 9.68 2.47 5.73 4.41 11.73 6.65 17.59-5.32-4.6-11.63-7.78-17.26-11.89-2.28-4.83-3.24-10.26-4.83-15.38zm330.21 21.1c4.27-3.58 9.26-6.19 13.96-9.15-1.85 5.62-3.75 11.21-5.37 16.91-5.34 2.99-10.52 6.25-15.73 9.45 2.35-5.73 3.97-11.86 7.14-17.21z" style="fill:#fff"/><path d="M412.34 474.45c-2.73-15.57 11.2-27.3 21.56-36.66-1.74 6.58-7.45 16.46.74 20.58 6.33.19 12.61-2.42 18.94-3.35-10.73 11.19-25.19 20.1-41.24 19.43zm64.33-12.78c5.25-5 9.91-10.89 16.36-14.44-1.55 6.05-3.14 12.24-6.22 17.71-5.94 6.07-14.4 8.67-21.12 13.73-4.08 2.65-6.68 6.85-9.85 10.41 4.52-10.73 12.61-19.37 20.83-27.41zm-282.95-9.96c3.07-2.29 7.32-1.96 10.92-1.32 12.72 3.53 25.08 9.22 35.03 18.04-6.84-1.01-17.01-4.9-21.3 2.73 1.33 6.75 7.29 11.37 10.8 17.04-12.79-6.93-26.68-14.11-34.76-26.71-1.39-2.83-4.11-7.46-.69-9.78zm-36.85 5.06c15.98 2.86 29.29 14.22 38.11 27.39-4.83.53-10.88 1.94-14.37-2.59-2.87-4.29-5.02-9.02-8.12-13.15-4.21-5.1-10.23-8.02-15.62-11.65zm17.74.15c5.39 1.86 10.93 3.67 15.74 6.79 3.65 3.57 6.12 8.16 8.98 12.36-5.38-1.7-10.91-3.47-15.43-6.96-3.38-3.84-6.48-7.92-9.29-12.19z" style="fill:#fff"/><path d="M380.32 475.29c7.97-8.29 18.19-14.03 28.55-18.81-3.82 6.19-8.17 12.32-8.44 19.91 8.36 1.48 16.89 1.25 25.34 1.13-9.45 9.18-22.76 13.92-35.8 14.31-4.19-.4-9.32-1.21-11.68-5.14-2.31-3.62-.77-8.52 2.03-11.4zm54.32-1.54c6.56-.78 13.2-1.8 19.21-4.68-3.4 4.25-6.42 8.78-9.4 13.35-1.91 2.82-4.04 6.07-8.04 5.96-4.56 1.22-9.08 2.54-13.66 3.66 4.48-5.75 8.55-11.81 11.89-18.29zm-204.26-1.36c14.29-1.31 29.56-.26 42.23 7.13-5.7 1.26-11.52 1.99-17.22 3.27-.27 2.31-1.79 4.98-.34 7.13 3.86 5.25 9.06 9.3 14.02 13.46-11.24-3.26-21.8-8.65-31.84-14.59-4.36-3.05-9.67-6.27-11.01-11.83.24-2.22 1.93-4.18 4.16-4.57z" style="fill:#fff"/><path d="M347.29 487.27c7.42-8.62 18.82-11.98 29.56-14.15-3.09 4.25-6.56 8.27-8.81 13.07-.04 3.75 4.07 4.97 7.04 5.67 6.67 1.26 13.47 1.75 20.16 2.98-11.32 2.81-22.31 7.82-34.24 7.24-5.14-.3-11.16.82-15.59-2.51-3.2-3.65-.95-9.15 1.88-12.3z" style="fill:#fff"/><path d="M306.22 497.2c12.54-9.84 28.53-13.79 44.14-15.09-6.15 4.77-15.3 7.42-17.33 15.82 9.31 4.5 19.58 5.91 29.47 8.53-14.67 3.38-30.05 3.45-44.85.93-4.56-.8-8.99-2.7-12.59-5.59-.12-1.59-.48-3.67 1.16-4.6z" style="fill:#fff"/><path d="M261.96 490.8c14.45-10.37 33.83-8.64 50.27-4.73-7.19 2.03-15.16 4.03-19.07 10.99 4.73 6 11.53 9.36 18.16 12.78-17.61-1.62-37.36-4.54-49.36-19.04zm-49.21-4.02c4.58.66 9.13 1.59 13.55 3.01 3.15 2.71 5.6 6.18 8.28 9.37-9.24.35-15.73-6.52-21.83-12.38zm186.74 8.84c5.86-.48 11.71-1.24 17.54-2.07-4.92 5.14-8.88 11.32-14.52 15.68-6.91 1.07-14 .7-20.97 1.37 6.04-4.91 12.75-9.1 17.95-14.98zm-151.97 6.49c5.49.34 10.98 1 16.36 2.21 3.42 1.4 6 4.25 8.79 6.59-9.71 2.05-17.84-3.38-25.15-8.8zm-24.83 8.1c8.59-1.51 17.51-2.95 26.16-.98 8.49 1.57 16.24 5.58 24.09 8.99-.1.62-.29 1.86-.39 2.48-4.69.15-9.56 1.27-14.17-.13-6.8-2-12.27-7.13-19.27-8.59-5.43-.97-10.96-1.2-16.42-1.77zm115.87 8.34c5.74-2.72 11.43-5.64 17.41-7.75 6.44.11 12.86.91 19.32.79-6.88 3.82-13.45 8.29-20.39 11.89-5.64-.78-10.98-3.05-16.34-4.93zm-43.2-3.91c6.16-.72 13.08-5.02 18.83-1.04 4.26 2.32 8.48 4.75 12.49 7.49-5.86.56-11.63 2.27-17.54 2.24-5.23-1.63-9.4-5.54-13.78-8.69zm69.2 10.88c14.05-7.25 29.69-10.43 45.08-13.39-3.35 4.7-6.17 10.13-10.63 13.84-8.02 1.54-16.39.09-24.47 1.49-8 .71-14.84 5.12-21.85 8.57 3.41-4.05 7.23-7.9 11.87-10.51zm-100.86-1.13c8.22-1.93 16.62-3.58 25.13-3.03 8.01.48 15.5 3.54 22.88 6.42-3.74 2.03-7.56 4.22-11.83 4.83-3.82-.19-7.11-2.6-10.58-3.92-7.88-3.97-16.93-4.62-25.6-4.3zm39.58 12.16c15.29-10.37 35.64-12.15 53.33-8.47-4.41 2.55-8.37 6.78-13.67 7.37-6.32-.73-12.34-3.45-18.8-3.19-7.14.41-13.91 2.85-20.86 4.29z" style="fill:#fff"/></g></svg>