<svg xmlns="http://www.w3.org/2000/svg" id="svg563" version="1.1" color-interpolation-filters="sRGB" xml:space="preserve" viewBox="0 0 516.514 493.304" height="657.738" width="688.683" style="fill:none;fill-rule:evenodd;font-size:12px;overflow:visible;stroke-linecap:square;stroke-miterlimit:3"><style id="style2" type="text/css">.st1,.st2{fill:none;stroke:#000;stroke-linecap:round;stroke-linejoin:round;stroke-width:.75}.st2{stroke:none}.st4{font-size:1em}.st5{stroke:#000;stroke-linecap:round;stroke-linejoin:round;stroke-width:.75}.st6{fill:#000;font-family:Calibri;font-size:1.5em}.st7{fill:none}</style><g transform="translate(-555.499 -786.343)" id="g561"><g transform="translate(727.228 -591.024)" id="group1-1"><g transform="translate(0 -73.477)" id="shape2-2"><path id="path10" class="st1" d="M297.15 1504.12c-1.85-16.28-16.65-29-34.83-29-5.17 0-10.02 1.08-14.44 2.9-8.55-15.99-26.24-27.7-59.46-26.75-43.15 1.23-94.25 20.65-104.52 55.12-12.3 2.35-20.22 9.01-24.95 17.89-1.91-.19-3.85-.31-5.85-.31-28.42 0-50.24 20.73-51.48 46.27-1.62 33.04 23.06 46.27 51.48 46.27 4.07 0 7.99-.46 11.79-1.26 5.9 3.85 13.6 6.21 22.04 6.21 7.8 0 14.98-2.02 20.69-5.4 10.93 18.62 33.43 31.72 59.35 30.18 27.3-1.58 43.68-7.39 53.34-16.38.61-.06 1.17-.06 1.79-.13 30.51-3.92 43.93-11.82 48.25-24.84.8.02 1.62.04 2.43.04 39.58 0 71.63-11.56 71.63-52.05 0-22.49-19.77-41.49-47.26-48.76z"/></g></g><g transform="translate(800.22 -708.661)" id="shape3-4"><path id="rect18" class="st2" d="M0 1605.26h179.696v42.52H0z"/><text id="text22" y="1617.52" x="9.64" style="fill:#000;font-family:Calibri;font-size:2.50001em">Internet with <tspan id="tspan20" class="st4" dy="1.2em" x="15.95">other nodes</tspan></text></g><g transform="translate(743.528 -368.504)" id="shape9-8"><path id="rect27" class="st1" d="M0 1544.31h235.984v103.465H0z"/></g><g transform="translate(908.646 -375.591)" id="group4-10"><g transform="translate(22.276 -14.948)" id="shape5-11"><path id="path34" class="st5" d="M0 1647.78h16.18"/></g><g transform="translate(38.46)" id="shape6-14"><path id="rect39" class="st1" d="M0 1615.79h20.419v31.985H0z"/></g><g transform="translate(11.987 -5.242)" id="shape7-16"><path id="path44" class="st1" d="M6.86 1602.15v26.1l3.48 2.66 3.38-2.66v-2.74h.91v-4.43l-.98-.78v-1.79l.98-.24v-2.7l-1.09-1.22 1.09-.77v-2.27l-.98-.34-.07-2.75 1.05-.28v-2.92l-.91-.55v-2.32a10.29 10.29-180 1 0-6.86 0zm4.63-16.28a1.08 1.08-180 1 0-2.16 0 1.08 1.08-180 1 0 2.16 0zm22.85 57.06h9.96v-.8h-9.96zm0 2.42h9.96v-.8h-9.96zm0 2.43h9.96v-.8h-9.96zm9.75-9.65a1.234 1.234-180 1 0-2.46 0 1.234 1.234-180 1 0 2.46 0z"/></g><g transform="rotate(90 35.75 1632.99)" id="shape8-18"><path id="path49" class="st5" d="M0 1647.78h24.81"/></g></g><g transform="translate(743.528 -375.591)" id="shape10-21"><path id="rect57" class="st2" d="M0 1605.26h159.307v42.52H0z"/><text id="text61" class="st6" y="1621.12" x="7.52">Private Network for <tspan id="tspan59" class="st4" dy="1.2em" x="19.64">slot</tspan>-leader node</text></g><g transform="translate(871.087 -496.063)" id="shape11-25"><path id="rect66" class="st1" d="M0 1562.74h198.425v85.039H0z"/></g><g transform="translate(871.087 -496.063)" id="shape12-27"><path id="rect73" class="st2" d="M0 1619.43h198.425v28.346H0z"/><text id="text75" class="st6" y="1639.01" x="11.7">Production Relay Nodes</text></g><g transform="translate(644.315 -496.063)" id="shape13-30"><path id="rect80" class="st1" d="M0 1562.74h198.425v85.039H0z"/></g><g transform="translate(644.315 -496.063)" id="shape14-32"><path id="rect87" class="st2" d="M0 1619.43h198.425v28.346H0z"/><text id="text89" class="st6" y="1639.01" x="28.84">Staging Relay Node</text></g><g transform="translate(809.942 -471.969)" id="shape15-35"><path id="path94" class="st5" d="m0 1647.78-24.02-24.09"/></g><g transform="translate(909.07 -471.969)" id="shape16-38"><path id="path99" class="st5" d="m0 1647.78 22.15-24.09"/></g><g transform="translate(722.268 -517.323)" id="group17-41"><g transform="translate(13.287 -13.952)" id="shape18-42"><path id="path106" class="st5" d="M0 1647.78h17.93"/></g><g transform="translate(0 -5.29)" id="shape19-45"><path id="path111" class="st1" d="M0 1634.93h27.2v-19.09H0zm31.21 12.85h11.31v-17.71H31.21z"/></g><g transform="translate(0 -8.193)" id="shape20-47"><path id="path116" class="st1" d="M0 1622.31h27.2v-3.57H0zm35.57 25.47h5.52v-.44h-5.52zm0-1.34h5.52v-.45h-5.52zm0-1.35h5.52v-.44h-5.52zm5.4-2.65a.683.683-180 1 0-1.367 0 .683.683-180 1 0 1.367 0z"/></g><g transform="translate(24.757 -34.59)" id="shape21-49"><path id="path121" class="st7" d="m.86 1646.71-.64-.64-.22.21.64.64-.64.64.22.22.64-.64.64.64.21-.22-.64-.64.64-.64-.21-.21z"/></g><g transform="translate(3.274 -20.803)" id="shape22-52"><path id="path126" class="st7" d="M0 1647.78h5.43v-2.75H0zm.07-4.59h5.42v-5.98H.07zm6.68 4.59h13.53v-2.75H6.75z"/><path id="path128" class="st5" d="M0 1647.78h5.43v-2.75H0v2.75"/><path id="path130" class="st5" d="M.07 1643.19h5.42v-5.98H.07v5.98"/><path id="path132" class="st5" d="M6.75 1647.78h13.53v-2.75H6.75v2.75"/><path id="path134" class="st5" d="M7.17 1641.13h13.37"/><path id="path136" class="st5" d="M7.17 1639.48h13.37"/><path id="path138" class="st5" d="M7.17 1637.83h13.37"/><path id="path140" class="st5" d="M7.17 1642.78h5.85"/></g></g><g transform="translate(903.685 -517.323)" id="group23-61"><g transform="translate(13.287 -13.952)" id="shape24-62"><path id="path148" class="st5" d="M0 1647.78h17.93"/></g><g transform="translate(0 -5.29)" id="shape25-65"><path id="path153" class="st1" d="M0 1634.93h27.2v-19.09H0zm31.21 12.85h11.31v-17.71H31.21z"/></g><g transform="translate(0 -8.193)" id="shape26-67"><path id="path158" class="st1" d="M0 1622.31h27.2v-3.57H0zm35.57 25.47h5.52v-.44h-5.52zm0-1.34h5.52v-.45h-5.52zm0-1.35h5.52v-.44h-5.52zm5.4-2.65a.683.683-180 1 0-1.367 0 .683.683-180 1 0 1.367 0z"/></g><g transform="translate(24.757 -34.59)" id="shape27-69"><path id="path163" class="st7" d="m.86 1646.71-.64-.64-.22.21.64.64-.64.64.22.22.64-.64.64.64.21-.22-.64-.64.64-.64-.21-.21z"/></g><g transform="translate(3.274 -20.803)" id="shape28-72"><path id="path168" class="st7" d="M0 1647.78h5.43v-2.75H0zm.07-4.59h5.42v-5.98H.07zm6.68 4.59h13.53v-2.75H6.75z"/><path id="path170" class="st5" d="M0 1647.78h5.43v-2.75H0v2.75"/><path id="path172" class="st5" d="M.07 1643.19h5.42v-5.98H.07v5.98"/><path id="path174" class="st5" d="M6.75 1647.78h13.53v-2.75H6.75v2.75"/><path id="path176" class="st5" d="M7.17 1641.13h13.37"/><path id="path178" class="st5" d="M7.17 1639.48h13.37"/><path id="path180" class="st5" d="M7.17 1637.83h13.37"/><path id="path182" class="st5" d="M7.17 1642.78h5.85"/></g></g><g transform="translate(998.646 -517.323)" id="group29-81"><g transform="translate(13.287 -13.952)" id="shape30-82"><path id="path190" class="st5" d="M0 1647.78h17.93"/></g><g transform="translate(0 -5.29)" id="shape31-85"><path id="path195" class="st1" d="M0 1634.93h27.2v-19.09H0zm31.21 12.85h11.31v-17.71H31.21z"/></g><g transform="translate(0 -8.193)" id="shape32-87"><path id="path200" class="st1" d="M0 1622.31h27.2v-3.57H0zm35.57 25.47h5.52v-.44h-5.52zm0-1.34h5.52v-.45h-5.52zm0-1.35h5.52v-.44h-5.52zm5.4-2.65a.683.683-180 1 0-1.367 0 .683.683-180 1 0 1.367 0z"/></g><g transform="translate(24.757 -34.59)" id="shape33-89"><path id="path205" class="st7" d="m.86 1646.71-.64-.64-.22.21.64.64-.64.64.22.22.64-.64.64.64.21-.22-.64-.64.64-.64-.21-.21z"/></g><g transform="translate(3.274 -20.803)" id="shape34-92"><path id="path210" class="st7" d="M0 1647.78h5.43v-2.75H0zm.07-4.59h5.42v-5.98H.07zm6.68 4.59h13.53v-2.75H6.75z"/><path id="path212" class="st5" d="M0 1647.78h5.43v-2.75H0v2.75"/><path id="path214" class="st5" d="M.07 1643.19h5.42v-5.98H.07v5.98"/><path id="path216" class="st5" d="M6.75 1647.78h13.53v-2.75H6.75v2.75"/><path id="path218" class="st5" d="M7.17 1641.13h13.37"/><path id="path220" class="st5" d="M7.17 1639.48h13.37"/><path id="path222" class="st5" d="M7.17 1637.83h13.37"/><path id="path224" class="st5" d="M7.17 1642.78h5.85"/></g></g><g transform="translate(842.74 -531.496)" id="shape35-101"><path id="path230" class="st5" d="M0 1640.69h28.35"/></g><g transform="translate(773.036 -581.102)" id="shape36-104"><path id="path235" class="st5" d="m0 1647.78 71.43-102.92"/></g><g transform="translate(956.886 -581.102)" id="shape37-107"><path id="path240" class="st5" d="m0 1647.78-28.59-90.62"/></g><g transform="translate(555.874 -609.449)" id="shape38-110"><path id="rect245" class="st1" d="M0 1562.74h159.307v85.039H0z"/></g><g transform="translate(555.874 -609.449)" id="shape39-112"><path id="rect252" class="st2" d="M0 1619.43h159.307v28.346H0z"/><text id="text254" class="st6" y="1639.01" x="9.58">Testing Relay Node</text></g><g transform="translate(614.268 -637.795)" id="group40-115"><g transform="translate(13.287 -13.952)" id="shape41-116"><path id="path261" class="st5" d="M0 1647.78h17.93"/></g><g transform="translate(0 -5.29)" id="shape42-119"><path id="path266" class="st1" d="M0 1634.93h27.2v-19.09H0zm31.21 12.85h11.31v-17.71H31.21z"/></g><g transform="translate(0 -8.193)" id="shape43-121"><path id="path271" class="st1" d="M0 1622.31h27.2v-3.57H0zm35.57 25.47h5.52v-.44h-5.52zm0-1.34h5.52v-.45h-5.52zm0-1.35h5.52v-.44h-5.52zm5.4-2.65a.683.683-180 1 0-1.367 0 .683.683-180 1 0 1.367 0z"/></g><g transform="translate(24.757 -34.59)" id="shape44-123"><path id="path276" class="st7" d="m.86 1646.71-.64-.64-.22.21.64.64-.64.64.22.22.64-.64.64.64.21-.22-.64-.64.64-.64-.21-.21z"/></g><g transform="translate(3.274 -20.803)" id="shape45-126"><path id="path281" class="st7" d="M0 1647.78h5.43v-2.75H0zm.07-4.59h5.42v-5.98H.07zm6.68 4.59h13.53v-2.75H6.75z"/><path id="path283" class="st5" d="M0 1647.78h5.43v-2.75H0v2.75"/><path id="path285" class="st5" d="M.07 1643.19h5.42v-5.98H.07v5.98"/><path id="path287" class="st5" d="M6.75 1647.78h13.53v-2.75H6.75v2.75"/><path id="path289" class="st5" d="M7.17 1641.13h13.37"/><path id="path291" class="st5" d="M7.17 1639.48h13.37"/><path id="path293" class="st5" d="M7.17 1637.83h13.37"/><path id="path295" class="st5" d="M7.17 1642.78h5.85"/></g></g><g transform="translate(703.028 -581.102)" id="shape46-135"><path id="path301" class="st5" d="m0 1647.78-27-28.35"/></g><g transform="translate(715.181 -685.55)" id="shape47-138"><path id="path306" class="st5" d="m0 1647.78 37.06-15.63"/></g><g transform="translate(849.827 -800.787)" id="group48-141"><g transform="translate(13.287 -13.952)" id="shape49-142"><path id="path313" class="st5" d="M0 1647.78h17.93"/></g><g transform="translate(0 -5.29)" id="shape50-145"><path id="path318" class="st1" d="M0 1634.93h27.2v-19.09H0zm31.21 12.85h11.31v-17.71H31.21z"/></g><g transform="translate(0 -8.193)" id="shape51-147"><path id="path323" class="st1" d="M0 1622.31h27.2v-3.57H0zm35.57 25.47h5.52v-.44h-5.52zm0-1.34h5.52v-.45h-5.52zm0-1.35h5.52v-.44h-5.52zm5.4-2.65a.683.683-180 1 0-1.367 0 .683.683-180 1 0 1.367 0z"/></g><g transform="translate(24.757 -34.59)" id="shape52-149"><path id="path328" class="st7" d="m.86 1646.71-.64-.64-.22.21.64.64-.64.64.22.22.64-.64.64.64.21-.22-.64-.64.64-.64-.21-.21z"/></g><g transform="translate(3.274 -20.803)" id="shape53-152"><path id="path333" class="st7" d="M0 1647.78h5.43v-2.75H0zm.07-4.59h5.42v-5.98H.07zm6.68 4.59h13.53v-2.75H6.75z"/><path id="path335" class="st5" d="M0 1647.78h5.43v-2.75H0v2.75"/><path id="path337" class="st5" d="M.07 1643.19h5.42v-5.98H.07v5.98"/><path id="path339" class="st5" d="M6.75 1647.78h13.53v-2.75H6.75v2.75"/><path id="path341" class="st5" d="M7.17 1641.13h13.37"/><path id="path343" class="st5" d="M7.17 1639.48h13.37"/><path id="path345" class="st5" d="M7.17 1637.83h13.37"/><path id="path347" class="st5" d="M7.17 1642.78h5.85"/></g></g><g transform="translate(913.606 -800.787)" id="group54-161"><g transform="translate(13.287 -13.952)" id="shape55-162"><path id="path355" class="st5" d="M0 1647.78h17.93"/></g><g transform="translate(0 -5.29)" id="shape56-165"><path id="path360" class="st1" d="M0 1634.93h27.2v-19.09H0zm31.21 12.85h11.31v-17.71H31.21z"/></g><g transform="translate(0 -8.193)" id="shape57-167"><path id="path365" class="st1" d="M0 1622.31h27.2v-3.57H0zm35.57 25.47h5.52v-.44h-5.52zm0-1.34h5.52v-.45h-5.52zm0-1.35h5.52v-.44h-5.52zm5.4-2.65a.683.683-180 1 0-1.367 0 .683.683-180 1 0 1.367 0z"/></g><g transform="translate(24.757 -34.59)" id="shape58-169"><path id="path370" class="st7" d="m.86 1646.71-.64-.64-.22.21.64.64-.64.64.22.22.64-.64.64.64.21-.22-.64-.64.64-.64-.21-.21z"/></g><g transform="translate(3.274 -20.803)" id="shape59-172"><path id="path375" class="st7" d="M0 1647.78h5.43v-2.75H0zm.07-4.59h5.42v-5.98H.07zm6.68 4.59h13.53v-2.75H6.75z"/><path id="path377" class="st5" d="M0 1647.78h5.43v-2.75H0v2.75"/><path id="path379" class="st5" d="M.07 1643.19h5.42v-5.98H.07v5.98"/><path id="path381" class="st5" d="M6.75 1647.78h13.53v-2.75H6.75v2.75"/><path id="path383" class="st5" d="M7.17 1641.13h13.37"/><path id="path385" class="st5" d="M7.17 1639.48h13.37"/><path id="path387" class="st5" d="M7.17 1637.83h13.37"/><path id="path389" class="st5" d="M7.17 1642.78h5.85"/></g></g><g transform="translate(1012.82 -729.921)" id="group60-181"><g transform="translate(13.287 -13.952)" id="shape61-182"><path id="path397" class="st5" d="M0 1647.78h17.93"/></g><g transform="translate(0 -5.29)" id="shape62-185"><path id="path402" class="st1" d="M0 1634.93h27.2v-19.09H0zm31.21 12.85h11.31v-17.71H31.21z"/></g><g transform="translate(0 -8.193)" id="shape63-187"><path id="path407" class="st1" d="M0 1622.31h27.2v-3.57H0zm35.57 25.47h5.52v-.44h-5.52zm0-1.34h5.52v-.45h-5.52zm0-1.35h5.52v-.44h-5.52zm5.4-2.65a.683.683-180 1 0-1.367 0 .683.683-180 1 0 1.367 0z"/></g><g transform="translate(24.757 -34.59)" id="shape64-189"><path id="path412" class="st7" d="m.86 1646.71-.64-.64-.22.21.64.64-.64.64.22.22.64-.64.64.64.21-.22-.64-.64.64-.64-.21-.21z"/></g><g transform="translate(3.274 -20.803)" id="shape65-192"><path id="path417" class="st7" d="M0 1647.78h5.43v-2.75H0zm.07-4.59h5.42v-5.98H.07zm6.68 4.59h13.53v-2.75H6.75z"/><path id="path419" class="st5" d="M0 1647.78h5.43v-2.75H0v2.75"/><path id="path421" class="st5" d="M.07 1643.19h5.42v-5.98H.07v5.98"/><path id="path423" class="st5" d="M6.75 1647.78h13.53v-2.75H6.75v2.75"/><path id="path425" class="st5" d="M7.17 1641.13h13.37"/><path id="path427" class="st5" d="M7.17 1639.48h13.37"/><path id="path429" class="st5" d="M7.17 1637.83h13.37"/><path id="path431" class="st5" d="M7.17 1642.78h5.85"/></g></g><g transform="translate(977.386 -772.441)" id="group66-201"><g transform="translate(13.287 -13.952)" id="shape67-202"><path id="path439" class="st5" d="M0 1647.78h17.93"/></g><g transform="translate(0 -5.29)" id="shape68-205"><path id="path444" class="st1" d="M0 1634.93h27.2v-19.09H0zm31.21 12.85h11.31v-17.71H31.21z"/></g><g transform="translate(0 -8.193)" id="shape69-207"><path id="path449" class="st1" d="M0 1622.31h27.2v-3.57H0zm35.57 25.47h5.52v-.44h-5.52zm0-1.34h5.52v-.45h-5.52zm0-1.35h5.52v-.44h-5.52zm5.4-2.65a.683.683-180 1 0-1.367 0 .683.683-180 1 0 1.367 0z"/></g><g transform="translate(24.757 -34.59)" id="shape70-209"><path id="path454" class="st7" d="m.86 1646.71-.64-.64-.22.21.64.64-.64.64.22.22.64-.64.64.64.21-.22-.64-.64.64-.64-.21-.21z"/></g><g transform="translate(3.274 -20.803)" id="shape71-212"><path id="path459" class="st7" d="M0 1647.78h5.43v-2.75H0zm.07-4.59h5.42v-5.98H.07zm6.68 4.59h13.53v-2.75H6.75z"/><path id="path461" class="st5" d="M0 1647.78h5.43v-2.75H0v2.75"/><path id="path463" class="st5" d="M.07 1643.19h5.42v-5.98H.07v5.98"/><path id="path465" class="st5" d="M6.75 1647.78h13.53v-2.75H6.75v2.75"/><path id="path467" class="st5" d="M7.17 1641.13h13.37"/><path id="path469" class="st5" d="M7.17 1639.48h13.37"/><path id="path471" class="st5" d="M7.17 1637.83h13.37"/><path id="path473" class="st5" d="M7.17 1642.78h5.85"/></g></g><g transform="translate(821.48 -758.268)" id="group72-221"><g transform="translate(13.287 -13.952)" id="shape73-222"><path id="path481" class="st5" d="M0 1647.78h17.93"/></g><g transform="translate(0 -5.29)" id="shape74-225"><path id="path486" class="st1" d="M0 1634.93h27.2v-19.09H0zm31.21 12.85h11.31v-17.71H31.21z"/></g><g transform="translate(0 -8.193)" id="shape75-227"><path id="path491" class="st1" d="M0 1622.31h27.2v-3.57H0zm35.57 25.47h5.52v-.44h-5.52zm0-1.34h5.52v-.45h-5.52zm0-1.35h5.52v-.44h-5.52zm5.4-2.65a.683.683-180 1 0-1.367 0 .683.683-180 1 0 1.367 0z"/></g><g transform="translate(24.757 -34.59)" id="shape76-229"><path id="path496" class="st7" d="m.86 1646.71-.64-.64-.22.21.64.64-.64.64.22.22.64-.64.64.64.21-.22-.64-.64.64-.64-.21-.21z"/></g><g transform="translate(3.274 -20.803)" id="shape77-232"><path id="path501" class="st7" d="M0 1647.78h5.43v-2.75H0zm.07-4.59h5.42v-5.98H.07zm6.68 4.59h13.53v-2.75H6.75z"/><path id="path503" class="st5" d="M0 1647.78h5.43v-2.75H0v2.75"/><path id="path505" class="st5" d="M.07 1643.19h5.42v-5.98H.07v5.98"/><path id="path507" class="st5" d="M6.75 1647.78h13.53v-2.75H6.75v2.75"/><path id="path509" class="st5" d="M7.17 1641.13h13.37"/><path id="path511" class="st5" d="M7.17 1639.48h13.37"/><path id="path513" class="st5" d="M7.17 1637.83h13.37"/><path id="path515" class="st5" d="M7.17 1642.78h5.85"/></g></g><g transform="translate(899.433 -758.268)" id="group78-241"><g transform="translate(13.287 -13.952)" id="shape79-242"><path id="path523" class="st5" d="M0 1647.78h17.93"/></g><g transform="translate(0 -5.29)" id="shape80-245"><path id="path528" class="st1" d="M0 1634.93h27.2v-19.09H0zm31.21 12.85h11.31v-17.71H31.21z"/></g><g transform="translate(0 -8.193)" id="shape81-247"><path id="path533" class="st1" d="M0 1622.31h27.2v-3.57H0zm35.57 25.47h5.52v-.44h-5.52zm0-1.34h5.52v-.45h-5.52zm0-1.35h5.52v-.44h-5.52zm5.4-2.65a.683.683-180 1 0-1.367 0 .683.683-180 1 0 1.367 0z"/></g><g transform="translate(24.757 -34.59)" id="shape82-249"><path id="path538" class="st7" d="m.86 1646.71-.64-.64-.22.21.64.64-.64.64.22.22.64-.64.64.64.21-.22-.64-.64.64-.64-.21-.21z"/></g><g transform="translate(3.274 -20.803)" id="shape83-252"><path id="path543" class="st7" d="M0 1647.78h5.43v-2.75H0zm.07-4.59h5.42v-5.98H.07zm6.68 4.59h13.53v-2.75H6.75z"/><path id="path545" class="st5" d="M0 1647.78h5.43v-2.75H0v2.75"/><path id="path547" class="st5" d="M.07 1643.19h5.42v-5.98H.07v5.98"/><path id="path549" class="st5" d="M6.75 1647.78h13.53v-2.75H6.75v2.75"/><path id="path551" class="st5" d="M7.17 1641.13h13.37"/><path id="path553" class="st5" d="M7.17 1639.48h13.37"/><path id="path555" class="st5" d="M7.17 1637.83h13.37"/><path id="path557" class="st5" d="M7.17 1642.78h5.85"/></g></g></g></svg>