<svg version="1.2" baseProfile="tiny" xmlns="http://www.w3.org/2000/svg" viewBox="0 0 1066.5 187.2" xml:space="preserve"><g fill="#FFF"><path d="M61.4 131.3C37.9 114.5 19.3 94.2 9 74.2c-10.5-20.3-11.8-39-3.6-52.7C14.5 6.4 34.1-1.2 60.6.2c26.3 1.4 56.3 11.5 84.5 28.4 40.4 24.3 70.3 59.3 76.1 89.3l-1.5.3c-5.8-29.6-35.4-64.2-75.4-88.3C116.3 13 86.6 3 60.5 1.7c-25.9-1.4-45 6-53.9 20.7-7.9 13.1-6.6 31.3 3.7 51.1s28.7 39.8 52 56.5l-.9 1.3z"/><path d="M56.1 172.5c-20.6 0-36.9-6.4-44.8-19.5-17-28.3 12.3-77.3 65.3-109.1 38-22.8 79.7-31.6 106.2-22.3l-.5 1.4c-26.1-9.1-67.3-.4-104.9 22.2C25 76.6-4 124.6 12.6 152.2c16.6 27.6 72.6 24.5 124.9-6.9 13.2-7.9 25.2-17.1 35.5-27.1l1 1.1c-10.4 10.1-22.5 19.3-35.8 27.3-28.5 17.1-58.1 25.9-82.1 25.9z"/><path d="M41.2 172.3c.4.6.8 1.3 1.3 1.9-.1-.4-.2-.8-.1-1.4-.1-.5-.6-.4-1.2-.5m2.6 3.6.3.3c.1 0 .3.1.4.1-.2-.1-.5-.3-.7-.4m1.8 1c.3.5.8.9 1.6 1.2-.5-.5-1.1-.9-1.6-1.2m-.4-1.2c-.1.3-.2.6-.5.6h-.2l1.1.6c-.3-.4-.4-.8-.4-1.2m0-1c-.1.3-.1.7-.1 1 .1-.4.1-.8.1-1m.3-8.4c.1.9.3 1.8.6 2.8.1.7 1 1 2 1.1 1 .2 2.2.2 3 .6.4 0-1.1 1.6-.4 1.6 1.5.5 3 .4 4.1 1.1.3 0 .4.6.5 1.2.1.6.2 1.2.6 1.2h.5c.9 0 2.1-.2 3-.5 1.1-.4 1.6-.9.7-1.2-1.5-.5-2.7-.8-3.9-1.2-1.2-.4-2.3-.9-3.5-1.5-2.2-.7-4.5-1.6-6.5-3.2-.4-.7-.5-1.3-.7-2M38.8 156c-.6.1-1.3.1-1.5.7.3.4.8 1.1.8 1.1-1.4 1.8-.5 3.6.5 5.1.3-.3.6-.7.9-1-.2-.4-.4-.7-.6-.7-.2 0-.4.1-.5.4.7-2.1.7-3.8.4-5.6m-.1-1.1.1 1.1h.2c-.1-.4-.2-.8-.3-1.1"/><path d="M200.6 110.6c-1.4 0-2.5.2-2.6.2-2.2.6-3.7 1.1-4.8 1.9-1.1.7-1.8 1.6-2.5 2.6s-1.4 2.2-2.5 3.4c-.9 1.1-2.2 2.2-3.9 3.2.5-.2.8-.3 1.1-.3.3 0 .5.1.6.3.3.4.2 1.4-.4 2.6-1.2 2.3-4.3 5.2-8.2 5.6-2.9.3-5.2 1.1-7.2 2.4-2 1.3-3.8 3-5.5 4.8-3.5 3.7-7 7.9-11.7 10-2.3 1-4.3 2.8-7 4.3-7.3 3-13.8 6.6-20.6 10-6.7 3.4-13.8 6.7-21.8 8.3-4.1 1-7.4 3.6-10.9 5.2-.8.2-1.7.3-2.6.3-.8 0-1.6-.1-2.4-.1-.8-.1-1.5-.1-2.2-.1h-.4c-3.3.2-6.1.9-8.9 1.7 3.1-.2 5.3-.8 8.7-1.3h.2c.8 0 .5.7-.3 1.4-.8.8-2.2 1.7-3 2-.1 0-.1.1-.2.1-.3 0-.7-.4-1-.8-.3-.4-.7-.8-1-.8-.1 0-.1 0-.2.1-1.4 0-2.7.9-4.3 1.4-.1 0-.1.1-.2.1-.2 0-.3-.4-.4-.8-.1-.4-.1-.8-.2-.8-1 .2-2 .9-3 1.4-.7.4-1.3.7-1.8.7-.2 0-.4 0-.6-.2-1-.5-1.8-1-2.6-1.5-.5-.2-1-.5-1.6-.5-.4.1-.8.2-1.2.2-1.2.2-2.5.3-3.9.3-1.9 0-3.8-.2-5.6-.6l-.1.2c1.6.7 3 1.5 4.3 3.2-.3-.5-.1-.9.4-.9h.4l.3 1.2h-.2c-1.7 0-3.4-.2-4.1-2.2 0 0-.8.1-1.3.2-.3-.5 0-1.1.2-1.6-.3-.1-.7-.3-1-.4 0 .6.4 1.6.8 2.3.4.8.8 1.3.8 1.3 4.4 2 8.8 3.3 13.2 4.3.3-.3.6-.6.8-.6.1 0 .2 0 .3.1.3.4.6.7.9.9l1.9.4c.2 0 .5-.1.7-.1l-.3.2c1.5.2 2.9.5 4.4.6.3 0 .7-.1.9-.1.5-.1 1-.2 1.4-.2.5 0 1 .2 1.4.7l.8.1-.2-.2c.1.1.2.1.3.2 1.1.1 2.3.1 3.4.2 1.2 0 2.4.1 3.7.1h3.1c7.4-.1 14.5-1.4 21.4-3.1 7-1.8 13.8-4.1 21-6.7 7.8-2.8 15.3-5.8 22.8-9 7.4-3.2 13.6-7.8 19.6-12.7 3-2.4 6-4.9 9.2-7.4 3.2-2.5 6.5-5 10.2-7.5 2.8-2 5.8-5.8 8.3-10.1 2.5-4.2 4.3-9 5.3-12.3 0-2.5-.9-4.3-2-5.4-1.1-1.2-2.5-1.7-3.9-2-.5-.4-1.6-.4-2.5-.4M63.7 179.9c.1-.6.2-1.2.2-1.7 0 .5-.1 1.1-.2 1.7-.5-.3-1.1-.9-1.6-1.2.5.2 1.1.9 1.6 1.2m22.5 4.5c.1 0 .1 0 0 0 .3-.3.5-.6.8-.6-.2 0-.5.3-.8.6.1 0 .1 0 0 0m2.9 1.2c-.7-.6-1.3-1.2-1.8-1.6l-.2-.2c.1 0 .1.1.2.2.6.4 1.2 1 1.8 1.6m-16.3.1c.4-.2.3-.6.1-.9-.2-.2-.4-.5-.6-.8.1.2.4.5.6.8.3.3.6.5 1 .7-.4.1-.7.1-1.1.2m12.1-1.4c-.1 0-.1 0 0 0-.1 0-.1 0 0 0m.6.6c-.2 0-.4-.2-.6-.6.2.4.4.6.6.6m3.6.7c.3-.2.7-.2 1.1-.2.8 0 1.7.3 2.5.9-.4.4-.9.5-1.3.5-.7 0-1.5-.5-2.3-1.2m-14.3-.2h.5c.6 0 1.1.2 1.5.8-1.2-.2-2.5-.3-3.7-.6.3 0 .7 0 .9-.1h.1s-.1 0-.1-.1c.2.1.5 0 .8 0m109.5-63.5c-.2.1-.5.3-.8.4.3-.1.5-.3.8-.4M58.6 180.7c0 .1.1.1.2.2-.1-.1-.2-.1-.2-.2"/><path d="M75.3 185.4h-.5c-.2 0-.5.1-.7.1H74c-.3 0-.6.1-.9.1 1.2.2 2.5.4 3.7.6-.4-.6-.9-.8-1.5-.8M166.5 33c-4.5 0-7.9.4-9.4.7-2.4.6-4.6 1.8-6.8 3.1-2.2 1.2-4.3 2.5-6.9 3.3-1.7.5-3.4.2-4.5 1.2 0 .4-.5.9-1.1 1.4-3.3 1.2-7.3.7-9.3 2.8-.2.1-.4.2-.7.2-1.1 0-2.9-.7-4.6-1.4-1.6-.6-3.1-1.2-3.8-1.2-.2 0-.4.1-.3.3.3 2.2.4 2.7 0 2.7-.2 0-.4-.1-.8-.2s-.8-.2-1.4-.2c-.6 0-1.2.1-2 .3-.6.1-1.3 2.6-2.4 2.8-3.9.4-4.1 2.3-7.6 4.6-2.4 2-4.2 2.6-5.9 3.2-1.7.7-3.2 1.5-4.7 4.1-.2.3-1.8 1.9-3.3 3.5-1.5 1.6-3 3.1-3 3.1-2.9 1.6-4.7 3.5-6.6 5-1.9 1.5-3.9 2.7-7.1 3-1.2 2.9-3.9 4.9-6.8 7-2.9 2-6 4-7.9 6.5-1.9 2.5-3.7 3.8-5.7 5.1-2 1.2-4.3 2.2-6.9 4.1-1.2 1.2-1.7 2.3-2.8 2.8-1.2.5-.5 3.4-1.6 4.7l-1.1-.9c-.4.4-1.1 1.4-1.5 1.8-.1.2-.3.2-.4.2-.2 0-.5-.2-.7-.4-.5-.4-1-.8-1.7-.8-.3 0-.6.1-1 .3-1.8 2-3.4 4.2-4.7 6.7-.2 2.8 0 5.6.4 8.4.6.2 1.3.5 1.7.9.2.8.5 1.6.8 2.4 1.4.6 3 .5 3.9.9 2 .1 4 1 6 1.6 1.6.5 3.1.9 4.6.9.4 0 .7 0 1.1-.1.5-.1.9-.9 1.5-1.8.5-.9 1.3-1.9 2.3-2.4h.2c.7 0 1.8.7 3 1.1.1-.8.7-1.1 1.3-1.1.5 0 1.2.2 1.7.6l.4-.6c.5.2 1.8.6 1.8.6 1.2-1.5 3.1-2.9 4.6-4.4 1.5-1.5 2.8-3 2.9-5 .2-.8 0-2.5-.1-3.6 0-.6 1.3-1.1 1.6-1.3-.7-1.2-2.1-1.9-3.1-2.8 1.6-1 4-2.5 5.5-4s2.3-3.2.2-4.6c2.1-1.9.7-3.7 2.7-5.9 2.6-3 6.3-6.5 10.3-9.7 2-1.9 4.3-3.4 6.6-4.9.8-.6 1.7-1.1 2.5-1.7 8.6-5.7 17.2-9.1 25.7-12.3 4.2-1.6 8.5-3.1 12.8-4.7 4.3-1.6 8.8-3.4 13.5-5.5 9.3-4 19.9-6.3 30.1-6.3h.8c5.2.1 10.2.7 14.8 1.9 4.6 1.2 8.6 3 11.8 5.2 3.2 2.2 5.3 4.8 6.5 7.2 1.2 2.5 1.6 4.9 1.5 6.9a20 20 0 0 1-1 5.4c-.5 1.5-1 2.7-1.3 3.5.5.8.9 1.6 1.3 2.4 1.4-.9 2.8-2.8 3.7-5.1.9-2.4 1.3-5.2.8-8.1-.4-2.9-1.7-5.8-3.5-8.1-1.8-2.4-3.9-4.3-5.7-5.8-2.9-2-5.4-3.4-7.3-4.5-.3-.2-.4-.2-.3-.2.1 0 .7.2 1.6.7 1.4.7 3.8 2.1 6 4 2.2 1.6 4.5 3.5 6.4 6.2-.6-2.1-1.6-4.2-2.9-6.1-1.2-1.9-2.6-3.6-3.9-4.9-2.4-1.2-4.9-2.3-7.5-3.2-5.8-2-11.9-2.9-17.9-3.4-3.8-.3-7.5-.4-11.3-.4-2.3 0-4.6 0-6.9.1-2.2 0-5.8.4-9.3.8-3.5.4-7 1-9.2 1 8.8-1.9 17.8-3.1 26.9-3.3h3c8.1 0 16.3.8 24.2 3.1-.5-.2-.9-.4-1.4-.7-4.7-1.4-9.5-2.4-14.3-2.9-4.5-.5-9-.8-13.5-.8H169c-1.4.1-2.8.1-4.3.1h-.7c1.7-.1 3.4-.1 5-.1 3.9-.2 7.7-.7 12-.7h1.3c3 .2 6.3 1.2 9.2 1.7 2.4.5 4.4 1.6 6.4 2.7 1.4.4 2.8.9 4.1 1.4.4.1.9.1 1.3.3v-.1c-.5-1.1-3.1-3-7-4.7-3.9-1.8-9.2-3.3-14.6-4.3s-11-1.4-15.6-1.4c.5.1.4.1.4.1m865 31c0 9.5-2.6 16.1-7.8 19.7-5.2 3.6-13.4 5.4-24.6 5.4-.9 0-2.2 0-4-.1-1.8-.1-3.7-.1-5.6-.2-1.9-.1-3.8-.1-5.6-.2-1.8-.1-3.1-.1-4-.1V39.8c1-.1 2.3-.2 4-.3 1.7-.1 3.4-.1 5.3-.2s3.7-.1 5.5-.2c1.8-.1 3.3-.1 4.4-.1 10.8 0 18.9 1.8 24.3 5.4 5.4 3.6 8.1 9.5 8.1 17.7V64zm34.5 107.1-33.9-63.1c9-3.5 16.1-8.8 21.4-16 5.3-7.2 7.9-16.6 7.9-28.1V62c0-9.2-1.7-17-5.1-23.2-3.4-6.3-7.9-11.3-13.6-15-5.7-3.7-12.3-6.4-19.8-8.1-7.5-1.7-15.4-2.5-23.8-2.5-7.9 0-15.6.3-22.9.8-7.4.5-13.9 1.2-19.5 2.1-2.2.3-3.9.9-5.1 1.8-1.2.9-1.8 2.5-1.8 4.6v148.6c0 1.2.4 2.2 1.3 3 .9.9 1.9 1.3 3 1.3h21.6c1.1 0 2.1-.4 2.9-1.3.8-.9 1.2-1.9 1.2-3v-58.3c2.4.1 5.5.3 9.3.5 3.7.2 7.1.3 9.9.3h3l31.1 57.5c.6 1.2 1.2 2.2 1.7 3 .6.9 1.4 1.3 2.6 1.3h26.4c1.7 0 2.6-.9 2.6-2.6.1-.7-.1-1.3-.4-1.7M908.8 116V19c0-1.2-.4-2.1-1.3-2.9-.9-.8-1.9-1.2-3-1.2h-21.4c-1.2 0-2.2.4-3 1.2-.9.8-1.3 1.8-1.3 2.9v97.1c0 6.2-.4 11.6-1.3 16.1-.9 4.5-2.4 8.3-4.6 11.4-2.2 3-5.3 5.3-9.1 6.7-3.8 1.4-8.6 2.2-14.4 2.2-5.9 0-10.7-.7-14.5-2.2-3.8-1.4-6.7-3.7-9-6.7-2.2-3-3.8-6.8-4.6-11.4-.9-4.5-1.3-9.9-1.3-16.1v-97c0-1.2-.4-2.1-1.3-2.9-.9-.8-1.9-1.2-3-1.2h-21.4c-1.2 0-2.2.4-3 1.2-.9.8-1.3 1.8-1.3 2.9v97c0 11.5 1.5 21.2 4.4 28.9 2.9 7.8 7.1 14 12.3 18.8 5.3 4.8 11.5 8.2 18.8 10.3 7.3 2.1 15.2 3.1 23.9 3.1 8.6 0 16.6-1.1 23.9-3.1 7.3-2.1 13.5-5.5 18.8-10.3 5.3-4.8 9.4-11 12.3-18.8 2.9-7.8 4.4-17.4 4.4-29m-140.2 53.6v-13.8c0-1.2-.4-2.2-1.3-3-.9-.9-1.9-1.3-3-1.3h-39.7c-6.3 0-10.7-1.3-13.2-3.9-2.4-2.6-3.7-7.5-3.7-14.7V19.3c0-1.2-.4-2.2-1.3-3-.9-.9-1.9-1.3-3-1.3H682c-1.2 0-2.2.4-3 1.3-.9.9-1.3 1.9-1.3 3v113.6c0 9.2 1.3 16.7 3.9 22.5 2.6 5.8 6.1 10.3 10.6 13.5 4.5 3.2 9.7 5.4 15.8 6.6 6 1.2 12.6 1.7 19.7 1.7 2.9 0 6.1-.1 9.7-.2 3.6-.1 7.1-.4 10.6-.6 3.5-.3 6.7-.6 9.6-1 3-.4 5.2-.8 6.8-1.2 1.6-.3 2.7-.7 3.3-1.3.6-.6.9-1.7.9-3.3M613.9 64c0 9.5-2.6 16.1-7.8 19.7-5.2 3.6-13.4 5.4-24.6 5.4-.9 0-2.2 0-4-.1-1.8-.1-3.7-.1-5.6-.2-1.9-.1-3.8-.1-5.6-.2-1.8-.1-3.1-.1-4-.1V39.8c1-.1 2.3-.2 4-.3 1.7-.1 3.4-.1 5.3-.2s3.7-.1 5.5-.2c1.8-.1 3.3-.1 4.4-.1 10.8 0 18.9 1.8 24.3 5.4 5.4 3.6 8.1 9.5 8.1 17.7V64zm34.6 107.1L614.6 108c9-3.5 16.1-8.8 21.4-16 5.3-7.2 7.9-16.6 7.9-28.1V62c0-9.2-1.7-17-5.1-23.2-3.4-6.3-7.9-11.3-13.6-15-5.7-3.7-12.3-6.4-19.8-8.1-7.5-1.7-15.4-2.5-23.8-2.5-7.9 0-15.6.3-22.9.8-7.4.5-13.9 1.2-19.5 2.1-2.2.3-3.9.9-5.1 1.8-1.2.9-1.8 2.5-1.8 4.6v148.6c0 1.2.4 2.2 1.3 3 .9.9 1.9 1.3 3 1.3h21.6c1.2 0 2.1-.4 2.9-1.3.8-.9 1.2-1.9 1.2-3v-58.3c2.4.1 5.5.3 9.3.5 3.7.2 7.1.3 9.9.3h3l31.1 57.5c.6 1.2 1.2 2.2 1.7 3 .6.9 1.4 1.3 2.6 1.3h26.4c1.7 0 2.6-.9 2.6-2.6 0-.7-.1-1.3-.4-1.7m-154.9-1.5v-13.8c0-1.2-.4-2.2-1.3-3-.9-.9-1.9-1.3-3-1.3h-44.1c-6.3 0-10.8-1.3-13.3-3.9-2.5-2.6-3.8-7.5-3.8-14.7V105h58.5c1.1 0 2.2-.4 3-1.3.9-.9 1.3-1.9 1.3-3V85.1c0-1.1-.4-2.2-1.3-3-.9-.9-1.9-1.3-3-1.3h-58.5V57.5c0-7.2 1.3-12.1 3.8-14.7 2.5-2.6 6.9-3.9 13.3-3.9h44.1c1.1 0 2.2-.4 3-1.3.9-.9 1.3-1.9 1.3-3V20.8c0-1.6-.3-2.7-1-3.2-.6-.6-1.8-1-3.3-1.3-1.7-.3-3.6-.6-5.7-1s-4.7-.7-7.8-1c-3.1-.3-6.8-.5-11.2-.8-4.4-.2-9.8-.3-16.3-.3-7.1 0-13.6.6-19.7 1.7-6.1 1.2-11.3 3.3-15.8 6.6-4.5 3.2-8.1 7.7-10.7 13.5-2.6 5.8-3.9 13.2-3.9 22.5v75.4c0 9.2 1.3 16.7 3.9 22.5 2.6 5.8 6.2 10.3 10.7 13.5 4.5 3.2 9.8 5.4 15.8 6.6 6.1 1.2 12.6 1.7 19.7 1.7 6.5 0 11.9-.1 16.3-.3 4.4-.2 8.1-.5 11.2-.8 3.1-.3 5.7-.6 7.8-1 2.1-.4 4-.7 5.7-1 1.6-.3 2.7-.7 3.3-1.3.7-.5 1-1.6 1-3.2M334.9 64.9c0 8.7-2.5 15.2-7.5 19.5-5 4.3-13.3 6.5-24.9 6.5-.9 0-2.2 0-4-.1-1.8-.1-3.7-.1-5.6-.2-1.9-.1-3.8-.1-5.6-.2-1.8-.1-3.1-.1-4-.1V38.7c1-.1 2.3-.3 4-.3 1.7-.1 3.4-.1 5.3-.2s3.7-.1 5.5-.2c1.8-.1 3.3-.1 4.4-.1 10.8 0 18.9 1.9 24.3 5.7 5.4 3.8 8.1 10.3 8.1 19.4v1.9zm30-1.8c0-9.5-1.7-17.5-5.1-23.9-3.4-6.4-7.9-11.6-13.6-15.4-5.7-3.9-12.3-6.6-19.8-8.2-7.5-1.6-15.4-2.4-23.8-2.4-7.9 0-15.6.3-22.9.8-7.4.5-13.9 1.2-19.5 2.1-2.2.3-3.9.9-5.1 1.8-1.2.9-1.8 2.5-1.8 4.6v148.6c0 1.2.4 2.2 1.3 3 .9.9 1.9 1.3 3 1.3h21.6c1.2 0 2.1-.4 2.9-1.3.8-.9 1.2-1.9 1.2-3v-56.4c2.5.1 5.6.3 9.3.5 3.8.2 7.1.3 10 .3 8.4 0 16.3-.8 23.8-2.5s14.1-4.5 19.8-8.4c5.7-4 10.3-9.2 13.6-15.7 3.4-6.5 5.1-14.5 5.1-24v-1.8z"/></g></svg>