<svg xml:space="preserve" width="294.932" height="338.747" xmlns="http://www.w3.org/2000/svg"><defs><clipPath clipPathUnits="userSpaceOnUse" id="a"><path d="M0 254.06h221.199V0H0z"/></clipPath></defs><g clip-path="url(#a)" transform="matrix(1.33333 0 0 -1.33333 0 338.747)"><g style="fill:#fff"><path d="M0 0c-23.44 16.827-42.056 37.089-52.419 57.054-10.541 20.307-11.824 39.017-3.613 52.684C-46.91 124.92-27.3 132.516-.807 131.13c26.32-1.379 56.336-11.464 84.519-28.398 40.392-24.27 70.267-59.303 76.11-89.252l-1.473-.287c-5.765 29.551-35.365 64.193-75.41 88.253-27.976 16.81-57.746 26.82-83.825 28.186-25.913 1.359-45.038-5.983-53.86-20.666-7.933-13.203-6.634-31.394 3.658-51.22C-40.831 37.985-22.377 17.91.875 1.219z" style="fill:#fff;fill-opacity:1;fill-rule:nonzero;stroke:none" transform="translate(61.377 122.77)"/></g><g style="fill:#fff"><path d="M0 0c-20.562-.002-36.923 6.426-44.779 19.499-17.016 28.323 12.261 77.275 65.264 109.123 37.995 22.829 79.684 31.588 106.201 22.321l-.494-1.416c-26.118 9.128-67.305.419-104.935-22.191-52.294-31.422-81.341-79.45-64.75-107.064C-26.902-7.342 29.143-4.241 81.438 27.181c13.225 7.946 25.177 17.052 35.522 27.065l1.043-1.078C107.576 43.076 95.534 33.9 82.211 25.895 53.674 8.748 23.981.001 0 0" style="fill:#fff;fill-opacity:1;fill-rule:nonzero;stroke:none" transform="translate(56.07 81.581)"/></g><path d="M0 0c.41-.636.848-1.264 1.307-1.876-.128.39-.174.835-.104 1.361C1.109.018.572-.063 0 0" style="fill:#4dc196;fill-opacity:1;fill-rule:nonzero;stroke:none" transform="translate(41.204 81.717)"/><path d="M0 0c.088-.107.18-.211.268-.306C.4-.35.53-.389.652-.417.429-.287.206-.15 0 0" style="fill:#4dc196;fill-opacity:1;fill-rule:nonzero;stroke:none" transform="translate(43.84 78.19)"/><path d="M0 0c.306-.499.806-.944 1.57-1.227C1.11-.707.568-.333 0 0" style="fill:#4dc196;fill-opacity:1;fill-rule:nonzero;stroke:none" transform="translate(45.559 77.162)"/><path d="M0 0c-.051-.336-.169-.624-.499-.624a.778.778 0 0 0-.17.022l-.016.007 1.066-.61A2.743 2.743 0 0 0 0 0" style="fill:#4dc196;fill-opacity:1;fill-rule:nonzero;stroke:none" transform="translate(45.177 78.367)"/><path d="M0 0a3.933 3.933 0 0 1-.057-1c.056.356.021.776.057 1m.008.04L0 0l.008.04" style="fill:#4dc196;fill-opacity:1;fill-rule:nonzero;stroke:none" transform="translate(45.234 79.368)"/><path d="M0 0c.099-.88.26-1.79.569-2.768.132-.698 1.022-.961 2.049-1.107 1.034-.153 2.188-.19 3.028-.627.375-.019-1.146-1.551-.356-1.603 1.504-.489 3.031-.392 4.126-1.075l.04.002c.345 0 .414-.575.512-1.16.093-.575.215-1.157.568-1.157a.36.36 0 0 1 .056.004c.124-.015.266-.022.422-.022.856 0 2.119.208 3.021.548 1.071.399 1.647.909.669 1.238-1.492.458-2.719.831-3.888 1.244-1.166.414-2.282.862-3.456 1.547C5.117-4.24 2.838-3.361.82-1.767.356-1.257.171-.621 0 0" style="fill:#4dc196;fill-opacity:1;fill-rule:nonzero;stroke:none" transform="translate(45.486 87.713)"/><path d="M0 0c-.587-.132-1.27-.12-1.549-.687a38.24 38.24 0 0 1 .798-1.061c-1.432-1.768-.524-3.565.512-5.07.285.334.576.664.87.989-.164.446-.398.677-.628.677-.182 0-.36-.146-.496-.443C.254-3.477.259-1.804 0 0" style="fill:#4dc196;fill-opacity:1;fill-rule:nonzero;stroke:none" transform="translate(38.836 98.059)"/><path d="m0 0-.052-.039.185-1.102c.062.01.122.029.187.044A23.71 23.71 0 0 0 0 0" style="fill:#4dc196;fill-opacity:1;fill-rule:nonzero;stroke:none" transform="translate(38.703 99.2)"/><g style="fill:#fff"><path d="M0 0c.042-.068.093-.141.153-.215C.102-.142.051-.069 0 0m125.665 58.801a7.766 7.766 0 0 1-.753-.432c.261.142.512.287.753.432M16.185-4.749c.165.02.326.032.483.032.591 0 1.109-.178 1.469-.809a83.405 83.405 0 0 0-3.704.556c.346.021.67.038.936.087l.093.017a1.48 1.48 0 0 0-.131.051c.28.038.566.064.854.066m14.362-.188c.342.157.725.235 1.129.235.801 0 1.687-.307 2.506-.903-.435-.368-.872-.519-1.303-.519-.819 0-1.614.544-2.332 1.187m-3.625.721h.013-.013m-.01 0c-.198.005-.405.16-.624.574.219-.414.426-.569.624-.574m-.632.588-.008.017.008-.017m-.023.044-.007.017.007-.017M14.211-5.008l.019.01c.389.206.311.544.122.879-.225.249-.423.54-.583.839.102-.19.396-.512.583-.839.274-.297.592-.546.979-.696-.382-.058-.75-.125-1.12-.193m16.336.071c-.659.583-1.256 1.244-1.791 1.645a.581.581 0 0 1 0 0c.535-.401 1.132-1.062 1.791-1.645m-1.983 1.812a.049.049 0 0 0-.007.003l.007-.003m-.913-.58.044.052c.247.28.487.561.729.561-.242 0-.481-.281-.729-.561l-.044-.052M5.11.817c.088.591.172 1.177.171 1.728.001-.551-.083-1.137-.171-1.728-.519.261-1.14.939-1.628 1.223.488-.284 1.109-.962 1.628-1.223m136.875 69.32c-1.411 0-2.454-.17-2.636-.22-2.232-.566-3.704-1.148-4.797-1.875-1.092-.723-1.805-1.585-2.513-2.597-.707-1.01-1.415-2.17-2.484-3.397a16.175 16.175 0 0 0-3.89-3.247c.454.224.822.328 1.107.328.276 0 .475-.096.604-.272.331-.447.189-1.423-.407-2.566-1.167-2.293-4.254-5.188-8.158-5.613-2.894-.251-5.177-1.118-7.192-2.4-2.012-1.277-3.756-2.967-5.495-4.8-3.454-3.652-6.986-7.911-11.698-9.98-2.341-1.023-4.322-2.815-6.95-4.282-7.317-2.957-13.803-6.558-20.571-9.994-6.744-3.413-13.831-6.657-21.761-8.271-4.125-1.024-7.406-3.645-10.884-5.218-.841-.235-1.715-.312-2.584-.312-.817 0-1.628.068-2.403.137-.776.067-1.515.135-2.185.135-.15 0-.296-.004-.439-.01-3.311-.199-6.113-.928-8.894-1.706 3.069.225 5.306.788 8.705 1.273.091.01.172.016.245.016.833 0 .479-.658-.297-1.417-.841-.824-2.201-1.738-2.981-2.048a.33.33 0 0 0-.201-.067c-.301 0-.651.385-.998.769-.347.386-.691.77-.982.77a.308.308 0 0 1-.186-.062h-.045c-1.4 0-2.725-.896-4.299-1.38a.332.332 0 0 0-.17-.057c-.231 0-.312.391-.366.783-.053.39-.08.781-.204.781a.086.086 0 0 1-.044-.015c-1.042-.153-2.035-.854-2.953-1.412-.66-.404-1.28-.735-1.805-.735-.2 0-.388.049-.558.159-.954.484-1.782.986-2.56 1.498-.513.238-1.019.454-1.599.522a26.934 26.934 0 0 0-1.213-.226 24.61 24.61 0 0 0-3.857-.296c-1.87 0-3.792.197-5.609.602l-.059-.186C-2.672 2.597-1.28 1.755 0 0c-.312.515-.125.869.411.869C.523.869.65.855.792.821l.297-1.248-.242-.001c-1.679 0-3.421.217-4.084 2.197.002-.001-.848-.112-1.278-.152-.32.508.042 1.084.234 1.632-.324.135-.66.258-1 .382.033-.647.409-1.568.816-2.32.403-.754.823-1.336.823-1.335C.776-2.056 5.171-3.35 9.532-4.32c.312.269.566.584.849.584a.47.47 0 0 0 .285-.11c.282-.421.595-.703.918-.905l1.924-.351c.231.024.465.058.703.094l-.336-.159a97.47 97.47 0 0 1 4.428-.636c.345.043.673.074.941.139.491.112.975.229 1.42.229.542 0 1.025-.173 1.389-.743l.801-.064c-.05.066-.104.118-.155.191.119-.064.22-.133.302-.199 1.125-.078 2.258-.138 3.397-.181a98.03 98.03 0 0 1 6.775-.019c7.418.145 14.483 1.352 21.438 3.093C61.574-1.604 68.444.694 75.659 3.355a411.99 411.99 0 0 1 22.76 8.999c7.406 3.194 13.572 7.837 19.588 12.67 3.015 2.426 6.005 4.912 9.166 7.398a187.106 187.106 0 0 0 10.237 7.538c2.804 2.016 5.831 5.814 8.264 10.081 2.46 4.246 4.258 8.968 5.334 12.314-.047 2.517-.859 4.272-1.974 5.43-1.12 1.161-2.544 1.747-3.933 2.049-1.105.229-2.19.303-3.116.303" style="fill:#fff;fill-opacity:1;fill-rule:nonzero;stroke:none" transform="translate(58.593 73.368)"/></g><path d="M0 0c-.156 0-.318-.014-.483-.033a13.513 13.513 0 0 1-.816-.133c-.266-.05-.59-.067-.936-.088a84.905 84.905 0 0 1 3.704-.557C1.109-.18.591 0 0 0" style="fill:#4dc196;fill-opacity:1;fill-rule:nonzero;stroke:none" transform="translate(75.26 68.652)"/><g style="fill:#fff"><path d="M0 0c-4.467 0-7.94-.351-9.438-.74-2.436-.597-4.604-1.806-6.771-3.053-2.171-1.248-4.341-2.535-6.887-3.329-1.698-.532-3.399-.196-4.508-1.175.011-.444-.537-.937-1.081-1.432-3.291-1.158-7.273-.716-9.321-2.802-.166-.117-.402-.168-.691-.168-1.075 0-2.892.709-4.609 1.372-1.598.622-3.104 1.209-3.75 1.209-.232 0-.353-.076-.328-.252.315-2.173.39-2.673-.011-2.673-.169 0-.427.091-.788.182-.362.09-.827.181-1.416.181a6.91 6.91 0 0 1-1.999-.316c-.563-.116-1.267-2.553-2.36-2.793-3.943-.417-4.137-2.308-7.586-4.586-2.363-2.016-4.218-2.553-5.913-3.231-1.683-.679-3.207-1.504-4.655-4.119-.187-.301-1.82-1.913-3.346-3.482a240.452 240.452 0 0 1-2.961-3.085c-2.878-1.59-4.715-3.47-6.608-4.982-1.899-1.52-3.853-2.671-7.084-2.999-1.219-2.902-3.885-4.948-6.774-6.966-2.881-2.006-5.987-4.003-7.875-6.464-1.882-2.455-3.693-3.847-5.743-5.052-2.042-1.211-4.313-2.226-6.907-4.051-1.228-1.187-1.675-2.334-2.812-2.843-1.159-.527-.524-3.391-1.598-4.705l-1.116.918a61.22 61.22 0 0 1-1.462-1.835c-.137-.176-.276-.243-.417-.243-.233 0-.47.186-.707.373-.523.412-1.043.835-1.68.835-.288 0-.601-.087-.95-.301a30.219 30.219 0 0 1-4.741-6.732 37.112 37.112 0 0 1 .421-8.4c.632-.241 1.257-.501 1.736-.929.24-.816.515-1.625.799-2.422 1.399-.564 2.979-.512 3.92-.865 2.041-.133 3.998-.972 5.951-1.606 1.564-.517 3.113-.91 4.63-.91.375 0 .747.024 1.118.076.547.102.918.916 1.464 1.828.542.914 1.268 1.925 2.34 2.427a.717.717 0 0 0 .215.031c.674 0 1.757-.743 3.011-1.131.14.825.661 1.148 1.295 1.148.548 0 1.18-.24 1.726-.604l.373.618c.453-.168 1.819-.641 1.828-.641 1.231 1.518 3.061 2.945 4.595 4.398 1.537 1.465 2.774 2.981 2.94 4.999.197.798-.009 2.461-.081 3.608-.039.573 1.299 1.068 1.633 1.325-.711 1.2-2.077 1.887-3.103 2.844 1.565.963 3.963 2.451 5.517 3.979 1.545 1.532 2.255 3.172.207 4.596 2.104 1.851.711 3.683 2.717 5.897 2.601 2.964 6.318 6.471 10.307 9.658 2.028 1.908 4.313 3.403 6.604 4.918.84.583 1.667 1.14 2.463 1.659 8.595 5.702 17.222 9.144 25.685 12.323 4.246 1.584 8.482 3.093 12.819 4.733a299.12 299.12 0 0 1 13.54 5.474c9.337 4.049 19.903 6.262 30.052 6.262.27 0 .54-.002.809-.005 5.188-.056 10.241-.7 14.811-1.924 4.569-1.218 8.637-3.037 11.772-5.244 3.152-2.201 5.304-4.759 6.516-7.226a14.5 14.5 0 0 0 1.53-6.922c-.063-2.076-.518-3.884-1.006-5.378-.493-1.495-1.012-2.674-1.332-3.511.458-.768.879-1.581 1.263-2.432 1.431.943 2.803 2.77 3.701 5.133.903 2.358 1.284 5.239.833 8.122-.434 2.884-1.733 5.757-3.512 8.141-1.76 2.402-3.941 4.336-5.672 5.816-2.855 2.04-5.385 3.356-7.262 4.457-.295.168-.404.249-.349.249.092 0 .664-.241 1.586-.7 1.441-.732 3.751-2.054 6.025-4.006 2.152-1.553 4.493-3.548 6.438-6.246-.615 2.095-1.649 4.178-2.885 6.057-1.233 1.881-2.649 3.557-3.927 4.946-2.364 1.217-4.874 2.259-7.496 3.172C27.877-9.58 21.821-8.622 15.789-8.14c-3.763.296-7.532.405-11.325.405-2.299 0-4.607-.04-6.929-.102-2.236-.039-5.76-.384-9.252-.829-3.496-.432-6.962-.952-9.176-1.041 8.798 1.87 17.802 3.084 26.913 3.319 1 .024 2.002.036 3.006.036 8.117 0 16.322-.811 24.234-3.076-.458.212-.912.429-1.358.658-4.658 1.433-9.471 2.366-14.309 2.948-4.485.537-9 .771-13.506.771-.357 0-.713-.001-1.07-.004a75.922 75.922 0 0 0-4.314-.137c-.238 0-.477.001-.719.004 1.676.074 3.354.119 5.033.133 3.894.223 7.715.678 11.97.678.435 0 .874-.005 1.319-.015 2.956-.23 6.256-1.168 9.159-1.696 2.374-.493 4.394-1.65 6.437-2.682a62.586 62.586 0 0 0 4.118-1.429c.431-.058.89-.139 1.343-.269l-.036.064c-.507 1.088-3.051 2.966-6.972 4.718-3.908 1.766-9.159 3.336-14.584 4.295C10.347-.41 4.773-.004.21 0H0" style="fill:#fff;fill-opacity:1;fill-rule:nonzero;stroke:none" transform="translate(166.475 221.105)"/></g><g style="fill:#fff"><path d="M0 0c0 2.376-.424 4.365-1.272 5.967-.847 1.6-1.984 2.888-3.408 3.861-1.425.972-3.076 1.654-4.951 2.052-1.876.395-3.86.594-5.951.594-1.985 0-3.896-.063-5.735-.189-1.84-.127-3.463-.298-4.87-.514-.541-.072-.965-.224-1.271-.458-.307-.235-.46-.622-.46-1.162V-27c0-.289.108-.54.324-.756a1.03 1.03 0 0 1 .756-.324h5.4c.288 0 .531.107.729.324.197.216.297.467.297.756v14.094l2.328-.135a42.977 42.977 0 0 1 2.491-.081c2.093 0 4.078.207 5.956.621 1.876.413 3.527 1.115 4.953 2.106 1.426.99 2.563 2.294 3.412 3.915C-.424-4.86 0-2.862 0-.486zm-7.506-.46c0-2.168-.621-3.795-1.863-4.879-1.242-1.085-3.321-1.627-6.237-1.627-.216 0-.549.008-.999.027l-1.404.054c-.486.018-.954.034-1.404.054a27.15 27.15 0 0 1-.999.026V6.101c.251.036.585.063.999.081.413.018.855.036 1.323.053.467.02.926.036 1.377.056.45.018.818.026 1.107.026 2.7 0 4.725-.478 6.075-1.436 1.35-.958 2.025-2.576 2.025-4.853zm39.69-26.162v3.456c0 .288-.108.54-.324.756a1.038 1.038 0 0 1-.756.324H20.088c-1.585 0-2.692.323-3.321.972-.631.648-.945 1.871-.945 3.672v6.965h14.634c.287 0 .54.109.756.325.216.216.324.466.324.756v3.888c0 .287-.108.54-.324.756a1.038 1.038 0 0 1-.756.324H15.822v5.831c0 1.801.314 3.025.945 3.673.629.648 1.736.972 3.321.972h11.016c.287 0 .54.108.756.324.216.216.324.467.324.756v3.456c0 .396-.081.666-.243.81-.162.143-.442.251-.837.324-.432.072-.91.153-1.431.243-.523.089-1.171.17-1.944.243-.775.071-1.711.135-2.808.189a85.376 85.376 0 0 1-4.077.081c-1.765 0-3.406-.144-4.923-.432-1.517-.289-2.837-.837-3.961-1.647-1.124-.81-2.013-1.936-2.666-3.375-.653-1.44-.978-3.313-.978-5.617v-18.845c0-2.304.325-4.177.978-5.617.653-1.439 1.542-2.564 2.666-3.375 1.124-.809 2.444-1.358 3.961-1.646 1.517-.288 3.158-.433 4.923-.433 1.62 0 2.978.028 4.077.081 1.097.055 2.033.118 2.808.19.773.073 1.421.154 1.944.243l1.431.243c.395.071.675.18.837.323.162.144.243.413.243.811M70.901-27l-8.478 15.768c2.248.864 4.034 2.195 5.358 3.996 1.324 1.8 1.986 4.138 1.986 7.02V.27c0 2.303-.424 4.239-1.272 5.805-.848 1.566-1.984 2.816-3.408 3.753-1.425.936-3.076 1.611-4.951 2.025-1.876.413-3.86.621-5.951.621-1.985 0-3.896-.063-5.735-.189-1.84-.127-3.463-.298-4.87-.514-.541-.072-.965-.224-1.271-.458-.307-.235-.46-.622-.46-1.162V-27c0-.289.108-.54.324-.756a1.03 1.03 0 0 1 .756-.324h5.4c.288 0 .531.106.729.322.197.215.297.467.297.755v14.583l2.322-.136c.936-.053 1.763-.08 2.484-.08h.756l7.776-14.367c.143-.288.288-.54.432-.755.143-.216.359-.322.648-.322h6.588c.432 0 .648.216.648.647a.769.769 0 0 1-.108.433M62.261-.216c0-2.376-.648-4.015-1.944-4.914-1.296-.9-3.348-1.35-6.156-1.35a23.6 23.6 0 0 0-.999.027l-1.404.054c-.486.018-.954.035-1.404.053-.451.019-.783.028-.999.028v12.15c.251.035.585.062.999.081.413.018.855.035 1.323.054.467.017.926.035 1.377.054.45.018.818.027 1.107.027 2.7 0 4.725-.451 6.075-1.35 1.35-.9 2.025-2.376 2.025-4.428zm38.664-26.406v3.456c0 .288-.108.54-.324.756a1.036 1.036 0 0 1-.756.324h-9.936c-1.584 0-2.682.323-3.294.972-.612.648-.918 1.871-.918 3.672v28.404c0 .288-.108.54-.324.756a1.036 1.036 0 0 1-.756.324h-5.346c-.288 0-.54-.108-.756-.324a1.036 1.036 0 0 1-.324-.756v-28.404c0-2.304.324-4.177.972-5.617.648-1.439 1.53-2.564 2.646-3.375 1.116-.809 2.43-1.358 3.942-1.646 1.512-.288 3.15-.433 4.914-.433.72 0 1.53.02 2.43.055a63.487 63.487 0 0 1 5.049.405c.738.089 1.305.189 1.701.297.396.071.675.18.837.323.162.144.243.413.243.811m35.046 13.392v24.246a.95.95 0 0 1-.324.729 1.093 1.093 0 0 1-.756.297h-5.346a1.09 1.09 0 0 1-.756-.298.951.951 0 0 1-.324-.73V-13.27c0-1.55-.108-2.894-.324-4.029-.216-1.137-.603-2.083-1.161-2.841-.559-.756-1.315-1.315-2.268-1.675-.954-.361-2.152-.541-3.591-.541-1.476 0-2.682.18-3.618.541-.937.36-1.683.919-2.241 1.675-.559.758-.945 1.704-1.161 2.841-.216 1.135-.324 2.479-.324 4.029v24.284a.951.951 0 0 1-.324.73 1.09 1.09 0 0 1-.756.298h-5.346c-.288 0-.54-.101-.756-.297a.95.95 0 0 1-.324-.729V-13.23c0-2.881.369-5.292 1.107-7.236.737-1.944 1.763-3.511 3.078-4.698 1.314-1.188 2.88-2.044 4.698-2.565 1.817-.521 3.807-.784 5.967-.784 2.16 0 4.149.263 5.967.784 1.817.521 3.383 1.377 4.698 2.565 1.314 1.187 2.34 2.754 3.078 4.698.738 1.944 1.107 4.355 1.107 7.236M175.282-27l-8.478 15.768c2.248.864 4.034 2.195 5.358 3.996 1.324 1.8 1.986 4.138 1.986 7.02V.27c0 2.303-.424 4.239-1.271 5.805-.848 1.566-1.985 2.816-3.409 3.753-1.425.936-3.075 1.611-4.951 2.025-1.876.413-3.859.621-5.951.621-1.985 0-3.896-.063-5.735-.189-1.839-.127-3.463-.298-4.869-.514-.542-.072-.966-.224-1.272-.458-.307-.235-.46-.622-.46-1.162V-27c0-.289.108-.54.324-.756.216-.217.468-.324.756-.324h5.4c.288 0 .531.106.729.322.198.215.297.467.297.755v14.583l2.322-.136c.936-.053 1.764-.08 2.483-.08h.757l7.776-14.367c.144-.288.288-.54.432-.755.144-.216.36-.322.648-.322h6.588c.432 0 .648.216.648.647a.769.769 0 0 1-.108.433m-8.64 26.784c0-2.376-.648-4.015-1.944-4.914-1.296-.9-3.348-1.35-6.157-1.35-.215 0-.548.007-.998.027l-1.404.054c-.486.018-.954.035-1.404.053-.45.019-.783.028-.999.028v12.15c.252.035.585.062.999.081.414.018.855.035 1.323.054.468.017.927.035 1.377.054.45.018.819.027 1.106.027 2.701 0 4.726-.451 6.076-1.35 1.35-.9 2.025-2.376 2.025-4.428z" style="fill:#fff;fill-opacity:1;fill-rule:nonzero;stroke:none" transform="translate(43.815 28.513)"/></g></g></svg>