<svg width="1148" height="837" xmlns="http://www.w3.org/2000/svg"><path d="M89.15 820.67l-3.13-1.367-3.453-9.042 3.507-10.655 8.442-8.5h9.196l7.068 3.37v1.63h-6.091l-2.455 2.454-2.454 2.455.015 2.795.015 2.796 1.9 3 17.57-.077 15.253-5.595 6.297-3.83 1.95-5.129v-6.424l3.113-4.445h3.747l12.64 5.806 12 4.983 16.631 4.465 14.37-1.003 11.453-4.378 4.247-5.964.194-6.86-4.743-5.05h-7.977l-9.522 6.11-8.435 9.152.709-2.88.709-2.881 6.364-12.6 9.553-12.76 9.447-7.868 12.044-6.238 10.73-2.035h13.408l9.282 2.793 16.467 15.3 10.927 7.252 14.066 5.91 12.075.088 6.379-3.331 3.121-4.457v-3.819l-4.335-7.236-2.582-2.608-2.583-2.608-14.5-9.27v-.85l13.5-4.607 18 .028 17.706 5.542.959-.958-22.665-16.078-20-10.383-13-8.641-13.02-12.566-11.043-13-8.248-12.048-10.876-21.022-6.267-16.93-4.546-18 .064-37 2.761-9.5 2.762-9.5 13.846-28 1.971-6.186 1.972-6.186 1.07-9.588 1.068-9.588-2.076-18.452-5.611-12-9.384-9.635-11-4.865h-11.63l-11.39 3.919-5.781 4.117-4.141 6.7v11.324l5 11.88-.03 8.56-2.47 4.803-1.5.813-1.5.812-31 14.924-12.112 7.853-13.61 12.732-7.733 11.387-5.045 15.028v3.765l-2.783 3.807-1.41-1.17-1.41-1.17-14.286-2.36-9.172-13.793-5.939-10.977.008-7.455 4.265-7 12.395-14 6.064-9 5.344-10.582-.575-28.627 7.566-14.515 11.333-13.776h1.335l9.122-13.596 11.092-22.067 5.047-18.837.003-5.212.003-5.213-4.086-10.92-7.843-7.085-5.285-2.785-5.288-2.785 7.92-.646 12.08 3.376 7.784 3.956 9.597 8.976 6.581 15.338.038 23.35 5.852-7.35 11.21-11.146 17.044-11.109 17.893-8.322 3.472-1.921 19.529-5.152 16-.933-4.862 3.584-19.139 8.014-12.437 6.73-15.063 12.905v2.084l4.5-1.313 13-2.169 20 1.041 18.006 5.099 11.975 5.296 16.405 10.693 17.536 17.031-1.36 1.36-4.562-2.948-10-3.668-2-1.422-19.985-6.3-14.515-1.227v3.067l13.5 2.493 12.948 4.813 10.052 6.368 11.754 11.053 11.407 15 7.61 11.962 8.729 15.78v1.132l-5.5-5.053-12-8.994-13.802-7.669 1.407 5.841 11.554 21 4.136 10 1.034 5.5 1.034 5.5.603 7 .603 7-2.21 20-5.066 15-3.518 6.381-3.519 6.38-5.862 8.687-.947.585-.947.585v-3.02l3.146-11.598.57-15.25.572-15.25h-4.315l-4.685 10.5-5.264 17-.992 7-.992 7-.04 15.133 2.19 11.867 4.766 11.333 5.85 8.667 12.754 12.243 11.208 7.169 13.733 6.667 15 5.279 18 4.98 26 5.08 31 4.222 17.869 1.957 7.88-.597 5.25-10v-21l-6.759-11.93-7.029-8.409-13.212-10.74-22-15.827-27.12-27.095-14.079-19-9.46-14.768-9.774-19.232-4.256-10-2.833-8-2.832-8-6.06-24-.991-8-.992-8-2.303-25.668 1.145-13.666 1.144-13.666 2.07-17 2.898-12 2.897-12 8.171-22 8.045-24 5.925-26 1.026-10.923 1.026-10.923-2.144-19.155-4.704-15-5.094-10.029-9.554-12.709-14.69-12.534-13.46-7.01-17-5.09-16.403-2.21-10.35 1.374-17.248 13.933-5 1.93-11.689 3.01-5.878-2.435-4.085-5.23-25.255-26-14.359-12.01-15.289-8.747-17.445-6.143-30.5.28-.009-6.19-.009-6.19-.584-5-.584-5 4.685-6.382 11.95-14.618 4.05-3.545 7.89-4.194 10.452 1.079 22.658 9.989 15 4.622 18-.026 17-8.924h21l17 5.81 16.687 7.722 8.313 1.919 15 .04 17-2.78 14-4.52 5.995-3.096 5.996-3.096 15.51-14.765v6.846l-2.984 11.454-2.455 4.843-2.454 4.844-10.351 11.326-12.071 7.075-9.686 2.478 2.4 2.4h2.68l8.42 4.296 18 4.564 15.278 4.11 27.722 9.26 21.137 8.599 19.416 9.447 1.066 1.724-2.618-.03-15.837-3.991-18.163-2.101-19 .622.166 1 .166 1 25.738 13.064 15.93 11.887 18.1 18.049 4.627 6.524 4.626 6.525 7.23 12.792 5.755 14.159 1.376 4.75-2.18-1.347-8.694-13.403-10.4-11.344-11.015-7.312-12-4.053-6.856 1.287-.922 1.492 14.077 10.93 12.71 13.85 6.975 14.15 3.217 12 .547 14 .547 14-1.627 12.298-1.627 12.298-1.12 4.702-1.12 4.703-.513 1.5-.514 1.5-2.448-20-5.209-21.495-4.269-8.505-4.065-4.438-1.326.82 5.923 32.618.166 35-4.55 19.828-6.231 14.968-9.648 14.424-3.342 2.774.76-3.496.76-3.497.46-22.38.46-22.38-1.764-1.763-4.29 10.523-5.925 19-4.1 17-1.057 6.5-1.056 6.5-.613 13.5-.614 13.5 2.398 20.552 6.09 20.448 9.853 19.67 11.695 17.33 15.008 17 13.63 12 11.446 9 11.615 8 13.948 8.744 11.094 6.017 19 9.54 20.96 9.4 26.625 13.047 1.356-1.356-4.655-18.392-9.474-19-4.85-7-25.775-34.5h-1.688l.008 15.5 2.427 14.5 2.428 14.5 2.215 5.77 2.215 5.77-.503.504-.504.503-2.786-1.12-11.377-15.717-8.996-16.709-6.064-16.708-3.977-26.292.036-9 2.976-23 2.079-7 17.75-37 .672-2.86.673-2.861-4.773 1.435-10 6.175-12.993 10.11-11.49 10.5h-2.194l12.415-23.5 10.49-16.151 11.569-15.848 21.23-21 15.55-10.674 17.484-8.687 15.939-5.788 12.232-2.568 2.767-1.756-6-5.062-6-3.33-23.558-.884-21.123 4.454-15.319 5.698-14.707 6.096h-.792v-1.715l14.136-11.263 12.959-7.248 16.404-6.957 12.5-3.897-.125-1.42-13.375-11.53-8-7.557-17-18-9.967-12.346-1.414 1.433 1.474 11.5 1.473 11.5 5.085 20 5.615 14-.968 1-14.62-15.461-8.983-13.54-5.362-10-5.718-14.262-2.308-9.369-2.308-9.369.07-41 4.517-34 4.877-19.87-.9-.899-6.564 2.63-18 10.018-10 6.547-9.5 7.094v-2.403l10.432-16.116 15.058-20 23.01-23.105 17.534-12.403 16.466-8.887 17-5.984 22-5.213 22-2.183 3-1.59-1.5-.429-1.5-.428-13-3.489-21-5.716-26.686-.073-20.314 4.064-22.653 7.116-.494-.494-.493-.493 8.64-5.848 11-6.19 10.71-4.209 18.29-4.853 23-2.336 31 1.276 12 1.841 22.87 4.217 19.601 5.823 1.949 1.043 1.949 1.043h3.131v-9.057l-6.203-12.29-16.296-16.23-22.361-15.923-3.64-2.383 5-.082 13.578 2.877 18.913 9.261 3.797 4.827h2.61l41.101 40.517 17 9.77 18 11.084 7.5 5.797v-1.876l-10.747-22.793-6.162-19-4.159-17-2.23-19 .727-6.726.726-6.727 5.346-10.458 1-.295 1-.295-.673 17.501 5.03 19 4.939 13 11.34 22.538 15.75 23.835 14.093 14.836 12.52 6.616 16.87 11.044 15.356 15.355 5.394 11.403 3.734 19.373 3.46 7 10.55 12.15 10.638 8.169 26 16.267 8.253 8.537 1.124 5.242 1.125 5.242-4.162 20.393-2.637 8-1.085 4.043-1.084 4.043-6.548 2.368-14.986 9.013-2.101.033-4.6-9.5-8.746-12.284-15.021-13.84-15.257-8.73-16.558-6.574-23.718-5.878-29-4.29-13.502-2.085-3.882-3.319-3.308-6.5-3.308-6.5v-33l-4.503-8.425-8.172-8.091-14.325-9.303-14-7.52-17-5.12-16-2.258-16.59 1.236-14.207 4.963-9.781 6.276-6.905 8.426-6.494 13.816-.023 29 3.314 9 3.314 9 8.789 16.156 11.583 16.17 17.833 20.298 8.612 7.581 14.554 4.486 18 6.17 16 5.756 8.723 2.855 16.277 1.985 27.376 2.148 6.257 1.794-.316-.8-.317-.8-20.45-16.4-13.059-14.972-6.216-12.315-.493-5.556-.493-5.556 1.838-7h2.848l1.367 9.555 5.436 9.276 8.279 8.279 11.728 8.664 20.699 9.763 14.41 5.198 15.106 2.696 13 .136 23.24 4.688 14.458 7.597 6.153 6.148 10.58 14.301 5.413 4.258 9.156 4.127 9 2.623 19 3.134 22.677 1.879 9.305 5.753 5.364 10.925 2.228 12 2.229 12 .443 3.647.444 3.647-8.69 10.711-4.997 9.495h-1.203l-8.592-6.224-9.208-5.409-15-5.343-13-2.01-19.355-.015-15.645 2.11-22 6.004-22 7.786-11.798 3.328-6.722-3.205-9.16-8.443-4.833-9.538-1.99-5.32-1.99-5.32-6.04-9.522-12.468-5.792-13-2.073-6.25-.008-6.25-.006v1.226l9.71 17.274 2.228 5 2.228 5 6.757 19 2.472 10.5 2.473 10.5 2.412 24-.633 12.5-.633 12.5-1.448 22.5-1.447 22.5-1.096 14.5-1.095 14.5-2.903 22-2.016 11.377-2.015 11.377-1.497 4.408-1.497 4.409-.002 1.715-.002 1.715-5.519 16.308-5.519 16.308-11.58 24.383-10.62 18-12.615 18.5 5.36-.04 26-2.89 27-4.905 14.302-3.915 14.697-5.612 11.185-6.55 10.254-9.219 6.562-13.328-.038-10.52-.037-10.522-5.697-16-5.37-10-3.274-5.75-3.275-5.75-2.075-1.282 1.458 11.67 4.573 20.112 1.717 5.202 1.716 5.202-.38 1.14-.38 1.14-7.599-7.829-9.781-14.664-6.37-15.19-2.618-12-.07-18.325 1.466-7.663 1.466-7.664 6.161-18.089-.716-.716-7.171 9.456-14.341 21.698-.532-.532-.532-.532 2.5-7.634 11.786-26 8.306-14 5.999-8 9.086-10 8.877-7.41 11.645-6.207v-2.162l-9.5 1.141-12 5.46-18 9.975-3.5 3.013v-3.09l8.67-11.72 14.092-13.24 8.738-5.933 10-5.275 14-4.915 16-2.157 12-.48-11.763-7.643-12.237-5.53-16-4.334-8.5-2.07v-1.673l6.25-1.25h11.534l20.56 4.122 12.156 4.103 16 7.1 6 4.135 11.605 9.769.812-.812-2.845-11.917-.036-4.645-.036-4.644 1.99-6.441 1.989-6.44 5.908-8.156 9.432-6.49 14.681-4.53v1.75l-8.77 6.034-5.081 6.039-1.218 5.442-1.218 5.443 2.38 12.1 5.218 11.538 9.952 15 5.015 6.216 5.016 6.215 7.718 5.35 7.102 7.475 7.102 7.477 2.012 4.549 2.013 4.55.76 9.676.76 9.677 1.257 2.407 1.256 2.408 6.834 9.415 18.87 16.14 1.51 2.923 1.512 2.923v5.948l-2.95 7.326-2.952 7.325-4.03 8.265-6.76 1.268-8.211 3.967h-.864l-4.535-11.5-6.686-10.322-6.142-5.558-6.142-5.558-8.614-4.416-8.614-4.415-12-4.093-21-6.329-2.393-2.309-2.513-9.468 3.416-9.532-.01-7.599-2.928-5.662-5.993-5.043-9.083-3.469-12.768 1.025-10.656 5.749-6.336 8.347-2.118 6.27-2.117 6.27.04 15.113 4.729 18 2.699 6 2.699 6 11.914 16.45 5.955 12.726 1.594 6.912 1.593 6.913.972 15.152-4.388 21.676-5.773 14.418-7.024 12.426-9.51 14.274-20.89 21.685-12.57 9.368-25.123 13-6.419 3.404 1.12.096 31.467-10.991 18.897-2.23 3.016 1.158v2.15l-10.196 9.392-4.804 8.197v6.278l4.788 3.137 5.712-1.371 6-3.024 10.603-8.63 6.58-1.817 9.817 1.569 21 9.916 10 4.044 26 10.096 11 4.017 25 6.548 22 .061 5.724-2.683 5.724-2.682 4.045-6.635v-5.346l-2.63-3.126-2.631-3.126-9.84-4.987-12.4-1.154-7.5 3.137v4.806l2.29 3.398 2.29 3.398h6.84l2.359-3.5 2.359-3.5h2.362l.297 4.032.297 4.031-4.594 4.236-4.785 1.6-4.785 1.601h-7.994l-6.814-2.847-2.67-4.229-2.67-4.228-.527-5.816-.527-5.816 3.441-5.252 11.331-5.312 24 .089 15.867 6.536 6.134 4.192 6.675 6.183 2.15 4 2.15 4 .025 17-4.621 9.38-6.164 6.027-7.215 3.593-939 .432-3.13-1.367zm601.4-273.98l5.193-10.418 4.33-10.663 6.676-22 4.429-35.615-3.54-24.385-5.103-15-7.833-16-11.424-16.881-3.31-1.988-17.69 11.708-11 8.53-9.188 8.631-8.32 10.691-6.856 12.31-3.136 13.623v6.022l4.218 17.354 3.398 6.5 3.398 6.5 9.804 13 26.36 29 12.846 19.5h1.556zm291.81-.933l.519-1.352-2.187-6.398-2.187-6.399-6.73-9.272-4.892-3.205-2.834 1.087-2.27 4.984v4.906h2.846l6.21 5.226 9.06 11.775h1.946zm-833.38-53.398l1.51-1.75 5.79-11 9.5-9.595v-2.44l-4.953-7.29-4.142 1.083-4.825 6.326-4.972 10.916-.692 7.75-.691 7.75h1.966zm731.75-144.31l-3.101-3.915-7.348-6.12-14.641-6.995-10.36-1.891-6 1.617-.593 6.923 2.614 7.945 12.98-.648 8 2.06 20 5.862.775-.461.775-.462zm-40.814-165.51l-3.992-8.32-13.255-13.255-6.824-2.851h-3.694l-3.207 6.724-.695 4.638-.696 4.637h4.835l9.892 4.96 21 19.773.314-3.993.314-3.994zm-552.24-50.961l3.104-3.535v-3.785l-5.051-3.973-14.42-2.432-15.424 1.189-7.281 3.042.821 2.466 24.892 6.063 6.962 4.466 1.647.017 1.646.017 3.104-3.535z" fill="#fff"/></svg>