<svg version="1.1" id="Layer_1" x="0" y="0" xml:space="preserve" width="373.8" height="281.2" xmlns="http://www.w3.org/2000/svg"><style type="text/css" id="style95">.st0{fill:#fff}</style><g id="g143" transform="translate(-296.2 -2)"><g id="g125"><path class="st0" d="M297.9 165.5V3.8h18.7c22 0 33.9 4.4 40.3 16.7 6.2 12.3 7 32.6 7 64.3 0 31.7-.9 51.7-7 64-6.4 12.3-18.3 16.7-40.3 16.7zm23.7-23.8c8.1 0 12.8-.9 15.2-8.8 1.1-3.7 2-9.5 2.2-17.2.2-7.7.2-18 .2-31.2s0-23.5-.2-31.2c-.2-7.5-1.1-13.2-2.2-17.2-2.4-7.7-7-8.6-15.2-8.6z" id="path115"/><path class="st0" d="M441.6 132.3c-.2 6.6-1.5 12.5-4 17.6-2 4.4-5.1 8.6-9.5 11.9-4.4 3.5-10.3 5.5-18.3 5.5-7.9 0-14.1-2-18.5-5.5-4.4-3.3-7.3-7.5-9.2-11.9-2.4-5.1-3.7-11-4-17.6V37c.2-6.4 1.5-12.3 4-17.4 2-4.4 4.8-8.8 9.2-12.1C395.8 4.2 402 2 409.9 2c7.9 0 13.9 2.2 18.3 5.5s7.5 7.7 9.5 12.1c2.4 5.1 3.7 11 4 17.4v95.3zM417.8 37c0-4.4-.9-7.5-3.1-10.1-1.1-1.1-2.9-1.8-4.8-1.8-4.2 0-6.2 3.1-7 5.9-.7 1.8-.9 3.7-.9 5.9v95.3c0 4.6 1.1 7.7 3.3 10.1 1.1 1.1 2.6 1.8 4.6 1.8 4.2 0 6.2-2.6 7-5.9.7-1.5.9-3.5.9-5.9z" id="path117"/><path class="st0" d="M457.6 3.8h23.8v139.7h31.5v22h-55.2V3.8z" id="path119"/><path class="st0" d="M584.4 110v22.2c-.2 6.6-1.5 12.5-4 17.6-2 4.4-5.1 8.6-9.5 11.9-4.4 3.5-10.3 5.5-18.3 5.5s-14.1-2-18.5-5.5c-4.4-3.3-7.3-7.5-9.2-11.9-2.4-5.1-3.7-11-4-17.6V37c.2-6.4 1.5-12.3 4-17.4 2-4.4 4.8-8.8 9.2-12.1 4.4-3.3 10.6-5.5 18.5-5.5s13.9 2.2 18.3 5.5 7.5 7.7 9.5 12.1c2.4 5.1 3.7 11 4 17.4v22.2h-22.2V37c0-4.4-1.1-7.5-3.5-10.1-1.1-1.1-3.1-1.8-5.5-1.8-4.2 0-6.2 3.1-7.3 5.9-.7 1.8-.9 3.7-1.1 5.9v95.3c.2 4.6 1.5 7.7 3.7 10.1 1.1 1.1 2.6 1.8 4.6 1.8 5.1 0 7-2.6 8.1-5.9.7-1.5.9-3.5.9-5.9V110z" id="path121"/><path class="st0" d="M592.1 165.5 616.5 3.8h29L670 165.5h-23.1l-4.4-33h-22.9l-4.4 33zm40.3-109.1-.7-4.2h-1.3l-.7 4.2-6.8 51.1h16.3z" id="path123"/></g><g id="g141"><path class="st0" d="M296.2 198.1h11.7v4.2c2-1.8 3.7-3.2 6-4.3 1-.6 2.2-.8 3.2-.8 3.2 0 5.4 1.8 6.9 4.2 1.4 2.4 2.1 5.5 2.1 8.2v40.3c0 2.7-.7 5.8-2.1 8.1-1.5 2.4-3.7 4.3-6.9 4.3-2.2 0-4.5-1.3-6.2-2.5-1-.8-2-1.6-3-2.5v25.9h-11.7zm11.7 49.4c0 1.8 1.7 3.8 3.5 3.8s3.1-1.6 3.1-3.8V212c0-2.2-1.4-3.8-3.1-3.8-1.7 0-3.5 1.6-3.5 3.8z" id="path127"/><path class="st0" d="M388.9 246c-.3 6.1-2.2 10.4-6.2 13.8-2.1 1.7-5 2.5-8.8 2.5-7.5 0-11.2-4.2-13.1-8.3-1-2.4-1.7-5.2-1.8-8.3v-31.8c.3-6.1 2.2-10.6 6.2-14.1 2-1.7 4.9-2.5 8.7-2.5 7.5 0 11.3 4.2 13.2 8.2 1 2.4 1.7 5.1 1.8 8.1zm-11-32.1c.1-2.4-.3-4.2-1.5-5.5-.6-.6-1.5-.9-2.5-.9-2.2 0-3.1 1.5-3.6 3.2-.3.9-.5 2-.3 3.2v31.8c-.1 2.4.5 4.2 1.5 5.4.6.6 1.4.9 2.4.9 2.2 0 3.2-1.4 3.7-3.1.3-.9.5-2 .3-3.2z" id="path129"/><path class="st0" d="M451.1 246c-.3 6.1-2.2 10.4-6.2 13.8-2.1 1.7-5 2.5-8.8 2.5-7.5 0-11.2-4.2-13.1-8.3-1-2.4-1.7-5.2-1.8-8.3v-31.8c.3-6.1 2.2-10.6 6.2-14.1 2-1.7 4.9-2.5 8.7-2.5 7.5 0 11.3 4.2 13.2 8.2 1 2.4 1.7 5.1 1.8 8.1zm-11-32.1c.1-2.4-.3-4.2-1.5-5.5-.6-.6-1.5-.9-2.5-.9-2.2 0-3.1 1.5-3.6 3.2-.3.9-.5 2-.3 3.2v31.8c-.1 2.4.5 4.2 1.5 5.4.6.6 1.4.9 2.4.9 2.2 0 3.2-1.4 3.7-3.1.3-.9.5-2 .3-3.2z" id="path131"/><path class="st0" d="M484.2 261.4v-84.9h11.7v84.9z" id="path133"/><path class="st0" d="M528.5 248.5h12.1v12.8h-12.1z" id="path135"/><path class="st0" d="M602.6 238.7v7.3c-.3 6.1-2.2 10.4-6.4 13.8-2.1 1.7-5 2.5-8.8 2.5-7.5 0-11.3-4.2-13.2-8.3-1-2.4-1.7-5.2-1.8-8.3v-31.8c.3-6.1 2.3-10.6 6.5-14.1 2-1.7 4.9-2.5 8.7-2.5 7.5 0 11.3 4.2 13.2 8.2 1 2.4 1.7 5.1 1.8 8.1V232h-19.3v13.8c.1 2.4.8 4.2 1.8 5.4.6.6 1.4.9 2.4.9 2.2 0 3.2-1.4 3.7-3.1.3-.9.5-2 .5-3.2v-6.9h10.9zm-19.3-15.9h8.4v-8.9c0-2.4-.5-4.2-1.6-5.5-.6-.6-1.5-.9-2.5-.9-2.2 0-3.1 1.5-3.7 3.2-.3.9-.5 2-.6 3.2z" id="path137"/><path class="st0" d="M653.7 198.1h11.7v63.2h-11.7V256c-.2.1-.7.6-1.3 1.2-1.4 1.4-3 3-5.1 4.2-1 .6-2.1.9-3.1.9-3.1 0-5.3-1.8-6.7-4.3-1.4-2.3-2.1-5.4-2.1-8.1v-51.8h11.7v50c0 2.4 1.4 2.8 2.8 2.8 1.3 0 2-.7 2.8-1.5.3-.3.7-.9 1-1.5z" id="path139"/></g></g></svg>