<svg xmlns="http://www.w3.org/2000/svg" viewBox="0 0 375 346.51"><g data-name="Layer 2"><path d="M102.76 172a25.31 25.31 0 0023.78 26.65H128A25.26 25.26 0 10102.76 172zm-94.14-6.5a8.16 8.16 0 107.69 8.61 8.15 8.15 0 00-7.69-8.61zm92.54-140.07a8.16 8.16 0 10-11-3.62 8.18 8.18 0 0011 3.62zm25.62 44.67a12.61 12.61 0 10-16.94-5.59 12.62 12.62 0 0016.94 5.59zm-86.2 30.72a10.39 10.39 0 10-3-14.38 10.39 10.39 0 003 14.38zM55.93 161a12.62 12.62 0 1011.88 13.31A12.62 12.62 0 0055.93 161zM42 245.72a10.39 10.39 0 1013.95 4.6 10.37 10.37 0 00-13.95-4.6zm49-110.83a14.84 14.84 0 10-4.27-20.55A14.83 14.83 0 0091 134.89zM246.47 69.1a12.62 12.62 0 10-3.63-17.47 12.61 12.61 0 003.63 17.47zm25.88-44.53A8.16 8.16 0 10270 13.26a8.16 8.16 0 002.35 11.31zm-23.9 123.34a25.25 25.25 0 00-2.87 50.42h1.45a25.25 25.25 0 001.42-50.46zm-113.37-14.77A25.12 25.12 0 00157.64 147a25.25 25.25 0 0022.54-36.62 25.25 25.25 0 10-45.1 22.73zM333 100.79a10.39 10.39 0 10-14-4.6 10.4 10.4 0 0014 4.6zm-64 8.04a14.84 14.84 0 1019.94 6.58 14.86 14.86 0 00-19.94-6.58zm-82.45-88.07a10.39 10.39 0 10-9.79-11 10.38 10.38 0 009.79 11zm-.12 65.37a14.84 14.84 0 10-14-15.66 14.84 14.84 0 0014 15.66zM106 237.68a14.84 14.84 0 10-19.93-6.58 14.85 14.85 0 0019.93 6.58zm90-129.89a25.22 25.22 0 1021.14-11.41A25.28 25.28 0 00196 107.79zm43.92 105.58a25.26 25.26 0 10-11.18 33.91 25.11 25.11 0 0011.18-33.91zm44.08-1.75a14.84 14.84 0 104.27 20.55 14.84 14.84 0 00-4.27-20.55zm48.38-37.94a12.62 12.62 0 10-13.31 11.88 12.62 12.62 0 0013.31-11.88zm34.92-8.97a8.16 8.16 0 107.69 8.61 8.17 8.17 0 00-7.69-8.61zm-32.88 80.97a10.39 10.39 0 103 14.39 10.39 10.39 0 00-3-14.39zm-231.77 76.26a8.16 8.16 0 102.34 11.3 8.17 8.17 0 00-2.34-11.3zm171.18-.86a8.16 8.16 0 1011 3.62 8.16 8.16 0 00-11-3.62zM179 238.71a25.25 25.25 0 10-21.14 11.41A25.1 25.1 0 00179 238.71zm-50.47 38.7a12.62 12.62 0 103.63 17.47 12.62 12.62 0 00-3.63-17.47zm58.85 48.33a10.39 10.39 0 109.78 11 10.39 10.39 0 00-9.78-11zm.11-65.37a14.84 14.84 0 1014 15.67 14.85 14.85 0 00-14-15.67zm60.72 16.03a12.62 12.62 0 1017 5.59 12.62 12.62 0 00-17-5.59z" data-name="Layer 1" fill="#fff"/></g></svg>