<svg version="1.1" id="Layer_1" xmlns="http://www.w3.org/2000/svg" x="0" y="0" viewBox="0 0 262.7 300" xml:space="preserve"><style>.st0{fill:#fff}</style><path class="st0" d="M53.9 146H25.3v-.9c0-9.1 2.6-16.8 7.8-23.2 5.2-6.4 13-13 23.5-19.9l19.8-13.2c9.1-6.2 16-12.5 20.6-19.1 4.6-6.5 6.9-14.4 6.9-23.7 0-13.7-4.2-23.8-12.7-30.4C82.8 9 69 5.7 49.8 5.7c-3.5 0-7.3.1-11.3.4-4 .3-8 .7-11.9 1.2-3.9.5-7.7 1.1-11.3 1.8-3.7.7-6.9 1.4-9.7 2.1-1.2.3-2.2.8-3 1.4-.8.7-1.2 1.6-1.2 2.8v13.2c0 1.2.4 2.2 1.1 3.1.7.8 1.6 1.3 2.8 1.3h.4c3.2-.4 6.8-.8 10.6-1.2 3.8-.4 7.7-.7 11.6-1 3.9-.3 7.7-.6 11.5-.8 3.7-.2 7.2-.3 10.5-.3 9.3 0 15.9 1.2 19.8 3.6 4 2.4 5.9 6.6 5.9 12.7 0 3.1-.3 5.7-.8 7.8-.5 2.1-1.5 4.1-3 5.9-1.5 1.8-3.5 3.8-6.2 5.8-2.6 2.1-6.1 4.5-10.4 7.3L33.5 87.4c-4.6 3.1-8.8 6.7-12.9 10.8-4 4.1-7.6 8.6-10.7 13.5-3.1 4.9-5.5 10.2-7.3 15.9C.9 133.2 0 139.1 0 145.1v21.6c0 1.2.4 2.2 1.3 3.1.9.9 1.9 1.3 3.1 1.3h84.8V146H53.9zm133.9-49.1c-.5.6-1.1.8-1.8.8h-11.8c-.7 0-1.3-.3-1.8-.8-.5-.6-.8-1.2-.8-1.9V53.2c0-2.8-.1-5.2-.3-7-.2-1.8-.7-3.3-1.4-4.4-.7-1.1-1.8-1.8-3.3-2.3-1.5-.5-3.4-.7-5.9-.7-2.2 0-4.5.4-6.9 1.2-2.4.8-4.9 1.9-7.6 3.4V95c0 .7-.3 1.3-.8 1.9-.5.6-1.1.8-1.8.8h-11.8c-.7 0-1.3-.3-1.8-.8-.5-.6-.8-1.2-.8-1.9V27.9c0-.7.3-1.3.8-1.8s1.1-.8 1.8-.8H143c.7 0 1.3.3 1.8.8s.8 1.1.8 1.8v2.7c1.9-1.2 3.6-2.2 5.2-3 1.6-.8 3.2-1.4 4.8-1.9 1.6-.5 3.3-.8 5-1 1.7-.2 3.6-.3 5.8-.3 4.6 0 8.4.7 11.3 2.2 2.9 1.5 5.2 3.5 6.7 6 1.6 2.6 2.7 5.6 3.3 9.1.6 3.5.9 7.3.9 11.4V95c0 .7-.3 1.3-.8 1.9zm74.9-5c0 .9-.2 1.6-.6 2.1-.4.5-1.4.9-2.8 1.3-4 1-8.3 1.8-12.8 2.4-4.5.6-8.9.9-13 .9-10.4 0-18.1-2.8-23.1-8.5-5.1-5.7-7.6-13.6-7.6-23.7v-9.9c0-10.1 2.5-18 7.6-23.7 5.1-5.7 12.8-8.5 23.1-8.5 1.5 0 3.4.1 5.5.2s4.4.4 6.8.7V2.6c0-.7.3-1.3.8-1.8s1.1-.8 1.8-.8h11.8c.7 0 1.3.3 1.8.8s.8 1.1.8 1.8v89.3zm-17-52.6c-1.8-.3-3.9-.5-6.4-.6-2.4-.2-4.4-.3-6-.3-2.7 0-5 .5-6.8 1.4-1.8.9-3.2 2.2-4.2 3.8-1 1.6-1.7 3.5-2.1 5.7-.4 2.2-.6 4.6-.6 7.3v9.8c0 2.6.2 5.1.6 7.3.4 2.2 1.1 4.1 2.1 5.7 1 1.6 2.4 2.9 4.2 3.8 1.8.9 4.1 1.4 6.8 1.4 2.3 0 4.6-.1 7-.3 2.4-.2 4.1-.4 5.3-.6V39.3zM43.1 275.9H14.9c-4.7 0-8.3-1-11-3-2.6-2-3.9-5.6-3.9-10.8v-75.5c0-.7.2-1.2.6-1.7.4-.5.9-.7 1.5-.7h1.2c.7 0 1.2.2 1.5.7.4.5.6 1 .6 1.7v75.5c0 1.9.2 3.4.7 4.6.5 1.2 1.1 2 1.8 2.7.8.6 1.8 1 3 1.2 1.2.2 2.5.3 4 .3H43c1.6 0 2.3.7 2.3 2v1c.1 1.3-.7 2-2.2 2zm58.1-2.4c0 .7-.2 1.2-.7 1.7-.5.5-1 .7-1.7.7h-.6c-.6 0-1.2-.2-1.7-.7-.5-.5-.7-1.1-.7-1.7v-3.1c-3 1.6-6.3 3.1-9.9 4.4s-7.2 1.9-11.1 1.9c-2.3 0-4.6-.3-6.8-.9-2.3-.6-4.3-1.7-6-3.2-1.8-1.5-3.2-3.6-4.3-6.1-1.1-2.5-1.7-5.8-1.7-9.6v-1.6c0-3.2.5-6 1.6-8.3 1.1-2.3 2.8-4.3 5.2-5.9 2.4-1.6 5.5-2.8 9.4-3.6 3.9-.8 8.7-1.2 14.2-1.2h9.5v-4.4c0-3.2-.2-5.9-.7-8.2-.5-2.3-1.3-4.1-2.5-5.6-1.2-1.4-2.8-2.5-4.8-3.1-2-.7-4.5-1-7.5-1-2.1 0-3.8 0-5.4.1-1.5 0-2.9.1-4.3.2-1.3.1-2.6.2-3.8.4-1.2.1-2.6.3-4.1.4-.7.1-1.3 0-1.9-.2-.6-.2-.9-.8-.9-1.7v-.7c0-.8.2-1.4.7-1.6.5-.2 1.2-.5 2.1-.6 1.3-.2 2.6-.3 3.8-.4 1.2-.1 2.5-.2 3.8-.4 1.4-.1 2.8-.2 4.4-.2 1.6 0 3.4-.1 5.5-.1 4.2 0 7.6.6 10.3 1.7 2.7 1.1 4.8 2.7 6.4 4.7 1.6 2 2.7 4.4 3.3 7.2.6 2.8.9 5.8.9 9.1v41.6zM95.9 241h-9.5c-4.7 0-8.6.2-11.8.7-3.2.5-5.7 1.3-7.7 2.4-2 1.1-3.4 2.6-4.3 4.4-.9 1.8-1.3 4-1.3 6.7v1.6c0 2.9.3 5.3 1 7.2.7 1.9 1.7 3.5 2.9 4.6 1.2 1.2 2.7 2 4.3 2.5 1.6.5 3.4.7 5.2.7 3.5 0 6.8-.5 10.1-1.5 3.2-1 6.9-2.6 11-4.8V241zm46.4 41.9c-1 3.3-2 6-3.1 8.3-1.1 2.2-2.4 4-4 5.3-1.6 1.3-3.4 2.2-5.4 2.8-2.1.5-4.5.8-7.4.8-1.4 0-2.7-.1-4-.2-1.3-.2-2.5-.3-3.6-.5-.7-.2-1.3-.3-1.8-.5s-.7-.6-.7-1.2v-1.4c0-.7.2-1.3.6-1.5.4-.3 1-.4 2-.2.9.2 2.2.3 3.9.5 1.7.2 3.1.2 4.1.2 2.2 0 4.1-.2 5.6-.6 1.5-.4 2.8-1.1 3.9-2.1s2.1-2.3 2.8-4.1c.8-1.7 1.5-3.9 2.3-6.7l1.6-5.8h-1.7c-1.9 0-3.4-.4-4.5-1.2-1.1-.8-2.1-2.7-3-5.7l-16.7-56.4c-.2-.8-.2-1.5.1-2.1.3-.6.9-.9 1.9-.9h1.1c.7 0 1.1.2 1.4.6.2.4.5.8.6 1.2l16.7 56.8c.4 1.3.9 2.1 1.4 2.3.5.2 1 .4 1.5.4h2.8l16.9-59.6c.2-.4.4-.8.6-1.1.2-.3.8-.5 1.6-.5h1.1c1 0 1.6.3 1.8.9.2.6.2 1.3-.1 2.2l-20.3 70zm78.9-41.1c0 .7-.2 1.2-.7 1.7-.5.5-1 .7-1.7.7h-41.7v2.6c0 5.2.6 9.4 1.7 12.7 1.2 3.3 2.8 5.9 4.8 7.7 2.1 1.9 4.4 3.1 7.1 3.8 2.7.7 5.6 1 8.7 1 2.7 0 5.7-.2 8.9-.6 3.2-.4 6.3-.9 9.4-1.5.7-.2 1.3-.1 1.8.1s.8.7.8 1.5v.9c0 .7-.2 1.2-.5 1.5-.3.4-.9.6-1.9.8-3 .7-6.1 1.2-9.4 1.5-3.3.4-6.3.6-9.1.6-3.9 0-7.5-.5-10.8-1.4-3.3-.9-6.3-2.5-8.8-4.8-2.6-2.3-4.5-5.3-6-9.2s-2.2-8.7-2.2-14.6v-8.1c0-4.3.5-8.2 1.6-11.8 1.1-3.6 2.7-6.7 4.7-9.3 2.1-2.6 4.7-4.7 7.8-6.2 3.1-1.5 6.7-2.2 10.8-2.2 4.3 0 8 .7 11 2.1 3.1 1.4 5.6 3.4 7.6 6s3.5 5.7 4.4 9.3c.9 3.6 1.4 7.6 1.4 12v3.2zm-5.4-3.5c0-7.8-1.4-13.8-4.3-18-2.9-4.3-7.8-6.4-14.8-6.4-3.5 0-6.4.6-8.8 1.8-2.4 1.2-4.4 2.9-6 5-1.6 2.2-2.8 4.7-3.5 7.7-.7 3-1.1 6.3-1.1 10v.6h38.6v-.7zm45.8-24.8c-.6.2-1.4.4-2.4.4-2.4 0-4.9.4-7.6 1.1-2.7.7-5.9 2.3-9.6 4.6v54c0 .7-.2 1.2-.7 1.7-.5.5-1 .7-1.7.7h-.6c-.7 0-1.2-.2-1.7-.7-.5-.4-.7-1-.7-1.7v-61.4c0-.7.2-1.2.6-1.7.4-.5.9-.7 1.6-.7h1c.7 0 1.2.2 1.6.7.4.5.6 1.1.6 1.7v2.6c3.1-2.1 6-3.5 8.6-4.4 2.6-.9 5.5-1.3 8.5-1.3 1 0 1.8.1 2.4.4.6.2.9.7.9 1.5v1c.2.7-.2 1.3-.8 1.5z"/><path class="st0" d="M261.3 147c-.9-.7-1.9-1.1-3.1-1.1H25.3v25.2h232.9c1.2 0 2.2-.4 3.1-1.3.9-.9 1.3-1.9 1.3-3.1v-16.8c.1-1.2-.4-2.2-1.3-2.9z"/></svg>