<?xml version="1.0" encoding="utf-8"?>
<!-- Generator: Adobe Illustrator 24.3.0, SVG Export Plug-In . SVG Version: 6.00 Build 0)  -->
<svg version="1.1" id="Layer_1" xmlns="http://www.w3.org/2000/svg" xmlns:xlink="http://www.w3.org/1999/xlink" x="0px" y="0px"
	 viewBox="0 0 670 283.1" style="enable-background:new 0 0 670 283.1;" xml:space="preserve">
<style type="text/css">
	.st0{fill:#FFFFFF;}
</style>
<g transform="translate(0.000000,1280.000000) scale(0.100000,-0.100000)">
	<path class="st0" d="M1198.1,12605.9c0-1.2,1.9-1.5,4.4-0.7c2.2,0.7,18.7,2.9,36.6,5.3l32.2,3.9l59.6,60.3
		c32.7,33.2,60.3,60.1,61.3,59.9c1.7-0.7,324.2-320.4,743.7-737.2c89.9-89.4,197.7-196.3,239.4-237.7l75.6-75.1l-3.6,13.3
		c-2.2,7.3-8.7,28.8-15,47.7l-10.9,34.4l-80.5,79.5c-44.1,43.6-275.3,273.1-513.5,509.6c-238.5,236.5-434.3,430.4-435,430.9"/>
	<path class="st0" d="M1359.3,12580.9c-64.9-2.7-120-9-181.8-20.6c-394.5-74.2-725.8-348-874.8-723.4
		c-11.6-29.3-37.6-105.7-37.6-110.7c0-1.7,15.8,12.8,34.9,32l34.9,34.9l12.6,31.7c54.3,136.4,136.4,262.7,241.1,369.6
		c184.2,188.3,414.9,300.7,684.6,333.9c45.8,5.6,200.9,5.8,245.5,0.5l28.6-3.6l-25.9,25.9l-25.9,25.9l-20.8,1.5
		C1444.6,12580.4,1381.8,12581.9,1359.3,12580.9z"/>
	<path class="st0" d="M1750.4,12501.4l34.9-34.9l31.7-12.6c208.7-82.6,391.6-230.9,518.4-419.7c101.3-150.7,161.9-316.7,185.1-506
		c5.6-45.8,5.8-200.9,0.5-245.5l-3.6-28.6l26.2,26.2l26.2,26.2l2.4,49.2c5.3,111.7-7.3,230.9-36.4,343.6
		c-93.5,362.5-357.2,660.9-706.4,799.5c-29.6,11.6-105.9,37.6-111,37.6C1716.7,12536.3,1731.3,12520.6,1750.4,12501.4z"/>
	<path class="st0" d="M0,11399.5l96.9-96.9c53.1-53.1,97.7-96.7,98.6-96.7c1.2,0,1.5,1.9,0.7,4.4c-0.7,2.2-2.9,18.7-5.1,36.4
		l-4.1,32.2l-60.3,59.6c-33.2,33-60.1,60.6-59.9,61.6c0.5,1,199.2,201.6,441.8,446.1c550.6,554.7,608,612.6,606.8,612.4
		c-0.5,0-16.7-4.8-36.1-10.7c-19.4-5.8-40.5-12.8-47-15.3c-10.4-4.1-45.3-38.3-289.6-284.7c-152.7-153.9-382.4-385.3-510.1-514.2"/>
	<path class="st0" d="M2597.4,11599.2c0.7-2.4,2.9-18.9,5.1-36.6l4.1-32.2l60.3-59.6c33.2-33,60.1-60.6,59.9-61.6
		c-0.5-1-199.2-201.6-441.8-446.1c-242.6-244.3-478.6-482-524.4-528.5l-83.4-84.1l13.1,3.6c7.3,2.2,28.4,8.7,47.3,14.8l34.2,11.1
		l69.1,69.3c37.8,38.3,216.4,218.3,396.9,400.3c180.3,182,379.3,382.4,442,445.4l114.1,114.4l-96.9,96.9
		c-53.3,53.3-97.9,96.9-98.9,96.9C2596.9,11603.3,2596.7,11601.4,2597.4,11599.2z"/>
	<path class="st0" d="M249.9,11528.7l-25.9-26.2l-2.4-49c-5.3-111.7,7.3-230.9,36.4-343.6c93.5-362.5,357.2-660.9,706.4-799.5
		c29.6-11.6,105.9-37.6,111-37.6c1.7,0-12.8,15.8-32,34.9l-34.9,34.9l-31.7,12.6c-208.7,82.6-391.6,230.9-518.4,419.7
		c-101.1,150.7-161.9,316.7-185.1,506c-5.6,45.8-5.8,200.9-0.5,245.5c1.9,15.5,3.6,28.4,3.4,28.4
		C276,11554.9,264.1,11543.2,249.9,11528.7z"/>
	<path class="st0" d="M1498.6,10104.5c53.3,53.3,96.9,97.9,96.9,98.9c0,1.2-1.9,1.5-4.1,0.7c-2.4-0.7-18.9-2.9-36.8-5.3l-32.2-3.9
		l-59.6-60.3c-32.7-33.2-60.3-60.1-61.3-59.9c-1.7,0.7-324.2,320.4-743.7,737.2c-89.9,89.4-197.7,196.3-239.4,237.7l-75.6,75.1
		l3.6-13.3c2.2-7.3,8.7-28.6,14.8-47.5l11.1-34.2l69.3-69.1c38.3-37.8,217.4-215.4,397.9-394.5c180.5-179.1,381-378,445.4-442
		l116.8-116.6"/>
	<path class="st0" d="M2492.9,11050.3l-34.4-34.7l-12.6-31.5c-54-136.4-136.2-262.5-240.9-369.3
		c-184.2-188.3-414.9-300.7-684.6-333.9c-45.8-5.6-200.9-5.8-245.5-0.5l-28.6,3.6l26.2-26.2l26.2-26.2l49.2-2.4
		c68.8-3.2,149.8,0.7,219.1,11.1c416.6,61.6,768.5,340.2,924,731.9c13.1,32.7,38,107.4,37.1,110.5
		C2527.6,11083.8,2511.8,11069.2,2492.9,11050.3z"/>
</g>
<g>
	<g>
		<path class="st0" d="M297.9,165.5V3.8h18.7c22,0,33.9,4.4,40.3,16.7c6.2,12.3,7,32.6,7,64.3c0,31.7-0.9,51.7-7,64
			c-6.4,12.3-18.3,16.7-40.3,16.7H297.9z M321.6,141.7c8.1,0,12.8-0.9,15.2-8.8c1.1-3.7,2-9.5,2.2-17.2c0.2-7.7,0.2-18,0.2-31.2
			c0-13.2,0-23.5-0.2-31.2c-0.2-7.5-1.1-13.2-2.2-17.2c-2.4-7.7-7-8.6-15.2-8.6V141.7z"/>
		<path class="st0" d="M441.6,132.3c-0.2,6.6-1.5,12.5-4,17.6c-2,4.4-5.1,8.6-9.5,11.9c-4.4,3.5-10.3,5.5-18.3,5.5
			c-7.9,0-14.1-2-18.5-5.5c-4.4-3.3-7.3-7.5-9.2-11.9c-2.4-5.1-3.7-11-4-17.6V37c0.2-6.4,1.5-12.3,4-17.4c2-4.4,4.8-8.8,9.2-12.1
			C395.8,4.2,402,2,409.9,2c7.9,0,13.9,2.2,18.3,5.5c4.4,3.3,7.5,7.7,9.5,12.1c2.4,5.1,3.7,11,4,17.4V132.3z M417.8,37
			c0-4.4-0.9-7.5-3.1-10.1c-1.1-1.1-2.9-1.8-4.8-1.8c-4.2,0-6.2,3.1-7,5.9c-0.7,1.8-0.9,3.7-0.9,5.9v95.3c0,4.6,1.1,7.7,3.3,10.1
			c1.1,1.1,2.6,1.8,4.6,1.8c4.2,0,6.2-2.6,7-5.9c0.7-1.5,0.9-3.5,0.9-5.9V37z"/>
		<path class="st0" d="M457.6,3.8h23.8v139.7h31.5v22h-55.2V3.8z"/>
		<path class="st0" d="M584.4,110v22.2c-0.2,6.6-1.5,12.5-4,17.6c-2,4.4-5.1,8.6-9.5,11.9c-4.4,3.5-10.3,5.5-18.3,5.5
			s-14.1-2-18.5-5.5c-4.4-3.3-7.3-7.5-9.2-11.9c-2.4-5.1-3.7-11-4-17.6V37c0.2-6.4,1.5-12.3,4-17.4c2-4.4,4.8-8.8,9.2-12.1
			c4.4-3.3,10.6-5.5,18.5-5.5s13.9,2.2,18.3,5.5c4.4,3.3,7.5,7.7,9.5,12.1c2.4,5.1,3.7,11,4,17.4v22.2h-22.2V37
			c0-4.4-1.1-7.5-3.5-10.1c-1.1-1.1-3.1-1.8-5.5-1.8c-4.2,0-6.2,3.1-7.3,5.9c-0.7,1.8-0.9,3.7-1.1,5.9v95.3
			c0.2,4.6,1.5,7.7,3.7,10.1c1.1,1.1,2.6,1.8,4.6,1.8c5.1,0,7-2.6,8.1-5.9c0.7-1.5,0.9-3.5,0.9-5.9V110H584.4z"/>
		<path class="st0" d="M592.1,165.5L616.5,3.8h29L670,165.5h-23.1l-4.4-33h-22.9l-4.4,33H592.1z M632.4,56.4l-0.7-4.2h-1.3l-0.7,4.2
			l-6.8,51.1h16.3L632.4,56.4z"/>
	</g>
	<g>
		<path class="st0" d="M296.2,198.1h11.7v4.2c2-1.8,3.7-3.2,6-4.3c1-0.6,2.2-0.8,3.2-0.8c3.2,0,5.4,1.8,6.9,4.2
			c1.4,2.4,2.1,5.5,2.1,8.2v40.3c0,2.7-0.7,5.8-2.1,8.1c-1.5,2.4-3.7,4.3-6.9,4.3c-2.2,0-4.5-1.3-6.2-2.5c-1-0.8-2-1.6-3-2.5v25.9
			h-11.7V198.1z M307.9,247.5c0,1.8,1.7,3.8,3.5,3.8s3.1-1.6,3.1-3.8V212c0-2.2-1.4-3.8-3.1-3.8s-3.5,1.6-3.5,3.8V247.5z"/>
		<path class="st0" d="M388.9,246c-0.3,6.1-2.2,10.4-6.2,13.8c-2.1,1.7-5,2.5-8.8,2.5c-7.5,0-11.2-4.2-13.1-8.3
			c-1-2.4-1.7-5.2-1.8-8.3v-31.8c0.3-6.1,2.2-10.6,6.2-14.1c2-1.7,4.9-2.5,8.7-2.5c7.5,0,11.3,4.2,13.2,8.2c1,2.4,1.7,5.1,1.8,8.1
			V246z M377.9,213.9c0.1-2.4-0.3-4.2-1.5-5.5c-0.6-0.6-1.5-0.9-2.5-0.9c-2.2,0-3.1,1.5-3.6,3.2c-0.3,0.9-0.5,2-0.3,3.2v31.8
			c-0.1,2.4,0.5,4.2,1.5,5.4c0.6,0.6,1.4,0.9,2.4,0.9c2.2,0,3.2-1.4,3.7-3.1c0.3-0.9,0.5-2,0.3-3.2V213.9z"/>
		<path class="st0" d="M451.1,246c-0.3,6.1-2.2,10.4-6.2,13.8c-2.1,1.7-5,2.5-8.8,2.5c-7.5,0-11.2-4.2-13.1-8.3
			c-1-2.4-1.7-5.2-1.8-8.3v-31.8c0.3-6.1,2.2-10.6,6.2-14.1c2-1.7,4.9-2.5,8.7-2.5c7.5,0,11.3,4.2,13.2,8.2c1,2.4,1.7,5.1,1.8,8.1
			V246z M440.1,213.9c0.1-2.4-0.3-4.2-1.5-5.5c-0.6-0.6-1.5-0.9-2.5-0.9c-2.2,0-3.1,1.5-3.6,3.2c-0.3,0.9-0.5,2-0.3,3.2v31.8
			c-0.1,2.4,0.5,4.2,1.5,5.4c0.6,0.6,1.4,0.9,2.4,0.9c2.2,0,3.2-1.4,3.7-3.1c0.3-0.9,0.5-2,0.3-3.2V213.9z"/>
		<path class="st0" d="M484.2,261.4v-84.9h11.7v84.9H484.2z"/>
		<path class="st0" d="M528.5,248.5h12.1v12.8h-12.1V248.5z"/>
		<path class="st0" d="M602.6,238.7v7.3c-0.3,6.1-2.2,10.4-6.4,13.8c-2.1,1.7-5,2.5-8.8,2.5c-7.5,0-11.3-4.2-13.2-8.3
			c-1-2.4-1.7-5.2-1.8-8.3v-31.8c0.3-6.1,2.3-10.6,6.5-14.1c2-1.7,4.9-2.5,8.7-2.5c7.5,0,11.3,4.2,13.2,8.2c1,2.4,1.7,5.1,1.8,8.1
			v18.4h-19.3v13.8c0.1,2.4,0.8,4.2,1.8,5.4c0.6,0.6,1.4,0.9,2.4,0.9c2.2,0,3.2-1.4,3.7-3.1c0.3-0.9,0.5-2,0.5-3.2v-6.9H602.6z
			 M583.3,222.8h8.4v-8.9c0-2.4-0.5-4.2-1.6-5.5c-0.6-0.6-1.5-0.9-2.5-0.9c-2.2,0-3.1,1.5-3.7,3.2c-0.3,0.9-0.5,2-0.6,3.2V222.8z"/>
		<path class="st0" d="M653.7,198.1h11.7v63.2h-11.7V256c-0.2,0.1-0.7,0.6-1.3,1.2c-1.4,1.4-3,3-5.1,4.2c-1,0.6-2.1,0.9-3.1,0.9
			c-3.1,0-5.3-1.8-6.7-4.3c-1.4-2.3-2.1-5.4-2.1-8.1v-51.8h11.7v50c0,2.4,1.4,2.8,2.8,2.8c1.3,0,2-0.7,2.8-1.5
			c0.3-0.3,0.7-0.9,1-1.5V198.1z"/>
	</g>
</g>
</svg>
