<?xml version="1.0" encoding="utf-8"?>
<!-- Generator: Adobe Illustrator 22.0.1, SVG Export Plug-In . SVG Version: 6.00 Build 0)  -->
<svg version="1.2" baseProfile="tiny" id="Vrstva_1"
	 xmlns="http://www.w3.org/2000/svg" xmlns:xlink="http://www.w3.org/1999/xlink" x="0px" y="0px" viewBox="0 0 1066.5 187.2"
	 xml:space="preserve">
<g>
	<path fill="#FFFFFF" d="M61.4,131.3C37.9,114.5,19.3,94.2,9,74.2c-10.5-20.3-11.8-39-3.6-52.7C14.5,6.4,34.1-1.2,60.6,0.2
		c26.3,1.4,56.3,11.5,84.5,28.4c40.4,24.3,70.3,59.3,76.1,89.3l-1.5,0.3c-5.8-29.6-35.4-64.2-75.4-88.3C116.3,13,86.6,3,60.5,1.7
		c-25.9-1.4-45,6-53.9,20.7C-1.3,35.5,0,53.7,10.3,73.5c10.3,19.8,28.7,39.8,52,56.5L61.4,131.3z"/>
	<path fill="#FFFFFF" d="M56.1,172.5c-20.6,0-36.9-6.4-44.8-19.5c-17-28.3,12.3-77.3,65.3-109.1c38-22.8,79.7-31.6,106.2-22.3
		l-0.5,1.4c-26.1-9.1-67.3-0.4-104.9,22.2C25,76.6-4,124.6,12.6,152.2c16.6,27.6,72.6,24.5,124.9-6.9c13.2-7.9,25.2-17.1,35.5-27.1
		l1,1.1c-10.4,10.1-22.5,19.3-35.8,27.3C109.7,163.7,80.1,172.5,56.1,172.5z"/>
	<path fill="#FFFFFF" d="M41.2,172.3c0.4,0.6,0.8,1.3,1.3,1.9c-0.1-0.4-0.2-0.8-0.1-1.4C42.3,172.3,41.8,172.4,41.2,172.3"/>
	<path fill="#FFFFFF" d="M43.8,175.9c0.1,0.1,0.2,0.2,0.3,0.3c0.1,0,0.3,0.1,0.4,0.1C44.3,176.2,44,176,43.8,175.9"/>
	<path fill="#FFFFFF" d="M45.6,176.9c0.3,0.5,0.8,0.9,1.6,1.2C46.7,177.6,46.1,177.2,45.6,176.9"/>
	<path fill="#FFFFFF" d="M45.2,175.7c-0.1,0.3-0.2,0.6-0.5,0.6c-0.1,0-0.1,0-0.2,0l0,0l1.1,0.6C45.3,176.5,45.2,176.1,45.2,175.7"/>
	<path fill="#FFFFFF" d="M45.2,174.7C45.2,174.7,45.2,174.7,45.2,174.7C45.2,174.7,45.2,174.7,45.2,174.7 M45.2,174.7
		c-0.1,0.3-0.1,0.7-0.1,1C45.2,175.3,45.2,174.9,45.2,174.7"/>
	<path fill="#FFFFFF" d="M45.5,166.3c0.1,0.9,0.3,1.8,0.6,2.8c0.1,0.7,1,1,2,1.1c1,0.2,2.2,0.2,3,0.6c0.4,0-1.1,1.6-0.4,1.6
		c1.5,0.5,3,0.4,4.1,1.1c0,0,0,0,0,0c0.3,0,0.4,0.6,0.5,1.2c0.1,0.6,0.2,1.2,0.6,1.2c0,0,0,0,0.1,0c0.1,0,0.3,0,0.4,0
		c0.9,0,2.1-0.2,3-0.5c1.1-0.4,1.6-0.9,0.7-1.2c-1.5-0.5-2.7-0.8-3.9-1.2c-1.2-0.4-2.3-0.9-3.5-1.5c-2.2-0.7-4.5-1.6-6.5-3.2
		C45.8,167.6,45.7,167,45.5,166.3"/>
	<path fill="#FFFFFF" d="M38.8,156c-0.6,0.1-1.3,0.1-1.5,0.7c0.3,0.4,0.8,1.1,0.8,1.1c-1.4,1.8-0.5,3.6,0.5,5.1
		c0.3-0.3,0.6-0.7,0.9-1c-0.2-0.4-0.4-0.7-0.6-0.7c-0.2,0-0.4,0.1-0.5,0.4C39.1,159.5,39.1,157.8,38.8,156"/>
	<path fill="#FFFFFF" d="M38.7,154.9L38.7,154.9l0.1,1.1c0.1,0,0.1,0,0.2,0C38.9,155.6,38.8,155.2,38.7,154.9"/>
	<path fill="#FFFFFF" d="M200.6,110.6c-1.4,0-2.5,0.2-2.6,0.2c-2.2,0.6-3.7,1.1-4.8,1.9c-1.1,0.7-1.8,1.6-2.5,2.6
		c-0.7,1-1.4,2.2-2.5,3.4c-0.9,1.1-2.2,2.2-3.9,3.2c0.5-0.2,0.8-0.3,1.1-0.3c0.3,0,0.5,0.1,0.6,0.3c0.3,0.4,0.2,1.4-0.4,2.6
		c-1.2,2.3-4.3,5.2-8.2,5.6c-2.9,0.3-5.2,1.1-7.2,2.4c-2,1.3-3.8,3-5.5,4.8c-3.5,3.7-7,7.9-11.7,10c-2.3,1-4.3,2.8-7,4.3
		c-7.3,3-13.8,6.6-20.6,10c-6.7,3.4-13.8,6.7-21.8,8.3c-4.1,1-7.4,3.6-10.9,5.2c-0.8,0.2-1.7,0.3-2.6,0.3c-0.8,0-1.6-0.1-2.4-0.1
		c-0.8-0.1-1.5-0.1-2.2-0.1c-0.1,0-0.3,0-0.4,0c-3.3,0.2-6.1,0.9-8.9,1.7c3.1-0.2,5.3-0.8,8.7-1.3c0.1,0,0.2,0,0.2,0
		c0.8,0,0.5,0.7-0.3,1.4c-0.8,0.8-2.2,1.7-3,2c-0.1,0-0.1,0.1-0.2,0.1c-0.3,0-0.7-0.4-1-0.8c-0.3-0.4-0.7-0.8-1-0.8
		c-0.1,0-0.1,0-0.2,0.1c0,0,0,0,0,0c-1.4,0-2.7,0.9-4.3,1.4c-0.1,0-0.1,0.1-0.2,0.1c-0.2,0-0.3-0.4-0.4-0.8
		c-0.1-0.4-0.1-0.8-0.2-0.8c0,0,0,0,0,0c-1,0.2-2,0.9-3,1.4c-0.7,0.4-1.3,0.7-1.8,0.7c-0.2,0-0.4,0-0.6-0.2c-1-0.5-1.8-1-2.6-1.5
		c-0.5-0.2-1-0.5-1.6-0.5c-0.4,0.1-0.8,0.2-1.2,0.2c-1.2,0.2-2.5,0.3-3.9,0.3c-1.9,0-3.8-0.2-5.6-0.6l-0.1,0.2
		c1.6,0.7,3,1.5,4.3,3.2c-0.3-0.5-0.1-0.9,0.4-0.9c0.1,0,0.2,0,0.4,0l0.3,1.2c-0.1,0-0.2,0-0.2,0c-1.7,0-3.4-0.2-4.1-2.2
		c0,0-0.8,0.1-1.3,0.2c-0.3-0.5,0-1.1,0.2-1.6c-0.3-0.1-0.7-0.3-1-0.4c0,0.6,0.4,1.6,0.8,2.3c0.4,0.8,0.8,1.3,0.8,1.3
		c4.4,2,8.8,3.3,13.2,4.3c0.3-0.3,0.6-0.6,0.8-0.6c0.1,0,0.2,0,0.3,0.1c0.3,0.4,0.6,0.7,0.9,0.9l1.9,0.4c0.2,0,0.5-0.1,0.7-0.1
		l-0.3,0.2c1.5,0.2,2.9,0.5,4.4,0.6c0.3,0,0.7-0.1,0.9-0.1c0.5-0.1,1-0.2,1.4-0.2c0.5,0,1,0.2,1.4,0.7l0.8,0.1
		c-0.1-0.1-0.1-0.1-0.2-0.2c0.1,0.1,0.2,0.1,0.3,0.2c1.1,0.1,2.3,0.1,3.4,0.2c1.2,0,2.4,0.1,3.7,0.1c1,0,2.1,0,3.1,0
		c7.4-0.1,14.5-1.4,21.4-3.1c7-1.8,13.8-4.1,21-6.7c7.8-2.8,15.3-5.8,22.8-9c7.4-3.2,13.6-7.8,19.6-12.7c3-2.4,6-4.9,9.2-7.4
		c3.2-2.5,6.5-5,10.2-7.5c2.8-2,5.8-5.8,8.3-10.1c2.5-4.2,4.3-9,5.3-12.3c0-2.5-0.9-4.3-2-5.4c-1.1-1.2-2.5-1.7-3.9-2
		C202.6,110.6,201.5,110.6,200.6,110.6 M63.7,179.9c0.1-0.6,0.2-1.2,0.2-1.7C63.9,178.7,63.8,179.3,63.7,179.9
		c-0.5-0.3-1.1-0.9-1.6-1.2C62.6,178.9,63.2,179.6,63.7,179.9 M86.2,184.4C86.3,184.4,86.3,184.4,86.2,184.4
		c0.3-0.3,0.5-0.6,0.8-0.6C86.8,183.8,86.5,184.1,86.2,184.4C86.3,184.4,86.3,184.4,86.2,184.4 M87.2,183.8
		C87.2,183.8,87.2,183.8,87.2,183.8C87.2,183.8,87.2,183.8,87.2,183.8 M89.1,185.6c-0.7-0.6-1.3-1.2-1.8-1.6
		c-0.1-0.1-0.1-0.1-0.2-0.2c0.1,0,0.1,0.1,0.2,0.2C87.9,184.4,88.5,185,89.1,185.6 M72.8,185.7L72.8,185.7c0.4-0.2,0.3-0.6,0.1-0.9
		c-0.2-0.2-0.4-0.5-0.6-0.8c0.1,0.2,0.4,0.5,0.6,0.8c0.3,0.3,0.6,0.5,1,0.7C73.5,185.6,73.2,185.6,72.8,185.7 M84.9,184.3
		C84.8,184.3,84.8,184.3,84.9,184.3C84.8,184.3,84.8,184.3,84.9,184.3 M84.9,184.3C84.9,184.3,84.9,184.3,84.9,184.3
		C84.9,184.3,84.9,184.3,84.9,184.3 M85.5,184.9c-0.2,0-0.4-0.2-0.6-0.6C85.1,184.7,85.3,184.9,85.5,184.9 M85.5,184.9
		C85.5,184.9,85.5,184.9,85.5,184.9C85.5,184.9,85.5,184.9,85.5,184.9 M89.1,185.6c0.3-0.2,0.7-0.2,1.1-0.2c0.8,0,1.7,0.3,2.5,0.9
		c-0.4,0.4-0.9,0.5-1.3,0.5C90.7,186.8,89.9,186.3,89.1,185.6 M74.8,185.4c0.2,0,0.3,0,0.5,0c0.6,0,1.1,0.2,1.5,0.8
		c-1.2-0.2-2.5-0.3-3.7-0.6c0.3,0,0.7,0,0.9-0.1c0,0,0.1,0,0.1,0c0,0-0.1,0-0.1-0.1C74.2,185.5,74.5,185.4,74.8,185.4 M184.3,121.9
		c-0.2,0.1-0.5,0.3-0.8,0.4C183.8,122.2,184,122,184.3,121.9 M58.6,180.7c0,0.1,0.1,0.1,0.2,0.2C58.7,180.8,58.6,180.8,58.6,180.7"
		/>
	<path fill="#FFFFFF" d="M75.3,185.4c-0.2,0-0.3,0-0.5,0c-0.2,0-0.5,0.1-0.7,0.1c0,0-0.1,0-0.1,0c-0.3,0-0.6,0.1-0.9,0.1
		c1.2,0.2,2.5,0.4,3.7,0.6C76.4,185.6,75.9,185.4,75.3,185.4"/>
	<path fill="#FFFFFF" d="M166.5,33c-4.5,0-7.9,0.4-9.4,0.7c-2.4,0.6-4.6,1.8-6.8,3.1c-2.2,1.2-4.3,2.5-6.9,3.3
		c-1.7,0.5-3.4,0.2-4.5,1.2c0,0.4-0.5,0.9-1.1,1.4c-3.3,1.2-7.3,0.7-9.3,2.8c-0.2,0.1-0.4,0.2-0.7,0.2c-1.1,0-2.9-0.7-4.6-1.4
		c-1.6-0.6-3.1-1.2-3.8-1.2c-0.2,0-0.4,0.1-0.3,0.3c0.3,2.2,0.4,2.7,0,2.7c-0.2,0-0.4-0.1-0.8-0.2c-0.4-0.1-0.8-0.2-1.4-0.2
		c-0.6,0-1.2,0.1-2,0.3c-0.6,0.1-1.3,2.6-2.4,2.8c-3.9,0.4-4.1,2.3-7.6,4.6c-2.4,2-4.2,2.6-5.9,3.2c-1.7,0.7-3.2,1.5-4.7,4.1
		c-0.2,0.3-1.8,1.9-3.3,3.5c-1.5,1.6-3,3.1-3,3.1c-2.9,1.6-4.7,3.5-6.6,5c-1.9,1.5-3.9,2.7-7.1,3c-1.2,2.9-3.9,4.9-6.8,7
		c-2.9,2-6,4-7.9,6.5c-1.9,2.5-3.7,3.8-5.7,5.1c-2,1.2-4.3,2.2-6.9,4.1c-1.2,1.2-1.7,2.3-2.8,2.8c-1.2,0.5-0.5,3.4-1.6,4.7l-1.1-0.9
		c-0.4,0.4-1.1,1.4-1.5,1.8c-0.1,0.2-0.3,0.2-0.4,0.2c-0.2,0-0.5-0.2-0.7-0.4c-0.5-0.4-1-0.8-1.7-0.8c-0.3,0-0.6,0.1-1,0.3
		c-1.8,2-3.4,4.2-4.7,6.7c-0.2,2.8,0,5.6,0.4,8.4c0.6,0.2,1.3,0.5,1.7,0.9c0.2,0.8,0.5,1.6,0.8,2.4c1.4,0.6,3,0.5,3.9,0.9
		c2,0.1,4,1,6,1.6c1.6,0.5,3.1,0.9,4.6,0.9c0.4,0,0.7,0,1.1-0.1c0.5-0.1,0.9-0.9,1.5-1.8c0.5-0.9,1.3-1.9,2.3-2.4c0.1,0,0.1,0,0.2,0
		c0.7,0,1.8,0.7,3,1.1c0.1-0.8,0.7-1.1,1.3-1.1c0.5,0,1.2,0.2,1.7,0.6l0.4-0.6c0.5,0.2,1.8,0.6,1.8,0.6c1.2-1.5,3.1-2.9,4.6-4.4
		c1.5-1.5,2.8-3,2.9-5c0.2-0.8,0-2.5-0.1-3.6c0-0.6,1.3-1.1,1.6-1.3c-0.7-1.2-2.1-1.9-3.1-2.8c1.6-1,4-2.5,5.5-4
		c1.5-1.5,2.3-3.2,0.2-4.6c2.1-1.9,0.7-3.7,2.7-5.9c2.6-3,6.3-6.5,10.3-9.7c2-1.9,4.3-3.4,6.6-4.9c0.8-0.6,1.7-1.1,2.5-1.7
		c8.6-5.7,17.2-9.1,25.7-12.3c4.2-1.6,8.5-3.1,12.8-4.7c4.3-1.6,8.8-3.4,13.5-5.5c9.3-4,19.9-6.3,30.1-6.3c0.3,0,0.5,0,0.8,0
		c5.2,0.1,10.2,0.7,14.8,1.9c4.6,1.2,8.6,3,11.8,5.2c3.2,2.2,5.3,4.8,6.5,7.2c1.2,2.5,1.6,4.9,1.5,6.9c-0.1,2.1-0.5,3.9-1,5.4
		c-0.5,1.5-1,2.7-1.3,3.5c0.5,0.8,0.9,1.6,1.3,2.4c1.4-0.9,2.8-2.8,3.7-5.1c0.9-2.4,1.3-5.2,0.8-8.1c-0.4-2.9-1.7-5.8-3.5-8.1
		c-1.8-2.4-3.9-4.3-5.7-5.8c-2.9-2-5.4-3.4-7.3-4.5c-0.3-0.2-0.4-0.2-0.3-0.2c0.1,0,0.7,0.2,1.6,0.7c1.4,0.7,3.8,2.1,6,4
		c2.2,1.6,4.5,3.5,6.4,6.2c-0.6-2.1-1.6-4.2-2.9-6.1c-1.2-1.9-2.6-3.6-3.9-4.9c-2.4-1.2-4.9-2.3-7.5-3.2c-5.8-2-11.9-2.9-17.9-3.4
		c-3.8-0.3-7.5-0.4-11.3-0.4c-2.3,0-4.6,0-6.9,0.1c-2.2,0-5.8,0.4-9.3,0.8c-3.5,0.4-7,1-9.2,1c8.8-1.9,17.8-3.1,26.9-3.3
		c1,0,2,0,3,0c8.1,0,16.3,0.8,24.2,3.1c-0.5-0.2-0.9-0.4-1.4-0.7c-4.7-1.4-9.5-2.4-14.3-2.9c-4.5-0.5-9-0.8-13.5-0.8
		c-0.4,0-0.7,0-1.1,0c-1.4,0.1-2.8,0.1-4.3,0.1c-0.2,0-0.5,0-0.7,0c1.7-0.1,3.4-0.1,5-0.1c3.9-0.2,7.7-0.7,12-0.7c0.4,0,0.9,0,1.3,0
		c3,0.2,6.3,1.2,9.2,1.7c2.4,0.5,4.4,1.6,6.4,2.7c1.4,0.4,2.8,0.9,4.1,1.4c0.4,0.1,0.9,0.1,1.3,0.3l0-0.1c-0.5-1.1-3.1-3-7-4.7
		c-3.9-1.8-9.2-3.3-14.6-4.3c-5.4-1-11-1.4-15.6-1.4C166.6,33,166.5,33,166.5,33"/>
	<path fill="#FFFFFF" d="M1031.5,64c0,9.5-2.6,16.1-7.8,19.7c-5.2,3.6-13.4,5.4-24.6,5.4c-0.9,0-2.2,0-4-0.1
		c-1.8-0.1-3.7-0.1-5.6-0.2c-1.9-0.1-3.8-0.1-5.6-0.2c-1.8-0.1-3.1-0.1-4-0.1V39.8c1-0.1,2.3-0.2,4-0.3c1.7-0.1,3.4-0.1,5.3-0.2
		c1.9-0.1,3.7-0.1,5.5-0.2c1.8-0.1,3.3-0.1,4.4-0.1c10.8,0,18.9,1.8,24.3,5.4c5.4,3.6,8.1,9.5,8.1,17.7V64z M1066,171.1l-33.9-63.1
		c9-3.5,16.1-8.8,21.4-16c5.3-7.2,7.9-16.6,7.9-28.1V62c0-9.2-1.7-17-5.1-23.2c-3.4-6.3-7.9-11.3-13.6-15
		c-5.7-3.7-12.3-6.4-19.8-8.1c-7.5-1.7-15.4-2.5-23.8-2.5c-7.9,0-15.6,0.3-22.9,0.8c-7.4,0.5-13.9,1.2-19.5,2.1
		c-2.2,0.3-3.9,0.9-5.1,1.8c-1.2,0.9-1.8,2.5-1.8,4.6v148.6c0,1.2,0.4,2.2,1.3,3c0.9,0.9,1.9,1.3,3,1.3h21.6c1.1,0,2.1-0.4,2.9-1.3
		c0.8-0.9,1.2-1.9,1.2-3v-58.3c2.4,0.1,5.5,0.3,9.3,0.5c3.7,0.2,7.1,0.3,9.9,0.3h3l31.1,57.5c0.6,1.2,1.2,2.2,1.7,3
		c0.6,0.9,1.4,1.3,2.6,1.3h26.4c1.7,0,2.6-0.9,2.6-2.6C1066.5,172.1,1066.3,171.5,1066,171.1 M908.8,116V19c0-1.2-0.4-2.1-1.3-2.9
		c-0.9-0.8-1.9-1.2-3-1.2h-21.4c-1.2,0-2.2,0.4-3,1.2c-0.9,0.8-1.3,1.8-1.3,2.9v97.1c0,6.2-0.4,11.6-1.3,16.1
		c-0.9,4.5-2.4,8.3-4.6,11.4c-2.2,3-5.3,5.3-9.1,6.7c-3.8,1.4-8.6,2.2-14.4,2.2c-5.9,0-10.7-0.7-14.5-2.2c-3.8-1.4-6.7-3.7-9-6.7
		c-2.2-3-3.8-6.8-4.6-11.4c-0.9-4.5-1.3-9.9-1.3-16.1V19.1c0-1.2-0.4-2.1-1.3-2.9c-0.9-0.8-1.9-1.2-3-1.2h-21.4
		c-1.2,0-2.2,0.4-3,1.2c-0.9,0.8-1.3,1.8-1.3,2.9v97c0,11.5,1.5,21.2,4.4,28.9c2.9,7.8,7.1,14,12.3,18.8c5.3,4.8,11.5,8.2,18.8,10.3
		c7.3,2.1,15.2,3.1,23.9,3.1c8.6,0,16.6-1.1,23.9-3.1c7.3-2.1,13.5-5.5,18.8-10.3c5.3-4.8,9.4-11,12.3-18.8
		C907.3,137.2,908.8,127.6,908.8,116 M768.6,169.6v-13.8c0-1.2-0.4-2.2-1.3-3c-0.9-0.9-1.9-1.3-3-1.3h-39.7
		c-6.3,0-10.7-1.3-13.2-3.9c-2.4-2.6-3.7-7.5-3.7-14.7V19.3c0-1.2-0.4-2.2-1.3-3c-0.9-0.9-1.9-1.3-3-1.3H682c-1.2,0-2.2,0.4-3,1.3
		c-0.9,0.9-1.3,1.9-1.3,3v113.6c0,9.2,1.3,16.7,3.9,22.5c2.6,5.8,6.1,10.3,10.6,13.5c4.5,3.2,9.7,5.4,15.8,6.6
		c6,1.2,12.6,1.7,19.7,1.7c2.9,0,6.1-0.1,9.7-0.2c3.6-0.1,7.1-0.4,10.6-0.6c3.5-0.3,6.7-0.6,9.6-1c3-0.4,5.2-0.8,6.8-1.2
		c1.6-0.3,2.7-0.7,3.3-1.3C768.3,172.3,768.6,171.2,768.6,169.6 M613.9,64c0,9.5-2.6,16.1-7.8,19.7c-5.2,3.6-13.4,5.4-24.6,5.4
		c-0.9,0-2.2,0-4-0.1c-1.8-0.1-3.7-0.1-5.6-0.2c-1.9-0.1-3.8-0.1-5.6-0.2c-1.8-0.1-3.1-0.1-4-0.1V39.8c1-0.1,2.3-0.2,4-0.3
		c1.7-0.1,3.4-0.1,5.3-0.2c1.9-0.1,3.7-0.1,5.5-0.2c1.8-0.1,3.3-0.1,4.4-0.1c10.8,0,18.9,1.8,24.3,5.4c5.4,3.6,8.1,9.5,8.1,17.7V64z
		 M648.5,171.1L614.6,108c9-3.5,16.1-8.8,21.4-16c5.3-7.2,7.9-16.6,7.9-28.1V62c0-9.2-1.7-17-5.1-23.2c-3.4-6.3-7.9-11.3-13.6-15
		c-5.7-3.7-12.3-6.4-19.8-8.1c-7.5-1.7-15.4-2.5-23.8-2.5c-7.9,0-15.6,0.3-22.9,0.8c-7.4,0.5-13.9,1.2-19.5,2.1
		c-2.2,0.3-3.9,0.9-5.1,1.8c-1.2,0.9-1.8,2.5-1.8,4.6v148.6c0,1.2,0.4,2.2,1.3,3c0.9,0.9,1.9,1.3,3,1.3h21.6c1.2,0,2.1-0.4,2.9-1.3
		c0.8-0.9,1.2-1.9,1.2-3v-58.3c2.4,0.1,5.5,0.3,9.3,0.5c3.7,0.2,7.1,0.3,9.9,0.3h3l31.1,57.5c0.6,1.2,1.2,2.2,1.7,3
		c0.6,0.9,1.4,1.3,2.6,1.3h26.4c1.7,0,2.6-0.9,2.6-2.6C648.9,172.1,648.8,171.5,648.5,171.1 M493.6,169.6v-13.8c0-1.2-0.4-2.2-1.3-3
		c-0.9-0.9-1.9-1.3-3-1.3h-44.1c-6.3,0-10.8-1.3-13.3-3.9c-2.5-2.6-3.8-7.5-3.8-14.7V105h58.5c1.1,0,2.2-0.4,3-1.3
		c0.9-0.9,1.3-1.9,1.3-3V85.1c0-1.1-0.4-2.2-1.3-3c-0.9-0.9-1.9-1.3-3-1.3h-58.5V57.5c0-7.2,1.3-12.1,3.8-14.7
		c2.5-2.6,6.9-3.9,13.3-3.9h44.1c1.1,0,2.2-0.4,3-1.3c0.9-0.9,1.3-1.9,1.3-3V20.8c0-1.6-0.3-2.7-1-3.2c-0.6-0.6-1.8-1-3.3-1.3
		c-1.7-0.3-3.6-0.6-5.7-1c-2.1-0.4-4.7-0.7-7.8-1c-3.1-0.3-6.8-0.5-11.2-0.8c-4.4-0.2-9.8-0.3-16.3-0.3c-7.1,0-13.6,0.6-19.7,1.7
		c-6.1,1.2-11.3,3.3-15.8,6.6c-4.5,3.2-8.1,7.7-10.7,13.5c-2.6,5.8-3.9,13.2-3.9,22.5v75.4c0,9.2,1.3,16.7,3.9,22.5
		c2.6,5.8,6.2,10.3,10.7,13.5c4.5,3.2,9.8,5.4,15.8,6.6c6.1,1.2,12.6,1.7,19.7,1.7c6.5,0,11.9-0.1,16.3-0.3
		c4.4-0.2,8.1-0.5,11.2-0.8c3.1-0.3,5.7-0.6,7.8-1c2.1-0.4,4-0.7,5.7-1c1.6-0.3,2.7-0.7,3.3-1.3
		C493.3,172.3,493.6,171.2,493.6,169.6 M334.9,64.9c0,8.7-2.5,15.2-7.5,19.5c-5,4.3-13.3,6.5-24.9,6.5c-0.9,0-2.2,0-4-0.1
		c-1.8-0.1-3.7-0.1-5.6-0.2c-1.9-0.1-3.8-0.1-5.6-0.2c-1.8-0.1-3.1-0.1-4-0.1V38.7c1-0.1,2.3-0.3,4-0.3c1.7-0.1,3.4-0.1,5.3-0.2
		c1.9-0.1,3.7-0.1,5.5-0.2c1.8-0.1,3.3-0.1,4.4-0.1c10.8,0,18.9,1.9,24.3,5.7c5.4,3.8,8.1,10.3,8.1,19.4V64.9z M364.9,63.1
		c0-9.5-1.7-17.5-5.1-23.9c-3.4-6.4-7.9-11.6-13.6-15.4c-5.7-3.9-12.3-6.6-19.8-8.2c-7.5-1.6-15.4-2.4-23.8-2.4
		c-7.9,0-15.6,0.3-22.9,0.8c-7.4,0.5-13.9,1.2-19.5,2.1c-2.2,0.3-3.9,0.9-5.1,1.8c-1.2,0.9-1.8,2.5-1.8,4.6v148.6
		c0,1.2,0.4,2.2,1.3,3c0.9,0.9,1.9,1.3,3,1.3h21.6c1.2,0,2.1-0.4,2.9-1.3c0.8-0.9,1.2-1.9,1.2-3v-56.4c2.5,0.1,5.6,0.3,9.3,0.5
		c3.8,0.2,7.1,0.3,10,0.3c8.4,0,16.3-0.8,23.8-2.5c7.5-1.7,14.1-4.5,19.8-8.4c5.7-4,10.3-9.2,13.6-15.7c3.4-6.5,5.1-14.5,5.1-24
		V63.1z"/>
</g>
</svg>
