<?xml version="1.0" encoding="UTF-8" standalone="no"?>
<svg
   version="1.1"
   id="svg82"
   xml:space="preserve"
   width="294.93201"
   height="338.74667"
   viewBox="0 0 294.93201 338.74667"
   sodipodi:docname="perlur-logo-white.svg"
   inkscape:version="1.1-dev (b39e6d56, 2020-09-19)"
   xmlns:inkscape="http://www.inkscape.org/namespaces/inkscape"
   xmlns:sodipodi="http://sodipodi.sourceforge.net/DTD/sodipodi-0.dtd"
   xmlns="http://www.w3.org/2000/svg"
   xmlns:svg="http://www.w3.org/2000/svg"><defs
     id="defs86"><clipPath
       clipPathUnits="userSpaceOnUse"
       id="clipPath96"><path
         d="M 0,254.06 H 221.199 V 0 H 0 Z"
         id="path94" /></clipPath></defs><sodipodi:namedview
     pagecolor="#ffffff"
     bordercolor="#666666"
     borderopacity="1"
     objecttolerance="10"
     gridtolerance="10"
     guidetolerance="10"
     inkscape:pageopacity="0"
     inkscape:pageshadow="2"
     inkscape:window-width="1440"
     inkscape:window-height="775"
     id="namedview84"
     showgrid="false"
     inkscape:pagecheckerboard="true"
     inkscape:zoom="0.73534086"
     inkscape:cx="446.7316"
     inkscape:cy="49.636844"
     inkscape:window-x="0"
     inkscape:window-y="23"
     inkscape:window-maximized="1"
     inkscape:current-layer="g92" /><g
     id="g88"
     inkscape:groupmode="layer"
     inkscape:label="02_PERLUR_Monochromatic_Tall_No_Border_Transparent_Background"
     transform="matrix(1.3333333,0,0,-1.3333333,0,338.74667)"><g
       id="g90"><g
         id="g92"
         clip-path="url(#clipPath96)"><g
           id="g98"
           transform="translate(61.3775,122.7696)"
           style="fill:#ffffff"><path
             d="m 0,0 c -23.44,16.827 -42.056,37.089 -52.419,57.054 -10.541,20.307 -11.824,39.017 -3.613,52.684 9.122,15.182 28.732,22.778 55.225,21.392 26.32,-1.379 56.336,-11.464 84.519,-28.398 40.392,-24.27 70.267,-59.303 76.11,-89.252 l -1.473,-0.287 c -5.765,29.551 -35.365,64.193 -75.41,88.253 -27.976,16.81 -57.746,26.82 -83.825,28.186 -25.913,1.359 -45.038,-5.983 -53.86,-20.666 -7.933,-13.203 -6.634,-31.394 3.658,-51.22 C -40.831,37.985 -22.377,17.91 0.875,1.219 Z"
             style="fill:#ffffff;fill-opacity:1;fill-rule:nonzero;stroke:none"
             id="path100" /></g><g
           id="g102"
           transform="translate(56.0694,81.5811)"
           style="fill:#ffffff"><path
             d="m 0,0 c -20.562,-0.002 -36.923,6.426 -44.779,19.499 -17.016,28.323 12.261,77.275 65.264,109.123 37.995,22.829 79.684,31.588 106.201,22.321 l -0.494,-1.416 c -26.118,9.128 -67.305,0.419 -104.935,-22.191 -52.294,-31.422 -81.341,-79.45 -64.75,-107.064 16.591,-27.614 72.636,-24.513 124.931,6.909 13.225,7.946 25.177,17.052 35.522,27.065 l 1.043,-1.078 C 107.576,43.076 95.534,33.9 82.211,25.895 53.674,8.748 23.981,0.001 0,0"
             style="fill:#ffffff;fill-opacity:1;fill-rule:nonzero;stroke:none"
             id="path104" /></g><g
           id="g106"
           transform="translate(41.2037,81.7168)"><path
             d="M 0,0 C 0.41,-0.636 0.848,-1.264 1.307,-1.876 1.179,-1.486 1.133,-1.041 1.203,-0.515 1.109,0.018 0.572,-0.063 0,0"
             style="fill:#4dc196;fill-opacity:1;fill-rule:nonzero;stroke:none"
             id="path108" /></g><g
           id="g110"
           transform="translate(43.8399,78.1895)"><path
             d="M 0,0 C 0.088,-0.107 0.18,-0.211 0.268,-0.306 0.4,-0.35 0.53,-0.389 0.652,-0.417 0.429,-0.287 0.206,-0.15 0,0"
             style="fill:#4dc196;fill-opacity:1;fill-rule:nonzero;stroke:none"
             id="path112" /></g><g
           id="g114"
           transform="translate(45.5587,77.1621)"><path
             d="M 0,0 C 0.306,-0.499 0.806,-0.944 1.57,-1.227 1.11,-0.707 0.568,-0.333 0,0"
             style="fill:#4dc196;fill-opacity:1;fill-rule:nonzero;stroke:none"
             id="path116" /></g><g
           id="g118"
           transform="translate(45.1773,78.3672)"><path
             d="m 0,0 c -0.051,-0.336 -0.169,-0.624 -0.499,-0.624 -0.052,0 -0.108,0.008 -0.17,0.022 l -0.016,0.007 1.066,-0.61 C 0.154,-0.83 0.033,-0.414 0,0"
             style="fill:#4dc196;fill-opacity:1;fill-rule:nonzero;stroke:none"
             id="path120" /></g><g
           id="g122"
           transform="translate(45.2344,79.3682)"><path
             d="M 0,0 C -0.062,-0.328 -0.08,-0.663 -0.057,-1 -0.001,-0.644 -0.036,-0.224 0,0 M 0.008,0.04 C 0.005,0.027 0.002,0.014 0,0 0.002,0.014 0.005,0.026 0.008,0.04"
             style="fill:#4dc196;fill-opacity:1;fill-rule:nonzero;stroke:none"
             id="path124" /></g><g
           id="g126"
           transform="translate(45.4864,87.7129)"><path
             d="M 0,0 C 0.099,-0.88 0.26,-1.79 0.569,-2.768 0.701,-3.466 1.591,-3.729 2.618,-3.875 3.652,-4.028 4.806,-4.065 5.646,-4.502 6.021,-4.521 4.5,-6.053 5.29,-6.105 6.794,-6.594 8.321,-6.497 9.416,-7.18 c 0.014,10e-4 0.027,0.002 0.04,0.002 0.345,0 0.414,-0.575 0.512,-1.16 0.093,-0.575 0.215,-1.157 0.568,-1.157 0.018,0 0.037,10e-4 0.056,0.004 0.124,-0.015 0.266,-0.022 0.422,-0.022 0.856,0 2.119,0.208 3.021,0.548 1.071,0.399 1.647,0.909 0.669,1.238 -1.492,0.458 -2.719,0.831 -3.888,1.244 C 9.65,-6.069 8.534,-5.621 7.36,-4.936 5.117,-4.24 2.838,-3.361 0.82,-1.767 0.356,-1.257 0.171,-0.621 0,0"
             style="fill:#4dc196;fill-opacity:1;fill-rule:nonzero;stroke:none"
             id="path128" /></g><g
           id="g130"
           transform="translate(38.836,98.0586)"><path
             d="m 0,0 c -0.587,-0.132 -1.27,-0.12 -1.549,-0.687 0.259,-0.363 0.794,-1.061 0.798,-1.061 -1.432,-1.768 -0.524,-3.565 0.512,-5.07 0.285,0.334 0.576,0.664 0.87,0.989 -0.164,0.446 -0.398,0.677 -0.628,0.677 -0.182,0 -0.36,-0.146 -0.496,-0.443 C 0.254,-3.477 0.259,-1.804 0,0"
             style="fill:#4dc196;fill-opacity:1;fill-rule:nonzero;stroke:none"
             id="path132" /></g><g
           id="g134"
           transform="translate(38.7027,99.1992)"><path
             d="m 0,0 -0.052,-0.039 0.185,-1.102 c 0.062,0.01 0.122,0.029 0.187,0.044 C 0.203,-0.731 0.097,-0.363 0,0"
             style="fill:#4dc196;fill-opacity:1;fill-rule:nonzero;stroke:none"
             id="path136" /></g><g
           id="g138"
           transform="translate(58.5933,73.3682)"
           style="fill:#ffffff"><path
             d="M 0,0 C 0.042,-0.068 0.093,-0.141 0.153,-0.215 0.102,-0.142 0.051,-0.069 0,0 m 125.665,58.801 c -0.229,-0.113 -0.479,-0.256 -0.753,-0.432 0.261,0.142 0.512,0.287 0.753,0.432 M 16.185,-4.749 c 0.165,0.02 0.326,0.032 0.483,0.032 0.591,0 1.109,-0.178 1.469,-0.809 -1.244,0.159 -2.478,0.343 -3.704,0.556 0.346,0.021 0.67,0.038 0.936,0.087 0.031,0.006 0.062,0.011 0.093,0.017 -0.045,0.015 -0.088,0.032 -0.131,0.051 0.28,0.038 0.566,0.064 0.854,0.066 m 14.362,-0.188 c 0.342,0.157 0.725,0.235 1.129,0.235 0.801,0 1.687,-0.307 2.506,-0.903 -0.435,-0.368 -0.872,-0.519 -1.303,-0.519 -0.819,0 -1.614,0.544 -2.332,1.187 m -3.625,0.721 h 0.013 -0.013 m -0.01,0 c -0.198,0.005 -0.405,0.16 -0.624,0.574 0.219,-0.414 0.426,-0.569 0.624,-0.574 m -0.632,0.588 c -0.003,0.006 -0.005,0.011 -0.008,0.017 0.003,-0.006 0.005,-0.011 0.008,-0.017 m -0.023,0.044 c -0.002,0.005 -0.005,0.01 -0.007,0.017 0.002,-0.007 0.005,-0.012 0.007,-0.017 m -12.046,-1.424 0.019,0.01 c 0.389,0.206 0.311,0.544 0.122,0.879 -0.225,0.249 -0.423,0.54 -0.583,0.839 0.102,-0.19 0.396,-0.512 0.583,-0.839 0.274,-0.297 0.592,-0.546 0.979,-0.696 -0.382,-0.058 -0.75,-0.125 -1.12,-0.193 m 16.336,0.071 c -0.659,0.583 -1.256,1.244 -1.791,1.645 -0.06,0.077 -0.12,0.129 -0.18,0.161 0.06,-0.032 0.12,-0.084 0.18,-0.161 0.535,-0.401 1.132,-1.062 1.791,-1.645 m -1.983,1.812 c -0.003,10e-4 -0.005,0.002 -0.007,0.003 0.002,-0.001 0.004,-0.002 0.007,-0.003 m -0.913,-0.58 c 0.014,0.017 0.03,0.034 0.044,0.052 0.247,0.28 0.487,0.561 0.729,0.561 -0.242,0 -0.481,-0.281 -0.729,-0.561 -0.014,-0.018 -0.03,-0.035 -0.044,-0.052 M 5.11,0.817 C 5.198,1.408 5.282,1.994 5.281,2.545 5.282,1.994 5.198,1.408 5.11,0.817 4.591,1.078 3.97,1.756 3.482,2.04 3.97,1.756 4.591,1.078 5.11,0.817 m 136.875,69.32 c -1.411,0 -2.454,-0.17 -2.636,-0.22 -2.232,-0.566 -3.704,-1.148 -4.797,-1.875 -1.092,-0.723 -1.805,-1.585 -2.513,-2.597 -0.707,-1.01 -1.415,-2.17 -2.484,-3.397 -0.938,-1.074 -2.161,-2.201 -3.89,-3.247 0.454,0.224 0.822,0.328 1.107,0.328 0.276,0 0.475,-0.096 0.604,-0.272 0.331,-0.447 0.189,-1.423 -0.407,-2.566 -1.167,-2.293 -4.254,-5.188 -8.158,-5.613 -2.894,-0.251 -5.177,-1.118 -7.192,-2.4 -2.012,-1.277 -3.756,-2.967 -5.495,-4.8 -3.454,-3.652 -6.986,-7.911 -11.698,-9.98 -2.341,-1.023 -4.322,-2.815 -6.95,-4.282 C 80.159,26.259 73.673,22.658 66.905,19.222 60.161,15.809 53.074,12.565 45.144,10.951 41.019,9.927 37.738,7.306 34.26,5.733 33.419,5.498 32.545,5.421 31.676,5.421 c -0.817,0 -1.628,0.068 -2.403,0.137 -0.776,0.067 -1.515,0.135 -2.185,0.135 -0.15,0 -0.296,-0.004 -0.439,-0.01 -3.311,-0.199 -6.113,-0.928 -8.894,-1.706 3.069,0.225 5.306,0.788 8.705,1.273 0.091,0.01 0.172,0.016 0.245,0.016 0.833,0 0.479,-0.658 -0.297,-1.417 C 25.567,3.025 24.207,2.111 23.427,1.801 23.363,1.754 23.296,1.734 23.226,1.734 c -0.301,0 -0.651,0.385 -0.998,0.769 -0.347,0.386 -0.691,0.77 -0.982,0.77 -0.065,0 -0.127,-0.019 -0.186,-0.062 h -0.045 c -1.4,0 -2.725,-0.896 -4.299,-1.38 -0.064,-0.039 -0.12,-0.057 -0.17,-0.057 -0.231,0 -0.312,0.391 -0.366,0.783 -0.053,0.39 -0.08,0.781 -0.204,0.781 -0.013,0 -0.028,-0.005 -0.044,-0.015 C 14.89,3.17 13.897,2.469 12.979,1.911 12.319,1.507 11.699,1.176 11.174,1.176 c -0.2,0 -0.388,0.049 -0.558,0.159 C 9.662,1.819 8.834,2.321 8.056,2.833 7.543,3.071 7.037,3.287 6.457,3.355 6.063,3.271 5.655,3.197 5.244,3.129 4.023,2.934 2.719,2.833 1.387,2.833 c -1.87,0 -3.792,0.197 -5.609,0.602 L -4.281,3.249 C -2.672,2.597 -1.28,1.755 0,0 -0.312,0.515 -0.125,0.869 0.411,0.869 0.523,0.869 0.65,0.855 0.792,0.821 l 0.297,-1.248 c -0.08,-0.001 -0.161,-0.001 -0.242,-0.001 -1.679,0 -3.421,0.217 -4.084,2.197 0.002,-10e-4 -0.848,-0.112 -1.278,-0.152 -0.32,0.508 0.042,1.084 0.234,1.632 -0.324,0.135 -0.66,0.258 -1,0.382 0.033,-0.647 0.409,-1.568 0.816,-2.32 0.403,-0.754 0.823,-1.336 0.823,-1.335 4.418,-2.032 8.813,-3.326 13.174,-4.296 0.312,0.269 0.566,0.584 0.849,0.584 0.091,0 0.185,-0.034 0.285,-0.11 0.282,-0.421 0.595,-0.703 0.918,-0.905 l 1.924,-0.351 c 0.231,0.024 0.465,0.058 0.703,0.094 l -0.336,-0.159 c 1.473,-0.247 2.947,-0.457 4.428,-0.636 0.345,0.043 0.673,0.074 0.941,0.139 0.491,0.112 0.975,0.229 1.42,0.229 0.542,0 1.025,-0.173 1.389,-0.743 l 0.801,-0.064 c -0.05,0.066 -0.104,0.118 -0.155,0.191 0.119,-0.064 0.22,-0.133 0.302,-0.199 1.125,-0.078 2.258,-0.138 3.397,-0.181 1.208,-0.045 2.424,-0.069 3.652,-0.069 1.032,0 2.072,0.018 3.123,0.05 7.418,0.145 14.483,1.352 21.438,3.093 6.963,1.753 13.833,4.051 21.048,6.712 7.848,2.832 15.34,5.815 22.76,8.999 7.406,3.194 13.572,7.837 19.588,12.67 3.015,2.426 6.005,4.912 9.166,7.398 3.162,2.492 6.496,4.977 10.237,7.538 2.804,2.016 5.831,5.814 8.264,10.081 2.46,4.246 4.258,8.968 5.334,12.314 -0.047,2.517 -0.859,4.272 -1.974,5.43 -1.12,1.161 -2.544,1.747 -3.933,2.049 -1.105,0.229 -2.19,0.303 -3.116,0.303"
             style="fill:#ffffff;fill-opacity:1;fill-rule:nonzero;stroke:none"
             id="path140" /></g><g
           id="g142"
           transform="translate(75.2608,68.6524)"><path
             d="m 0,0 c -0.156,0 -0.318,-0.014 -0.483,-0.033 -0.235,-0.029 -0.478,-0.072 -0.723,-0.116 -0.031,-0.006 -0.062,-0.012 -0.093,-0.017 -0.266,-0.05 -0.59,-0.067 -0.936,-0.088 1.226,-0.213 2.46,-0.397 3.704,-0.557 C 1.109,-0.18 0.591,0 0,0"
             style="fill:#4dc196;fill-opacity:1;fill-rule:nonzero;stroke:none"
             id="path144" /></g><g
           id="g146"
           transform="translate(166.4747,221.1045)"
           style="fill:#ffffff"><path
             d="m 0,0 c -4.467,0 -7.94,-0.351 -9.438,-0.74 -2.436,-0.597 -4.604,-1.806 -6.771,-3.053 -2.171,-1.248 -4.341,-2.535 -6.887,-3.329 -1.698,-0.532 -3.399,-0.196 -4.508,-1.175 0.011,-0.444 -0.537,-0.937 -1.081,-1.432 -3.291,-1.158 -7.273,-0.716 -9.321,-2.802 -0.166,-0.117 -0.402,-0.168 -0.691,-0.168 -1.075,0 -2.892,0.709 -4.609,1.372 -1.598,0.622 -3.104,1.209 -3.75,1.209 -0.232,0 -0.353,-0.076 -0.328,-0.252 0.315,-2.173 0.39,-2.673 -0.011,-2.673 -0.169,0 -0.427,0.091 -0.788,0.182 -0.362,0.09 -0.827,0.181 -1.416,0.181 -0.553,0 -1.213,-0.08 -1.999,-0.316 -0.563,-0.116 -1.267,-2.553 -2.36,-2.793 -3.943,-0.417 -4.137,-2.308 -7.586,-4.586 -2.363,-2.016 -4.218,-2.553 -5.913,-3.231 -1.683,-0.679 -3.207,-1.504 -4.655,-4.119 -0.187,-0.301 -1.82,-1.913 -3.346,-3.482 -1.531,-1.567 -2.963,-3.084 -2.961,-3.085 -2.878,-1.59 -4.715,-3.47 -6.608,-4.982 -1.899,-1.52 -3.853,-2.671 -7.084,-2.999 -1.219,-2.902 -3.885,-4.948 -6.774,-6.966 -2.881,-2.006 -5.987,-4.003 -7.875,-6.464 -1.882,-2.455 -3.693,-3.847 -5.743,-5.052 -2.042,-1.211 -4.313,-2.226 -6.907,-4.051 -1.228,-1.187 -1.675,-2.334 -2.812,-2.843 -1.159,-0.527 -0.524,-3.391 -1.598,-4.705 l -1.116,0.918 c -0.376,-0.449 -1.106,-1.363 -1.462,-1.835 -0.137,-0.176 -0.276,-0.243 -0.417,-0.243 -0.233,0 -0.47,0.186 -0.707,0.373 -0.523,0.412 -1.043,0.835 -1.68,0.835 -0.288,0 -0.601,-0.087 -0.95,-0.301 -1.826,-1.964 -3.438,-4.206 -4.741,-6.732 -0.17,-2.789 -0.047,-5.615 0.421,-8.4 0.632,-0.241 1.257,-0.501 1.736,-0.929 0.24,-0.816 0.515,-1.625 0.799,-2.422 1.399,-0.564 2.979,-0.512 3.92,-0.865 2.041,-0.133 3.998,-0.972 5.951,-1.606 1.564,-0.517 3.113,-0.91 4.63,-0.91 0.375,0 0.747,0.024 1.118,0.076 0.547,0.102 0.918,0.916 1.464,1.828 0.542,0.914 1.268,1.925 2.34,2.427 0.067,0.021 0.139,0.031 0.215,0.031 0.674,0 1.757,-0.743 3.011,-1.131 0.14,0.825 0.661,1.148 1.295,1.148 0.548,0 1.18,-0.24 1.726,-0.604 l 0.373,0.618 c 0.453,-0.168 1.819,-0.641 1.828,-0.641 1.231,1.518 3.061,2.945 4.595,4.398 1.537,1.465 2.774,2.981 2.94,4.999 0.197,0.798 -0.009,2.461 -0.081,3.608 -0.039,0.573 1.299,1.068 1.633,1.325 -0.711,1.2 -2.077,1.887 -3.103,2.844 1.565,0.963 3.963,2.451 5.517,3.979 1.545,1.532 2.255,3.172 0.207,4.596 2.104,1.851 0.711,3.683 2.717,5.897 2.601,2.964 6.318,6.471 10.307,9.658 2.028,1.908 4.313,3.403 6.604,4.918 0.84,0.583 1.667,1.14 2.463,1.659 8.595,5.702 17.222,9.144 25.685,12.323 4.246,1.584 8.482,3.093 12.819,4.733 4.342,1.638 8.783,3.412 13.54,5.474 9.337,4.049 19.903,6.262 30.052,6.262 0.27,0 0.54,-0.002 0.809,-0.005 5.188,-0.056 10.241,-0.7 14.811,-1.924 4.569,-1.218 8.637,-3.037 11.772,-5.244 3.152,-2.201 5.304,-4.759 6.516,-7.226 1.232,-2.479 1.585,-4.858 1.53,-6.922 -0.063,-2.076 -0.518,-3.884 -1.006,-5.378 -0.493,-1.495 -1.012,-2.674 -1.332,-3.511 0.458,-0.768 0.879,-1.581 1.263,-2.432 1.431,0.943 2.803,2.77 3.701,5.133 0.903,2.358 1.284,5.239 0.833,8.122 -0.434,2.884 -1.733,5.757 -3.512,8.141 -1.76,2.402 -3.941,4.336 -5.672,5.816 -2.855,2.04 -5.385,3.356 -7.262,4.457 -0.295,0.168 -0.404,0.249 -0.349,0.249 0.092,0 0.664,-0.241 1.586,-0.7 1.441,-0.732 3.751,-2.054 6.025,-4.006 2.152,-1.553 4.493,-3.548 6.438,-6.246 -0.615,2.095 -1.649,4.178 -2.885,6.057 -1.233,1.881 -2.649,3.557 -3.927,4.946 -2.364,1.217 -4.874,2.259 -7.496,3.172 -5.795,1.967 -11.851,2.925 -17.883,3.407 -3.763,0.296 -7.532,0.405 -11.325,0.405 -2.299,0 -4.607,-0.04 -6.929,-0.102 -2.236,-0.039 -5.76,-0.384 -9.252,-0.829 -3.496,-0.432 -6.962,-0.952 -9.176,-1.041 8.798,1.87 17.802,3.084 26.913,3.319 1,0.024 2.002,0.036 3.006,0.036 8.117,0 16.322,-0.811 24.234,-3.076 -0.458,0.212 -0.912,0.429 -1.358,0.658 -4.658,1.433 -9.471,2.366 -14.309,2.948 -4.485,0.537 -9,0.771 -13.506,0.771 -0.357,0 -0.713,-10e-4 -1.07,-0.004 -1.414,-0.08 -2.842,-0.137 -4.314,-0.137 -0.238,0 -0.477,0.001 -0.719,0.004 1.676,0.074 3.354,0.119 5.033,0.133 3.894,0.223 7.715,0.678 11.97,0.678 0.435,0 0.874,-0.005 1.319,-0.015 2.956,-0.23 6.256,-1.168 9.159,-1.696 2.374,-0.493 4.394,-1.65 6.437,-2.682 1.389,-0.429 2.764,-0.905 4.118,-1.429 0.431,-0.058 0.89,-0.139 1.343,-0.269 l -0.036,0.064 C 36.82,-9.316 34.276,-7.438 30.355,-5.686 26.447,-3.92 21.196,-2.35 15.771,-1.391 10.347,-0.41 4.773,-0.004 0.21,0 H 0"
             style="fill:#ffffff;fill-opacity:1;fill-rule:nonzero;stroke:none"
             id="path148" /></g><g
           id="g150"
           transform="translate(43.815,28.5127)"
           style="fill:#ffffff"><path
             d="m 0,0 c 0,2.376 -0.424,4.365 -1.272,5.967 -0.847,1.6 -1.984,2.888 -3.408,3.861 -1.425,0.972 -3.076,1.654 -4.951,2.052 -1.876,0.395 -3.86,0.594 -5.951,0.594 -1.985,0 -3.896,-0.063 -5.735,-0.189 -1.84,-0.127 -3.463,-0.298 -4.87,-0.514 -0.541,-0.072 -0.965,-0.224 -1.271,-0.458 -0.307,-0.235 -0.46,-0.622 -0.46,-1.162 V -27 c 0,-0.289 0.108,-0.54 0.324,-0.756 0.216,-0.217 0.467,-0.324 0.756,-0.324 h 5.4 c 0.288,0 0.531,0.107 0.729,0.324 0.197,0.216 0.297,0.467 0.297,0.756 v 14.094 c 0.613,-0.036 1.39,-0.081 2.328,-0.135 0.938,-0.055 1.768,-0.081 2.491,-0.081 2.093,0 4.078,0.207 5.956,0.621 1.876,0.413 3.527,1.115 4.953,2.106 1.426,0.99 2.563,2.294 3.412,3.915 C -0.424,-4.86 0,-2.862 0,-0.486 Z m -7.506,-0.46 c 0,-2.168 -0.621,-3.795 -1.863,-4.879 -1.242,-1.085 -3.321,-1.627 -6.237,-1.627 -0.216,0 -0.549,0.008 -0.999,0.027 -0.451,0.018 -0.918,0.035 -1.404,0.054 -0.486,0.018 -0.954,0.034 -1.404,0.054 -0.451,0.018 -0.783,0.026 -0.999,0.026 V 6.101 c 0.251,0.036 0.585,0.063 0.999,0.081 0.413,0.018 0.855,0.036 1.323,0.053 0.467,0.02 0.926,0.036 1.377,0.056 0.45,0.018 0.818,0.026 1.107,0.026 2.7,0 4.725,-0.478 6.075,-1.436 1.35,-0.958 2.025,-2.576 2.025,-4.853 z m 39.69,-26.162 v 3.456 c 0,0.288 -0.108,0.54 -0.324,0.756 -0.216,0.216 -0.469,0.324 -0.756,0.324 H 20.088 c -1.585,0 -2.692,0.323 -3.321,0.972 -0.631,0.648 -0.945,1.871 -0.945,3.672 v 6.965 h 14.634 c 0.287,0 0.54,0.109 0.756,0.325 0.216,0.216 0.324,0.466 0.324,0.756 v 3.888 c 0,0.287 -0.108,0.54 -0.324,0.756 -0.216,0.216 -0.469,0.324 -0.756,0.324 H 15.822 v 5.831 c 0,1.801 0.314,3.025 0.945,3.673 0.629,0.648 1.736,0.972 3.321,0.972 h 11.016 c 0.287,0 0.54,0.108 0.756,0.324 0.216,0.216 0.324,0.467 0.324,0.756 v 3.456 c 0,0.396 -0.081,0.666 -0.243,0.81 -0.162,0.143 -0.442,0.251 -0.837,0.324 -0.432,0.072 -0.91,0.153 -1.431,0.243 -0.523,0.089 -1.171,0.17 -1.944,0.243 -0.775,0.071 -1.711,0.135 -2.808,0.189 -1.099,0.054 -2.457,0.081 -4.077,0.081 -1.765,0 -3.406,-0.144 -4.923,-0.432 C 14.404,11.753 13.084,11.205 11.96,10.395 10.836,9.585 9.947,8.459 9.294,7.02 8.641,5.58 8.316,3.707 8.316,1.403 v -18.845 c 0,-2.304 0.325,-4.177 0.978,-5.617 0.653,-1.439 1.542,-2.564 2.666,-3.375 1.124,-0.809 2.444,-1.358 3.961,-1.646 1.517,-0.288 3.158,-0.433 4.923,-0.433 1.62,0 2.978,0.028 4.077,0.081 1.097,0.055 2.033,0.118 2.808,0.19 0.773,0.073 1.421,0.154 1.944,0.243 0.521,0.089 0.999,0.17 1.431,0.243 0.395,0.071 0.675,0.18 0.837,0.323 0.162,0.144 0.243,0.413 0.243,0.811 M 70.901,-27 62.423,-11.232 c 2.248,0.864 4.034,2.195 5.358,3.996 1.324,1.8 1.986,4.138 1.986,7.02 V 0.27 c 0,2.303 -0.424,4.239 -1.272,5.805 -0.848,1.566 -1.984,2.816 -3.408,3.753 -1.425,0.936 -3.076,1.611 -4.951,2.025 -1.876,0.413 -3.86,0.621 -5.951,0.621 -1.985,0 -3.896,-0.063 -5.735,-0.189 -1.84,-0.127 -3.463,-0.298 -4.87,-0.514 -0.541,-0.072 -0.965,-0.224 -1.271,-0.458 -0.307,-0.235 -0.46,-0.622 -0.46,-1.162 V -27 c 0,-0.289 0.108,-0.54 0.324,-0.756 0.216,-0.217 0.467,-0.324 0.756,-0.324 h 5.4 c 0.288,0 0.531,0.106 0.729,0.322 0.197,0.215 0.297,0.467 0.297,0.755 v 14.583 c 0.612,-0.036 1.385,-0.081 2.322,-0.136 0.936,-0.053 1.763,-0.08 2.484,-0.08 h 0.756 l 7.776,-14.367 c 0.143,-0.288 0.288,-0.54 0.432,-0.755 0.143,-0.216 0.359,-0.322 0.648,-0.322 h 6.588 c 0.432,0 0.648,0.216 0.648,0.647 0,0.181 -0.036,0.325 -0.108,0.433 m -8.64,26.784 c 0,-2.376 -0.648,-4.015 -1.944,-4.914 -1.296,-0.9 -3.348,-1.35 -6.156,-1.35 -0.216,0 -0.549,0.007 -0.999,0.027 -0.451,0.017 -0.918,0.035 -1.404,0.054 -0.486,0.018 -0.954,0.035 -1.404,0.053 -0.451,0.019 -0.783,0.028 -0.999,0.028 v 12.15 c 0.251,0.035 0.585,0.062 0.999,0.081 0.413,0.018 0.855,0.035 1.323,0.054 0.467,0.017 0.926,0.035 1.377,0.054 0.45,0.018 0.818,0.027 1.107,0.027 2.7,0 4.725,-0.451 6.075,-1.35 1.35,-0.9 2.025,-2.376 2.025,-4.428 z m 38.664,-26.406 v 3.456 c 0,0.288 -0.108,0.54 -0.324,0.756 -0.216,0.216 -0.468,0.324 -0.756,0.324 h -9.936 c -1.584,0 -2.682,0.323 -3.294,0.972 -0.612,0.648 -0.918,1.871 -0.918,3.672 v 28.404 c 0,0.288 -0.108,0.54 -0.324,0.756 -0.216,0.216 -0.468,0.324 -0.756,0.324 h -5.346 c -0.288,0 -0.54,-0.108 -0.756,-0.324 -0.216,-0.216 -0.324,-0.468 -0.324,-0.756 v -28.404 c 0,-2.304 0.324,-4.177 0.972,-5.617 0.648,-1.439 1.53,-2.564 2.646,-3.375 1.116,-0.809 2.43,-1.358 3.942,-1.646 1.512,-0.288 3.15,-0.433 4.914,-0.433 0.72,0 1.53,0.02 2.43,0.055 0.9,0.036 1.782,0.09 2.646,0.162 0.864,0.072 1.665,0.153 2.403,0.243 0.738,0.089 1.305,0.189 1.701,0.297 0.396,0.071 0.675,0.18 0.837,0.323 0.162,0.144 0.243,0.413 0.243,0.811 m 35.046,13.392 v 24.246 c 0,0.288 -0.108,0.531 -0.324,0.729 -0.216,0.196 -0.468,0.297 -0.756,0.297 h -5.346 c -0.288,0 -0.54,-0.101 -0.756,-0.298 -0.216,-0.198 -0.324,-0.441 -0.324,-0.73 V -13.27 c 0,-1.55 -0.108,-2.894 -0.324,-4.029 -0.216,-1.137 -0.603,-2.083 -1.161,-2.841 -0.559,-0.756 -1.315,-1.315 -2.268,-1.675 -0.954,-0.361 -2.152,-0.541 -3.591,-0.541 -1.476,0 -2.682,0.18 -3.618,0.541 -0.937,0.36 -1.683,0.919 -2.241,1.675 -0.559,0.758 -0.945,1.704 -1.161,2.841 -0.216,1.135 -0.324,2.479 -0.324,4.029 v 24.284 c 0,0.289 -0.108,0.532 -0.324,0.73 -0.216,0.197 -0.468,0.298 -0.756,0.298 h -5.346 c -0.288,0 -0.54,-0.101 -0.756,-0.297 -0.216,-0.198 -0.324,-0.441 -0.324,-0.729 V -13.23 c 0,-2.881 0.369,-5.292 1.107,-7.236 0.737,-1.944 1.763,-3.511 3.078,-4.698 1.314,-1.188 2.88,-2.044 4.698,-2.565 1.817,-0.521 3.807,-0.784 5.967,-0.784 2.16,0 4.149,0.263 5.967,0.784 1.817,0.521 3.383,1.377 4.698,2.565 1.314,1.187 2.34,2.754 3.078,4.698 0.738,1.944 1.107,4.355 1.107,7.236 m 39.311,-13.77 -8.478,15.768 c 2.248,0.864 4.034,2.195 5.358,3.996 1.324,1.8 1.986,4.138 1.986,7.02 V 0.27 c 0,2.303 -0.424,4.239 -1.271,5.805 -0.848,1.566 -1.985,2.816 -3.409,3.753 -1.425,0.936 -3.075,1.611 -4.951,2.025 -1.876,0.413 -3.859,0.621 -5.951,0.621 -1.985,0 -3.896,-0.063 -5.735,-0.189 -1.839,-0.127 -3.463,-0.298 -4.869,-0.514 -0.542,-0.072 -0.966,-0.224 -1.272,-0.458 -0.307,-0.235 -0.46,-0.622 -0.46,-1.162 V -27 c 0,-0.289 0.108,-0.54 0.324,-0.756 0.216,-0.217 0.468,-0.324 0.756,-0.324 h 5.4 c 0.288,0 0.531,0.106 0.729,0.322 0.198,0.215 0.297,0.467 0.297,0.755 v 14.583 c 0.612,-0.036 1.386,-0.081 2.322,-0.136 0.936,-0.053 1.764,-0.08 2.483,-0.08 h 0.757 l 7.776,-14.367 c 0.144,-0.288 0.288,-0.54 0.432,-0.755 0.144,-0.216 0.36,-0.322 0.648,-0.322 h 6.588 c 0.432,0 0.648,0.216 0.648,0.647 0,0.181 -0.036,0.325 -0.108,0.433 m -8.64,26.784 c 0,-2.376 -0.648,-4.015 -1.944,-4.914 -1.296,-0.9 -3.348,-1.35 -6.157,-1.35 -0.215,0 -0.548,0.007 -0.998,0.027 -0.45,0.017 -0.918,0.035 -1.404,0.054 -0.486,0.018 -0.954,0.035 -1.404,0.053 -0.45,0.019 -0.783,0.028 -0.999,0.028 v 12.15 c 0.252,0.035 0.585,0.062 0.999,0.081 0.414,0.018 0.855,0.035 1.323,0.054 0.468,0.017 0.927,0.035 1.377,0.054 0.45,0.018 0.819,0.027 1.106,0.027 2.701,0 4.726,-0.451 6.076,-1.35 1.35,-0.9 2.025,-2.376 2.025,-4.428 z"
             style="fill:#ffffff;fill-opacity:1;fill-rule:nonzero;stroke:none"
             id="path152" /></g></g></g></g></svg>
