<?xml version="1.0" encoding="utf-8"?>
<!-- Generator: Adobe Illustrator 22.0.1, SVG Export Plug-In . SVG Version: 6.00 Build 0)  -->
<svg version="1.2" baseProfile="tiny" xmlns="http://www.w3.org/2000/svg" xmlns:xlink="http://www.w3.org/1999/xlink" x="0px"
	 y="0px" viewBox="0 0 624.9 126.2" xml:space="preserve">
<g id="Layer_1">
	<path fill="#FFFFFF" d="M513.5,37.3v84.6c0,2.8,1.6,4.4,4.4,4.4h12.5c2.8,0,4.2-1.6,4.2-4.4V39.1c0-4.1,2.5-6.6,6.6-6.6h56.2
		c4.1,0,6.6,2.5,6.6,6.6v27.3c0,1.7-0.6,2.3-2.4,2.3h-49.2V88h49.2c1.7,0,2.4,0.6,2.4,2.3v31.5c0,2.8,1.4,4.4,4.2,4.4h12.5
		c2.8,0,4.4-1.6,4.4-4.4V37.3c0-14.5-9.2-23.7-23.7-23.7h-64C522.7,13.5,513.5,22.7,513.5,37.3 M222.5,13.5L222.5,13.5h-72.4
		c-2.8,0-4.2,1.6-4.2,4.4v103.9c0,2.8,1.6,4.4,4.4,4.4h12.5c2.8,0,4.2-1.6,4.2-4.4V34.9c0-1.7,0.6-2.3,2.4-2.3h49.3
		c4.1,0,6.5,2.5,6.5,6.6v18.2c0,4.1-2.5,6.6-6.5,6.6h-32.4v19h36.3c14.5,0,23.7-9.2,23.7-23.7v-22C246.2,22.7,237,13.5,222.5,13.5
		 M464.7,13.5L464.7,13.5h-70.8c-2.8,0-4.2,1.6-4.2,4.4v73.3h21V34.9c0-1.7,0.6-2.3,2.4-2.3h48.3c11,0,18.8,20.9,18.8,36.2
		s-6.7,38.4-18.8,38.4l-71.7,0.1v14.6c0,2.8,1.4,4.4,4.2,4.4h70.8c23.7,0,36.6-29.1,36.6-57.4C501.3,40.4,486.3,13.5,464.7,13.5
		 M343.1,13.5L343.1,13.5h-52.2c-19.7,0-31.1,11.4-31.1,31.1v50.5c0,19.6,11.4,31,31.1,31h52.2c19.7,0,31-11.4,31-31V44.6
		C374.1,24.9,362.7,13.5,343.1,13.5 M353.1,94L353.1,94c0,8.7-4.5,13.1-13.2,13.1h-45.7c-8.7,0-13.3-4.4-13.3-13.1V45.7
		c0-8.7,4.5-13.1,13.3-13.1h45.7c8.7,0,13.2,4.4,13.2,13.1V94z"/>
	<path fill="#FFFFFF" d="M55,14.4H0v111.3h23.7c-7.5-6.7-12-16.8-12-29.2C11.8,68.4,27.6,42,55,14.4 M85.5,14.4L85.5,14.4
		c-0.2,1.2-0.3,2.4-0.1,3.9c0.5,3.2,2.7,6,4.1,8.9c1.5,2.3-2,11.7,5.6,25c-20.2,3-36.8,9.5-47.5,23.5c-17.6,23-14,39.9,7.4,42.6
		c21.9,2.8,38.8-31.9,16.3-34c-11.3-1-20.6,9.1-16.7,15.8c2.9,1.2,6-1.7,10-6.5c-1.4,23.3-27.6,19.6-14-4.1
		c14.7-25.5,52.5-25.6,51.8-0.3c-0.4,15-8,28-20.4,36.3h29.3V14.4H85.5z"/>
	<path fill="#FFFFFF" d="M59.6,41.5c0.2-0.8,0.4-1.8,0.8-3L65,21.6l0.1-0.6l0.1-0.5c0-1-0.3-1.6-0.9-1.9c-0.6-0.2-1.8-0.4-3.5-0.5
		v-2c1.4-0.1,3.5-0.3,6.1-0.6c2.7-0.3,4.6-0.6,5.7-0.8l3.2-0.6l-5.9,21.3c-0.5,1.8-0.8,3.1-1,3.8c-0.4,1.8-0.7,3-0.7,3.5l0.4,1
		l0.8,0.2c0.8,0,1.7-0.6,2.8-1.9c1.1-1.3,2.1-2.6,3-4l1.6,1.1c-2.4,3.6-4.3,6-5.6,7.2c-2.1,2-4.4,3.1-6.8,3.1
		c-1.4,0-2.6-0.4-3.7-1.3c-1.1-0.8-1.6-2.1-1.6-3.9C59.2,43.7,59.3,42.8,59.6,41.5 M76.6,1.5L76.6,1.5c1,1,1.5,2.2,1.5,3.5
		c0,1.4-0.5,2.6-1.5,3.5c-1,1-2.1,1.5-3.5,1.5c-1.4,0-2.6-0.5-3.5-1.5c-1-1-1.5-2.2-1.5-3.5c0-1.4,0.5-2.6,1.5-3.5
		c1-1,2.2-1.5,3.5-1.5C74.4,0,75.6,0.5,76.6,1.5"/>
</g>
<g id="Layer_2">
</g>
</svg>
